<svg width="42" height="42" viewBox="0 0 42 42" fill="none" xmlns="http://www.w3.org/2000/svg">
<path d="M16.0299 19.0225C15.8549 19.005 15.6449 19.005 15.4524 19.0225C11.2874 18.8825 7.97986 15.47 7.97986 11.27C7.97986 6.9825 11.4449 3.5 15.7499 3.5C20.0374 3.5 23.5199 6.9825 23.5199 11.27C23.5024 15.47 20.1949 18.8825 16.0299 19.0225Z" stroke="#1D2628" stroke-width="3" stroke-linecap="round" stroke-linejoin="round"/>
<path d="M28.7174 7C32.1124 7 34.8424 9.7475 34.8424 13.125C34.8424 16.4325 32.2174 19.1275 28.9449 19.25C28.8049 19.2325 28.6474 19.2325 28.4899 19.25" stroke="#1D2628" stroke-width="3" stroke-linecap="round" stroke-linejoin="round"/>
<path d="M7.28013 25.48C3.04513 28.315 3.04513 32.935 7.28013 35.7525C12.0926 38.9725 19.9851 38.9725 24.7976 35.7525C29.0326 32.9175 29.0326 28.2975 24.7976 25.48C20.0026 22.2775 12.1101 22.2775 7.28013 25.48Z" stroke="#1D2628" stroke-width="3" stroke-linecap="round" stroke-linejoin="round"/>
<path d="M32.095 35C33.355 34.7375 34.545 34.23 35.525 33.4775C38.255 31.43 38.255 28.0525 35.525 26.005C34.5625 25.27 33.39 24.78 32.1475 24.5" stroke="#1D2628" stroke-width="3" stroke-linecap="round" stroke-linejoin="round"/>
</svg>
