<svg width="552" height="407" viewBox="0 0 552 407" fill="none" xmlns="http://www.w3.org/2000/svg">
<g filter="url(#filter0_d_410_4185)">
<g clip-path="url(#clip0_410_4185)">
<rect x="38" y="37.5556" width="286.451" height="199.697" rx="13.0949" fill="#252024"/>
<rect x="38" y="58.0164" width="286.451" height="179.236" fill="white"/>
<rect x="48.6396" y="44.9215" width="7.36587" height="7.36587" rx="3.68293" fill="#EA695E"/>
<rect x="58.4609" y="44.9215" width="7.36587" height="7.36587" rx="3.68293" fill="#F3BD4F"/>
<rect x="68.2817" y="44.9215" width="7.36587" height="7.36587" rx="3.68293" fill="#66C454"/>
<path d="M102.145 52.1847C100.368 41.0494 108.068 34.5533 111.484 33.518C113.446 32.891 115.55 32.8629 117.528 33.4373C117.528 33.4373 115.007 14.5814 126.329 9.43124C137.651 4.28108 144.438 7.6768 148.618 11.6306C152.798 15.5844 153.067 18.2541 153.067 18.2541C153.067 18.2541 156.897 13.4946 165.693 14.9457C174.49 16.3968 174.093 25.8762 174.093 25.8762C174.093 25.8762 180.096 22.7726 185.516 32.5219C190.936 42.2712 183.935 61.9522 180.437 65.4281C176.938 68.904 115.881 71.0634 115.881 71.0634C115.881 71.0634 103.921 63.32 102.145 52.1847Z" fill="#1D2628"/>
<path d="M305.608 122.683L234.323 91.6305L206.634 100.03L254.248 144.836L305.608 122.683Z" fill="#F9ACC0"/>
<path d="M68.4851 137.368L66.9609 190.884L84.0397 184.673L78.753 240.668L229.659 241.289L219.391 156.659L259.529 144.217L237.748 95.0514C237.748 95.0514 180.902 100.185 145.96 108.43C129.359 112.597 113.125 118.113 97.4206 124.921C78.753 132.7 68.4851 137.368 68.4851 137.368Z" fill="#1A61AE"/>
<path d="M241.81 150.425C241.696 150.467 241.574 150.483 241.453 150.473C241.331 150.463 241.211 150.427 241.1 150.367C240.989 150.307 240.89 150.224 240.807 150.124C240.724 150.023 240.659 149.907 240.617 149.781L223.229 96.5844C223.186 96.4594 223.166 96.3274 223.17 96.1961C223.174 96.0649 223.202 95.9368 223.253 95.8194C223.303 95.7019 223.374 95.5973 223.463 95.5115C223.552 95.4257 223.656 95.3603 223.769 95.3193C223.883 95.2782 224.004 95.2622 224.125 95.2721C224.247 95.282 224.366 95.3177 224.476 95.3771C224.587 95.4365 224.686 95.5185 224.769 95.6183C224.852 95.7182 224.917 95.8339 224.959 95.959L242.306 149.173C242.336 149.193 242.359 149.223 242.373 149.258C242.428 149.5 242.402 149.751 242.298 149.966C242.195 150.181 242.021 150.344 241.81 150.425Z" fill="white"/>
<path d="M67.8022 190.604L84.0452 184.653L83.1421 194.401L86.5319 165.962L67.8022 190.604Z" fill="#1A61AE"/>
<path d="M67.8022 190.604L84.0452 184.653L83.1421 194.401L86.5319 165.962L67.8022 190.604Z" fill="black" fill-opacity="0.2"/>
<path d="M221.29 172.219L219.394 156.662L228.355 153.893L215.253 131.302L221.29 172.219Z" fill="#1A61AE"/>
<path d="M221.29 172.219L219.394 156.662L228.355 153.893L215.253 131.302L221.29 172.219Z" fill="black" fill-opacity="0.2"/>
<path d="M155.406 121.61C158.322 120.928 161.164 119.962 163.893 118.727C165.943 117.81 167.778 116.475 169.281 114.807C170.501 113.392 171.298 111.663 171.582 109.817L155.406 121.61ZM155.406 121.61C150.994 122.912 146.355 123.255 141.8 122.615L155.406 121.61ZM171.067 109.745C170.796 111.49 170.043 113.124 168.891 114.463C167.437 116.075 165.662 117.365 163.68 118.252L163.678 118.253C160.981 119.474 158.17 120.429 155.287 121.103L155.273 121.106L155.258 121.111C150.921 122.391 146.359 122.729 141.88 122.101C139.126 121.624 136.57 120.355 134.527 118.448C132.944 116.843 131.644 114.981 130.682 112.941L130.676 112.927L130.668 112.913C130.557 112.71 130.457 112.501 130.371 112.286L130.365 112.272L130.359 112.259C130.222 111.971 129.984 111.774 129.691 111.712C129.417 111.654 129.153 111.725 128.952 111.843C128.565 112.07 128.214 112.621 128.511 113.225C129.546 115.431 130.88 117.484 132.474 119.326L132.481 119.334L132.488 119.342C134.609 121.601 137.347 123.185 140.362 123.898L140.37 123.899L140.377 123.901C144.909 124.835 149.596 124.712 154.073 123.542C157.186 122.884 160.235 121.955 163.185 120.765C165.527 119.846 167.681 118.506 169.54 116.811L169.54 116.811L169.547 116.805C171.086 115.353 172.21 113.516 172.801 111.485L172.803 111.478L172.805 111.471C173.352 109.38 173.395 107.189 172.933 105.078C172.82 104.494 172.676 103.916 172.501 103.348C172.422 103.087 172.244 102.869 172.004 102.739C171.764 102.61 171.483 102.581 171.221 102.659C170.96 102.738 170.741 102.916 170.611 103.156C170.482 103.396 170.453 103.678 170.531 103.939L170.531 103.939L170.534 103.948C171.129 105.819 171.311 107.797 171.067 109.745Z" fill="white" stroke="white" stroke-width="1.04119"/>
<path d="M234.483 106.719C204.924 90.5385 188.422 80.8941 188.422 80.8941C184.086 79.9048 179.973 78.1107 176.299 75.6049C172.254 72.1814 177.388 54.2824 177.388 54.2824C177.388 54.2824 174.122 43.5564 175.677 42.6248C177.233 41.6932 179.404 40.7565 184.701 45.4247C188.261 49.0058 190.927 53.3767 192.479 58.182C192.479 58.182 259.063 67.2053 278.354 74.0497C297.646 80.8941 314.447 89.2964 312.892 108.898C311.337 128.5 291.112 126.01 291.112 126.01C271.254 122.936 252.088 116.407 234.483 106.719Z" fill="#F9D2DD"/>
<path d="M176.299 50.3103C176.816 52.4891 177.388 54.2927 177.388 54.2927C177.388 54.2927 172.254 72.184 176.299 75.6075C178.523 77.2804 181.003 78.5832 183.642 79.4657C186.23 76.1664 189.835 70.2251 188.59 63.6291C187.221 56.3784 180.064 52.0828 176.299 50.3103Z" fill="#F9ACC0"/>
<path d="M175.093 74.2709C170.001 74.9057 165.246 70.236 164.449 63.8396C163.651 57.4432 167.114 51.7492 172.206 51.1144C177.298 50.4796 182.053 55.1518 182.85 61.5457C183.647 67.9395 180.174 73.6374 175.093 74.2709Z" fill="#F99A3D"/>
<path d="M172.889 71.2944C169.201 71.5457 165.957 67.9943 165.642 63.3639C165.326 58.7334 168.059 54.7774 171.747 54.5262C175.434 54.2749 178.678 57.8263 178.994 62.4541C179.309 67.082 176.577 71.0431 172.889 71.2944Z" fill="#FF7F2D"/>
<path d="M118.583 72.9629C117.711 81.761 131.961 85.4097 131.961 85.4097C133.726 91.4295 135.077 97.5628 136.006 103.767C136.371 108.011 136.371 112.279 136.006 116.524C141.204 119.465 147.349 120.247 153.118 118.703C165.875 115.903 166.497 110.614 166.497 110.614L161.518 90.0779C164.566 88.9796 167.253 87.063 169.284 84.5383C171.315 82.0135 172.611 78.9782 173.03 75.7653C174.146 69.8707 173.173 52.4361 172.483 47.4498C168.21 52.5778 157.954 54.5722 153.681 50.0138C148.739 44.742 142.571 44.8859 140.007 45.7405C136.763 46.8216 132.548 48.9561 132.199 54.5722C132.193 54.6706 132.187 54.7689 132.182 54.8671C131.919 59.9221 132.985 64.6822 132.895 65.1843C131.34 72.9629 130.406 73.2734 130.406 73.2734L129.785 67.6737C129.785 67.6737 119.838 60.2056 118.583 72.9629Z" fill="#F9D2DD"/>
<path d="M142.442 75.1733C138.909 75.8177 135.725 74.5859 135.331 72.4221C134.936 70.2582 137.48 67.982 141.014 67.3376C144.547 66.6932 147.731 67.925 148.125 70.0888C148.52 72.2527 145.973 74.5294 142.442 75.1733Z" fill="#F9ACC0"/>
<path d="M161.673 57.2478C161.882 56.8489 162.174 56.4987 162.528 56.22C162.882 55.9413 163.29 55.7405 163.727 55.6305C164.145 55.5334 164.575 55.4977 165.003 55.5244C165.441 55.5528 165.866 55.6802 166.248 55.8971C166.629 56.0886 166.945 56.389 167.156 56.7603C167.366 57.1316 167.462 57.5571 167.43 57.9827C166.942 57.583 166.346 57.3379 165.717 57.2789C165.459 57.2479 165.199 57.2479 164.941 57.2789C164.805 57.2826 164.669 57.3017 164.537 57.3358C164.382 57.3358 164.279 57.3979 164.165 57.3979C163.935 57.4511 163.714 57.5383 163.51 57.6567C163.272 57.7667 163.051 57.9115 162.855 58.0862C162.452 58.4899 162.014 58.9893 161.518 59.5793C161.381 59.201 161.325 58.7986 161.352 58.3974C161.378 57.9962 161.488 57.6048 161.673 57.2478Z" fill="#1F1F39"/>
<path d="M141.885 61.4555C142.053 61.0702 142.296 60.7225 142.601 60.4327C142.905 60.1429 143.265 59.917 143.658 59.7683C143.784 59.7373 143.867 59.7062 144.002 59.6752L144.157 59.6441H144.675C144.779 59.6405 144.883 59.651 144.985 59.6752C145.399 59.723 145.801 59.8495 146.168 60.0478C146.542 60.2658 146.853 60.577 147.071 60.9509C147.165 61.1359 147.228 61.3353 147.257 61.5409C147.295 61.7377 147.286 61.9408 147.231 62.1335C146.986 61.9252 146.713 61.7512 146.421 61.6159C146.181 61.5331 145.932 61.4792 145.679 61.4555H144.747C144.685 61.4555 144.644 61.4788 144.592 61.4788H144.53L144.468 61.5098C144.437 61.5098 144.374 61.5409 144.343 61.5409C143.898 61.73 143.488 61.9924 143.13 62.3172C142.633 62.6898 142.196 63.1582 141.606 63.624C141.465 62.8899 141.563 62.13 141.885 61.4555Z" fill="#1F1F39"/>
<path d="M157.538 61.8228C157.888 62.1052 158.201 62.4293 158.472 62.788C158.767 63.1608 158.969 63.598 159.062 64.0638C159.099 64.3128 159.088 64.5665 159.031 64.8116C159.009 64.9315 158.967 65.0469 158.907 65.1532C158.881 65.2773 158.828 65.3941 158.752 65.4948C158.534 65.9237 158.199 66.2825 157.786 66.5298C157.025 67.0011 156.12 67.1847 155.235 67.0474C156.055 66.9009 156.832 66.571 157.507 66.0822C157.82 65.8539 158.057 65.5377 158.19 65.1739C158.23 65.0912 158.261 65.0044 158.283 64.9151C158.316 64.8322 158.337 64.7451 158.345 64.6564C158.375 64.4851 158.375 64.31 158.345 64.1388C158.275 63.7671 158.126 63.4144 157.911 63.1037C157.678 62.7713 157.419 62.4588 157.134 62.1696C156.572 61.5648 155.957 61.0114 155.297 60.5161C156.109 60.8288 156.866 61.27 157.538 61.8228Z" fill="#1F1F39"/>
<path d="M156.883 70.815C158.838 70.5055 160.699 69.7609 162.328 68.6362C162.328 68.6362 164.444 75.5117 162.069 77.8768C159.693 80.242 153.618 80.6146 152.031 76.2906C150.445 71.9665 150.973 71.0013 150.973 71.0013C152.941 71.2499 154.935 71.187 156.883 70.815Z" fill="#F95368"/>
<path d="M162.917 76.2494C161.208 75.6354 159.352 75.5622 157.6 76.0398C156.047 76.4591 154.624 77.2597 153.459 78.3687C154.743 79.2492 156.283 79.6787 157.838 79.5897C159.392 79.5007 160.873 78.8983 162.048 77.877C162.47 77.4162 162.769 76.8564 162.917 76.2494Z" fill="#F9ACC0"/>
<path d="M132.895 65.2154C131.343 72.994 130.406 73.3045 130.406 73.3045L129.785 67.7047C129.538 67.522 129.278 67.356 129.009 67.2079L122.721 81.052C125.522 83.0336 128.65 84.5077 131.961 85.4071C131.961 85.4071 132.272 86.4422 132.678 88.0517C135.279 84.756 137.015 80.8627 137.729 76.7254C138.495 74.1 138.488 71.3093 137.707 68.6881C136.927 66.0669 135.407 63.7263 133.33 61.9471C133.265 63.0457 133.12 64.138 132.895 65.2154Z" fill="#F9ACC0"/>
<path d="M128.813 85.3446C123.171 85.7268 118.21 80.2973 117.73 73.2155C117.251 66.1337 121.434 60.0846 127.075 59.7024C132.716 59.3202 137.678 64.7497 138.157 71.8315C138.637 78.9133 134.454 84.9624 128.813 85.3446Z" fill="#F99A3D"/>
<path d="M127.453 80.3155C123.766 80.5653 120.525 77.0138 120.211 72.3847C119.898 67.7556 122.631 63.8019 126.317 63.5521C130.004 63.3023 133.246 66.8538 133.559 71.4803C133.873 76.1069 131.14 80.0657 127.453 80.3155Z" fill="#FF7F2D"/>
<path d="M119.517 35.6225C116.571 40.8398 115.067 46.7469 115.159 52.7375C115.066 56.9212 115.487 61.1005 116.412 65.1817L123.538 62.0765C123.538 62.0765 121.328 47.2904 124.803 38.7355C126.407 34.609 129.188 31.0454 132.802 28.4883C132.988 28.3641 134.14 27.6162 135.105 27.0883C135.416 26.9331 135.695 26.8089 135.915 26.6847L136.95 26.281C136.95 26.281 138.474 25.3779 139.75 24.7284C141.266 24.0183 152.094 18.0696 153.681 17.5369C149.382 16.2386 145.016 16.2641 140.861 17.9642C135.707 20.6202 122.036 30.4004 119.517 35.6225Z" fill="#F99A3D"/>
<path d="M149.883 189.857L150.97 188.77C151.198 188.528 151.473 188.334 151.777 188.2C152.082 188.066 152.41 187.995 152.742 187.99C153.075 187.985 153.405 188.047 153.713 188.172C154.021 188.297 154.301 188.482 154.537 188.717C154.772 188.952 154.958 189.232 155.083 189.54C155.208 189.848 155.27 190.178 155.265 190.511C155.261 190.844 155.19 191.172 155.056 191.476C154.922 191.781 154.729 192.055 154.487 192.284L153.397 193.373C152.927 193.817 152.301 194.06 151.654 194.051C151.007 194.041 150.389 193.78 149.932 193.322C149.474 192.864 149.213 192.246 149.204 191.599C149.195 190.952 149.439 190.327 149.883 189.857Z" fill="#1F1F39"/>
<path d="M161.707 90.9138C161.831 90.417 157.786 91.9696 153.428 91.9696C146.242 91.9696 143.784 90.417 143.784 90.417C143.784 90.417 150.629 99.1297 157.786 101.93C160.043 102.822 162.407 103.417 164.817 103.702L161.707 90.9138Z" fill="#F9ACC0"/>
<path d="M142.757 90.3547C142.722 90.3405 142.69 90.3195 142.663 90.2929C142.636 90.2663 142.615 90.2346 142.601 90.1996C142.586 90.1647 142.579 90.1272 142.579 90.0894C142.579 90.0516 142.587 90.0143 142.602 89.9795C142.616 89.9444 142.637 89.9125 142.664 89.8857C142.69 89.8589 142.722 89.8376 142.757 89.8232C142.792 89.8087 142.829 89.8014 142.867 89.8015C142.905 89.8017 142.942 89.8094 142.977 89.8242C146.308 91.1139 149.86 91.7373 153.431 91.6589C156.177 91.5908 158.9 91.1396 161.52 90.3185C161.557 90.3056 161.596 90.3002 161.635 90.3026C161.674 90.305 161.711 90.3152 161.746 90.3326C161.781 90.35 161.812 90.3742 161.837 90.4038C161.862 90.4333 161.881 90.4677 161.893 90.5048C161.906 90.5414 161.911 90.5803 161.909 90.6191C161.906 90.6579 161.896 90.6958 161.879 90.7306C161.861 90.7653 161.837 90.7963 161.808 90.8215C161.778 90.8467 161.744 90.8657 161.707 90.8774C159.029 91.7386 156.239 92.1999 153.426 92.2463H152.65C149.268 92.1903 145.921 91.5504 142.757 90.3547Z" fill="#1F1F39"/>
<path d="M89.0212 149.191L84.0425 184.661L89.0212 149.191Z" fill="#1F1F39"/>
<path d="M84.0166 184.974C83.9766 184.97 83.9378 184.957 83.9028 184.938C83.8677 184.918 83.837 184.891 83.8128 184.859C83.7885 184.827 83.7711 184.79 83.7616 184.751C83.7522 184.712 83.7509 184.672 83.7578 184.632L88.7417 149.165C88.7607 149.093 88.8056 149.031 88.8679 148.99C88.9302 148.95 89.0054 148.933 89.0788 148.945C89.1523 148.957 89.2189 148.995 89.2656 149.053C89.3123 149.111 89.3359 149.184 89.3317 149.258L84.353 184.725C84.3367 184.796 84.2974 184.86 84.2414 184.907C84.1853 184.954 84.1154 184.981 84.0425 184.984L84.0166 184.974Z" fill="#1F1F39"/>
<path d="M98.0524 60.8266C100.818 55.52 105.021 51.0989 110.181 48.0693C113.604 47.1351 114.536 49.314 114.536 49.314C115.205 48.7221 116.007 48.2999 116.873 48.0833C117.74 47.8666 118.646 47.8618 119.515 48.0693C120.238 48.3484 120.876 48.8108 121.367 49.4109C121.858 50.0111 122.184 50.7285 122.315 51.4928C123.026 50.9665 123.874 50.657 124.758 50.6015C125.641 50.5459 126.521 50.7467 127.293 51.1797C129.472 52.4244 128.846 55.5348 127.293 57.3902C125.741 59.2455 121.083 62.6794 120.759 64.5477C120.436 66.416 128.538 86.3283 124.804 99.7066C121.07 113.085 90.8897 165.993 76.8877 183.416C62.8857 200.839 44.8392 198.352 39.2394 193.997C34.2325 190.169 30.7809 184.657 29.5227 178.481C28.2645 172.305 29.2848 165.883 32.395 160.401C41.1051 143.581 98.0524 83.8519 98.0524 83.8519C98.0524 83.8519 95.8684 66.1158 98.0524 60.8266Z" fill="#F9D2DD"/>
<path d="M113.012 72.7119C112.918 72.2772 110.833 61.634 114.318 57.8379C116.675 55.3512 119.306 53.1385 122.159 51.2419C122.191 51.2192 122.227 51.2035 122.266 51.1959C122.304 51.1883 122.344 51.1889 122.382 51.1977C122.42 51.2065 122.456 51.2233 122.487 51.247C122.518 51.2706 122.544 51.3006 122.563 51.335C122.585 51.3669 122.601 51.4033 122.609 51.4417C122.616 51.4801 122.616 51.5197 122.607 51.5578C122.598 51.596 122.581 51.6318 122.558 51.663C122.534 51.6942 122.504 51.72 122.47 51.7387C119.673 53.6129 117.086 55.7817 114.753 58.2079C111.456 61.7996 113.571 72.4635 113.571 72.5877C113.578 72.6249 113.578 72.6633 113.571 72.7005C113.563 72.7378 113.549 72.7732 113.527 72.8047C113.506 72.8363 113.479 72.8633 113.447 72.8842C113.416 72.9051 113.38 72.9196 113.343 72.9267C113.343 72.9578 113.312 72.9578 113.281 72.9578C113.215 72.9529 113.152 72.926 113.104 72.8814C113.055 72.8368 113.022 72.7771 113.012 72.7119Z" fill="#1F1F39"/>
<path d="M103.988 68.3257C103.957 67.9841 103.406 59.7682 106.229 56.2852C108.675 53.5889 111.408 51.168 114.38 49.0655C114.443 49.0194 114.522 49 114.599 49.0117C114.676 49.0233 114.745 49.065 114.792 49.1276C114.834 49.1907 114.85 49.2675 114.837 49.3422C114.824 49.4168 114.783 49.4837 114.722 49.5287C111.802 51.5999 109.113 53.9778 106.7 56.6216C103.988 59.9235 104.581 68.1601 104.581 68.2325C104.587 68.3228 104.559 68.412 104.501 68.4815C104.443 68.551 104.36 68.5954 104.27 68.6052C104.233 68.6055 104.197 68.5985 104.162 68.5846C104.128 68.5708 104.097 68.5502 104.071 68.5242C104.045 68.4983 104.024 68.4673 104.01 68.4333C103.995 68.3992 103.988 68.3626 103.988 68.3257Z" fill="#1F1F39"/>
<path d="M214.726 128.034L219.383 156.659L214.726 128.034Z" fill="#1F1F39"/>
<path d="M219.112 156.732L214.441 128.096C214.43 128.016 214.451 127.935 214.499 127.87C214.548 127.805 214.62 127.762 214.7 127.749C214.778 127.741 214.857 127.763 214.92 127.812C214.982 127.86 215.024 127.93 215.036 128.008L219.694 156.633C219.704 156.713 219.682 156.793 219.634 156.856C219.585 156.92 219.514 156.963 219.435 156.975H219.394C219.359 156.978 219.324 156.974 219.291 156.964C219.258 156.953 219.227 156.936 219.201 156.913C219.175 156.89 219.153 156.863 219.138 156.831C219.123 156.8 219.114 156.766 219.112 156.732Z" fill="#1F1F39"/>
<path d="M153.677 72.5876C153.685 72.6752 153.712 72.7601 153.755 72.8369C153.798 72.9137 153.856 72.9806 153.927 73.0333C153.997 73.0859 154.078 73.1232 154.164 73.1428C154.25 73.1623 154.339 73.1635 154.425 73.1465L157.473 72.6445C158.506 72.4424 159.524 72.1745 160.522 71.8423C160.61 71.8285 160.694 71.7974 160.77 71.7508C160.845 71.7042 160.911 71.643 160.963 71.5708C161.015 71.4986 161.052 71.4168 161.072 71.3302C161.093 71.2435 161.095 71.1537 161.081 71.066L160.742 69.5393C159.507 70.1271 158.203 70.5558 156.86 70.815C155.759 71.017 154.642 71.1209 153.522 71.1255L153.677 72.5876Z" fill="white"/>
<path d="M30.2779 165.372C28.6388 170.485 28.62 175.98 30.2242 181.104C31.8283 186.228 34.977 190.731 39.2391 193.997C44.8389 198.352 62.8854 200.841 76.8874 183.418C78.2563 181.708 79.8115 179.622 81.4624 177.288C74.7085 181.77 61.0507 188.645 46.7072 183.108C42.7524 181.676 39.1975 179.32 36.3394 176.234C33.4813 173.149 31.403 169.424 30.2779 165.372V165.372Z" fill="#F9ACC0"/>
<path d="M170.249 60.4851C166.745 61.1372 164.194 63.4221 164.597 65.588C165.001 67.7539 168.179 69.0115 171.693 68.3568C172.386 68.2307 173.064 68.033 173.716 67.7669C173.704 65.3024 173.558 62.8405 173.279 60.3919C172.27 60.2679 171.248 60.2993 170.249 60.4851Z" fill="#F9ACC0"/>
<path d="M144.995 74.8742C143.118 75.2523 141.151 74.9659 139.343 74.0513C137.535 73.1367 135.966 71.6349 134.837 69.7359C133.707 67.8369 133.066 65.6259 132.995 63.3825C132.924 61.1392 133.426 58.9642 134.439 57.1326C135.451 55.3011 136.927 53.8953 138.681 53.0929C140.435 52.2905 142.388 52.1276 144.293 52.6249C146.197 53.1221 147.968 54.2571 149.381 55.8863C150.795 57.5156 151.787 59.5659 152.232 61.778C152.827 64.7439 152.399 67.7884 151.042 70.2436C149.685 72.6988 147.511 74.3641 144.995 74.8742ZM140.665 53.3758C138.934 53.7241 137.363 54.6695 136.152 56.0925C134.941 57.5154 134.143 59.3521 133.86 61.3701C133.577 63.3882 133.822 65.497 134.562 67.4298C135.303 69.3627 136.506 71.0327 138.021 72.2288C139.535 73.4249 141.292 74.0933 143.07 74.1495C144.848 74.2057 146.567 73.6471 148.009 72.5444C149.45 71.4417 150.551 69.8444 151.171 67.9546C151.791 66.0647 151.903 63.9672 151.492 61.9272C150.938 59.1937 149.488 56.7584 147.458 55.1553C145.428 53.5523 142.985 52.9123 140.665 53.3758Z" fill="#1F1F39"/>
<path d="M158.578 211.117L153.397 211.768L153.289 210.906C154.162 210.817 155.015 210.722 155.896 210.611C156.777 210.5 157.592 210.387 158.462 210.255L158.571 211.116L158.578 211.117ZM163.777 210.332L163.627 209.476L163.934 209.438C165.506 209.199 167.131 208.949 168.78 208.656L168.931 209.513C167.244 209.808 165.595 210.06 163.993 210.306L163.779 210.333L163.777 210.332ZM148.199 212.248C146.495 212.416 144.698 212.551 142.995 212.639L142.928 211.771L143.998 211.69C145.382 211.585 146.813 211.475 148.133 211.379L148.199 212.246L148.199 212.248ZM174.058 208.601L173.907 207.743C174.693 207.603 175.504 207.449 176.287 207.301C177.185 207.131 178.111 206.954 179.041 206.792L179.194 207.649C177.587 207.972 176.005 208.256 174.475 208.527L174.06 208.602L174.058 208.601ZM137.782 212.991C135.665 213.1 134.056 213.182 132.561 213.253L132.537 212.379C134.269 212.294 135.978 212.209 137.76 212.118L137.782 212.989L137.782 212.991ZM184.324 206.656L184.131 205.804C185.813 205.47 187.59 205.112 189.25 204.722L189.443 205.574C188.771 205.712 188.108 205.857 187.4 206.003C186.408 206.218 185.385 206.439 184.325 206.65L184.324 206.656ZM127.337 213.516C126.59 213.538 125.85 213.567 125.136 213.595C124.07 213.636 123.067 213.683 122.108 213.693L122.084 212.82C123.25 212.768 124.487 212.73 125.796 212.698L127.32 212.651L127.341 213.523L127.337 213.516ZM194.515 204.455L194.32 203.605C195.543 203.344 196.656 203.08 197.637 202.842C198.262 202.695 198.852 202.555 199.383 202.437L199.578 203.288C198.338 203.617 196.681 203.987 194.515 204.443L194.515 204.455ZM116.872 213.825C115.797 213.847 114.861 213.863 114.1 213.876C112.808 213.897 112.035 213.91 111.895 213.927L111.726 213.948L111.617 213.086L111.877 213.053C111.896 213.051 113.847 213.03 116.9 212.948L116.879 213.825L116.872 213.825ZM204.742 202.116L204.504 201.272C206.124 200.841 207.614 200.022 208.845 198.885L209.45 199.509C208.131 200.768 206.51 201.665 204.743 202.116L204.742 202.116ZM106.379 213.219C104.681 212.562 103.167 211.506 101.964 210.14L102.636 209.574C103.757 210.83 105.154 211.809 106.718 212.433L106.38 213.219L106.379 213.219ZM212.442 195.106L211.619 194.816C212.205 193.242 212.398 191.549 212.182 189.883L213.044 189.775C213.268 191.572 213.063 193.397 212.445 195.1L212.442 195.106ZM99.4775 205.413C99.3844 205.002 99.2798 204.527 99.2247 204.089L99.2194 204.047L99.297 200.139L100.176 200.16L100.093 204.023C100.15 204.426 100.23 204.825 100.331 205.219L99.4792 205.413L99.4775 205.413ZM211.774 188.398L210.396 183.362L211.242 183.125L212.619 188.162L211.775 188.399L211.774 188.398ZM100.258 194.892L99.3796 194.872L99.4679 189.65L100.344 189.676L100.258 194.89L100.258 194.892ZM208.973 178.371L207.596 173.335L208.442 173.097L209.821 178.135L208.977 178.372L208.973 178.371ZM100.481 184.485L99.604 184.466L99.6898 179.237L100.57 179.258L100.481 184.485ZM206.175 168.3L204.796 163.265L205.643 163.027L207.019 168.064L206.175 168.3ZM100.705 174.079L99.8283 174.058L99.9166 168.836L100.795 168.857L100.707 174.077L100.705 174.079ZM203.382 158.273L202.005 153.236L202.851 152.999L204.23 158.037L203.385 158.273L203.382 158.273ZM100.793 163.645L99.9164 163.624C99.9197 161.808 100.372 160.021 101.232 158.422L101.982 158.809C101.212 160.305 100.804 161.961 100.793 163.643L100.793 163.645ZM200.431 148.398C199.586 146.946 198.411 145.713 197.001 144.8L197.48 144.083C198.997 145.066 200.26 146.392 201.168 147.955L200.437 148.392L200.431 148.398ZM151.55 151.129L150.3 151.286C149.029 151.446 147.713 151.612 146.373 151.737L146.264 150.875C148.037 150.695 149.769 150.477 151.441 150.267L151.55 151.128L151.55 151.129ZM156.757 150.388L156.648 149.524C158.151 149.297 160.022 149.017 161.8 148.703L161.953 149.56C160.339 149.843 158.728 150.088 157.171 150.334L156.76 150.396L156.757 150.388ZM141.176 152.217C139.534 152.339 137.767 152.473 135.974 152.609L135.907 151.741C136.541 151.692 137.177 151.649 137.788 151.608C138.937 151.531 140.023 151.458 141.11 151.349L141.174 152.215L141.176 152.217ZM167.048 148.657L166.897 147.802C168.549 147.51 170.224 147.171 171.844 146.845L172.028 146.808L172.221 147.66L171.716 147.761C170.11 148.084 168.596 148.387 167.05 148.662L167.048 148.657ZM130.756 152.908L130.596 152.928C128.937 153.011 127.223 153.097 125.53 153.14L125.508 152.266C127.191 152.227 128.898 152.138 130.549 152.056L130.735 152.047L130.759 152.918L130.756 152.908ZM177.25 146.543L177.056 145.688C178.81 145.294 180.516 144.907 182.115 144.484L182.31 145.336C180.741 145.752 178.963 146.153 177.251 146.541L177.25 146.543ZM120.29 153.266C118.464 153.312 116.611 153.308 115.041 153.312L115.019 152.438C115.919 152.441 116.848 152.429 117.745 152.418C118.556 152.408 119.394 152.397 120.224 152.398L120.29 153.264L120.29 153.266ZM105.282 155.11L104.796 154.381C106.288 153.348 108.004 152.682 109.803 152.439L109.912 153.302C108.248 153.519 106.661 154.139 105.291 155.107L105.282 155.11ZM187.389 143.993L187.157 143.148C188.885 142.665 189.811 142.376 189.821 142.375L189.906 142.364C190.732 142.258 191.566 142.24 192.395 142.313L192.334 143.198C191.575 143.119 190.809 143.127 190.052 143.222C189.907 143.278 189.009 143.565 187.39 143.995L187.389 143.993Z" fill="white"/>
<path d="M155.777 207.352C142.805 208.984 123.682 209.397 118.13 209.485L117.905 209.489C115.218 209.804 112.516 209.045 110.386 207.377C108.256 205.709 106.872 203.267 106.534 200.583L106.518 200.454L107.189 167.132C106.874 164.446 107.633 161.744 109.3 159.615C110.968 157.485 113.409 156.101 116.092 155.763L116.221 155.747C127.721 155.901 139.22 155.333 150.649 154.045C162.118 152.669 173.457 150.364 184.553 147.152L184.722 147.131C187.405 146.801 190.109 147.54 192.251 149.188C194.392 150.837 195.798 153.263 196.165 155.94L205.071 188.108L205.077 188.15C205.413 190.833 204.675 193.539 203.026 195.681C201.376 197.823 198.948 199.227 196.269 199.587C182.916 202.878 169.4 205.47 155.777 207.352ZM116.272 157.534C114.051 157.842 112.04 159.012 110.674 160.789C109.308 162.567 108.696 164.811 108.971 167.037L108.987 167.166L108.269 200.451C108.577 202.671 109.747 204.681 111.524 206.047C113.302 207.413 115.546 208.025 117.771 207.752L117.856 207.741C117.985 207.751 140.809 207.482 155.559 205.627C169.123 203.746 182.584 201.176 195.887 197.926L195.972 197.916C198.196 197.63 200.218 196.482 201.603 194.718C202.987 192.954 203.622 190.717 203.371 188.489L194.463 156.322L194.458 156.284C194.172 154.061 193.024 152.039 191.26 150.655C189.496 149.271 187.259 148.636 185.031 148.888C173.844 152.09 162.422 154.405 150.871 155.811C139.384 157.095 127.829 157.671 116.272 157.536L116.272 157.534Z" fill="white"/>
<path fill-rule="evenodd" clip-rule="evenodd" d="M111.962 126.879C122.067 122.705 130.852 119.901 135.249 118.578L136.53 119.981C131.663 121.454 121.783 124.643 110.73 129.336L111.962 126.879Z" fill="white"/>
<path fill-rule="evenodd" clip-rule="evenodd" d="M132.334 115.445L132.556 116.321L134.572 115.771C134.568 115.772 134.56 115.774 134.549 115.777C134.311 115.839 132.421 116.334 129.459 117.222L129.196 116.394C130.987 115.856 132.673 115.357 134.223 114.931L132.334 115.445ZM124.136 118.069L124.399 118.896L124.397 118.897C122.529 119.489 120.891 120.049 119.386 120.609L119.08 119.782L119.651 119.59L119.796 119.541C121.232 119.057 122.713 118.558 124.136 118.069Z" fill="white"/>
<path d="M168.658 70.1078C166.781 70.4859 164.814 70.1995 163.006 69.2849C161.197 68.3703 159.629 66.8685 158.499 64.9695C157.369 63.0705 156.728 60.8595 156.657 58.6161C156.587 56.3727 157.089 54.1978 158.101 52.3662C159.113 50.5347 160.59 49.1288 162.344 48.3265C164.098 47.5241 166.051 47.3612 167.955 47.8584C169.86 48.3557 171.631 49.4907 173.044 51.1199C174.457 52.7492 175.45 54.7995 175.895 57.0116C176.49 59.9775 176.062 63.022 174.705 65.4772C173.348 67.9324 171.173 69.5977 168.658 70.1078ZM164.327 48.6094C162.596 48.9576 161.026 49.903 159.815 51.326C158.604 52.749 157.806 54.5857 157.523 56.6037C157.24 58.6218 157.484 60.7306 158.225 62.6634C158.965 64.5962 160.169 66.2663 161.683 67.4624C163.198 68.6585 164.955 69.3269 166.733 69.3831C168.511 69.4393 170.229 68.8807 171.671 67.778C173.113 66.6753 174.214 65.078 174.834 63.1881C175.454 61.2983 175.565 59.2007 175.154 57.1608C174.601 54.4273 173.15 51.992 171.121 50.3889C169.091 48.7859 166.648 48.1459 164.327 48.6094Z" fill="#1F1F39"/>
<path d="M116.308 177.639C115.612 177.735 115.112 178.394 115.212 179.119C115.292 179.699 115.609 180.069 116.187 180.196C116.242 180.809 116.324 181.831 116.404 183.267C116.117 183.543 116.012 183.853 116.035 184.234C116.057 184.615 116.188 184.922 116.489 185.176C116.523 185.85 116.57 186.405 116.601 186.844C116.666 187.957 116.814 188.823 117.014 189.416C117.304 190.232 117.764 190.789 118.392 191.057C118.706 191.191 119.041 191.263 119.422 191.24C119.686 191.234 119.972 191.165 120.283 191.063C120.482 191.006 120.71 190.945 121.017 190.814C121.071 190.777 121.212 190.728 121.407 190.642L121.714 190.511C122.414 190.238 123.007 190.038 123.496 189.941C124.188 189.816 124.866 189.811 125.503 189.93C126.231 190.066 126.908 189.619 127.019 188.924C127.155 188.196 126.707 187.52 126.008 187.38C125.008 187.192 124.006 187.212 123 187.41C122.337 187.531 121.603 187.779 120.733 188.106C120.704 188.11 120.148 188.364 120.036 188.409C119.841 188.495 119.671 188.548 119.53 188.597L119.472 188.605L119.468 188.576C119.325 188.182 119.237 187.544 119.176 186.666C119.153 186.286 119.155 185.872 119.116 185.375C119.555 185.344 119.961 185.288 120.341 185.265C121.824 185.091 123.112 184.795 124.149 184.387C124.825 184.146 125.16 183.361 124.865 182.722C124.624 182.047 123.844 181.741 123.168 181.981C122.355 182.3 121.324 182.531 120.073 182.673C119.754 182.717 119.373 182.74 118.964 182.767C118.952 182.68 118.944 182.622 118.961 182.531C119.049 182.312 119.079 182.102 119.047 181.87L118.955 181.203L118.767 179.84C119.169 179.756 119.716 179.651 120.404 179.497C120.66 179.432 120.834 179.408 120.946 179.363C122.181 179.105 123.158 178.911 123.883 178.811C124.579 178.715 125.079 178.056 124.983 177.36C124.883 176.635 124.224 176.135 123.528 176.231C122.716 176.343 121.681 176.545 120.392 176.84C120.276 176.856 120.077 176.913 119.82 176.978C118.271 177.31 117.09 177.531 116.308 177.639ZM131.257 175.462C131.194 174.791 130.593 174.283 129.897 174.379C129.226 174.442 128.743 175.011 128.81 175.71L128.85 176C129.098 178.447 129.259 180.256 129.328 181.399C129.522 183.883 129.582 186.031 129.539 187.868C129.515 188.551 130.034 189.1 130.716 189.124C131.428 189.144 131.977 188.625 132.001 187.943C132.06 186.014 131.989 183.779 131.787 181.238C131.71 180.037 131.549 178.228 131.297 175.752L131.257 175.462ZM136.878 180.448C136.766 178.986 134.302 179.326 134.588 180.763L134.963 183.488L135.518 187.517L135.522 187.546L135.538 187.662L135.542 187.691L135.562 187.836L135.566 187.865L135.602 188.126C135.723 189.645 138.187 189.306 137.892 187.811L137.856 187.55L137.828 187.347L137.808 187.202L137.253 183.173L136.878 180.448ZM133.915 175.657C133.864 175.93 133.866 176.166 133.96 176.419C134.107 176.842 134.433 177.063 134.888 177.148C135.103 177.207 135.364 177.171 135.649 177.102C136.13 176.947 136.442 176.638 136.61 176.143C136.686 175.837 136.704 175.539 136.631 175.224C136.57 174.996 136.423 174.78 136.184 174.547C135.805 174.156 135.346 174.042 134.811 174.234C134.613 174.291 134.422 174.406 134.239 174.579C134.164 174.678 134.093 174.806 134.022 174.934C133.934 175.152 133.904 175.363 133.903 175.57L133.911 175.628L133.915 175.657ZM143.253 184.68C143.224 184.684 143.224 184.684 143.228 184.713C143.087 184.762 142.917 184.815 142.718 184.872C142.635 184.913 142.577 184.921 142.515 184.9C142.482 184.875 142.449 184.85 142.413 184.796C142.343 184.717 142.269 184.609 142.191 184.472C141.457 183.007 139.195 184.382 140.053 185.682C140.402 186.283 140.789 186.732 141.239 186.995C141.849 187.354 142.515 187.469 143.286 187.275C144.172 187.064 144.803 186.711 145.207 186.212C145.69 185.644 145.834 184.974 145.668 184.199C145.571 183.711 145.322 183.184 144.948 182.615C144.689 182.237 144.36 181.78 143.9 181.223C143.793 181.09 143.657 180.962 143.513 180.775C142.879 180.035 142.46 179.561 142.279 179.32C142.722 179.318 143.259 179.362 143.892 179.452C144.587 179.563 145.172 179.099 145.284 178.404C145.395 177.709 144.93 177.124 144.235 177.012C142.85 176.819 141.815 176.814 141.157 176.964C140.668 177.061 140.253 177.265 139.97 177.57C139.608 177.945 139.432 178.383 139.475 178.909C139.49 179.231 139.6 179.6 139.797 179.957C139.92 180.206 140.075 180.48 140.322 180.771C140.511 181.07 140.968 181.598 141.634 182.362C141.807 182.545 141.914 182.678 142.021 182.811C142.762 183.684 143.172 184.307 143.253 184.68ZM148.388 173.516C148.209 172.862 147.602 172.532 146.947 172.71C146.351 172.881 145.971 173.554 146.17 174.147C146.333 174.685 146.524 175.427 146.809 176.422C147.411 178.436 147.825 179.944 148.11 180.939C148.183 181.254 148.305 181.71 148.447 182.31L148.455 182.368C148.628 183.201 148.774 183.831 148.921 184.254L148.925 184.283C148.954 184.279 148.954 184.279 148.958 184.308L148.978 184.453L149.101 184.701C149.224 184.95 149.426 185.129 149.678 185.242C150.086 185.422 150.467 185.399 150.845 185.141C151.086 184.96 151.29 184.725 151.449 184.378C151.516 184.221 151.6 183.973 151.709 183.692C151.73 183.631 151.814 183.383 151.932 182.953C152.079 182.519 152.163 182.271 152.209 182.176C152.432 181.437 152.687 180.929 152.912 180.632L153.037 180.467L153.091 180.43C153.12 180.426 153.12 180.426 153.153 180.451C153.219 180.501 153.289 180.58 153.33 180.663C153.511 180.904 153.646 181.24 153.792 181.663C154.029 182.31 154.195 183.084 154.319 183.983C154.403 184.592 155 185.071 155.609 184.987C156.276 184.895 156.693 184.276 156.609 183.668C156.465 182.624 156.25 181.708 155.994 180.917C155.79 180.295 155.54 179.768 155.277 179.361C154.867 178.738 154.343 178.367 153.76 178.211C153.206 178.051 152.681 178.094 152.15 178.315C151.76 178.487 151.386 178.775 151.061 179.203C150.811 179.533 150.573 179.95 150.372 180.421L150.36 180.334C150.072 179.31 149.624 177.777 149.051 175.759C148.77 174.793 148.55 174.055 148.388 173.516ZM161.429 182.649C161.731 182.696 162.029 182.714 162.356 182.728C163.564 182.71 164.704 182.405 165.709 181.764C166.792 181.054 167.525 180.156 167.874 179.044C168.261 177.78 168.144 176.496 167.463 175.202C166.943 174.21 165.833 173.447 164.717 173.276C163.005 173.069 161.603 173.616 160.57 174.91C160.145 175.471 159.819 176.107 159.542 176.883C159.384 176.374 159.258 175.889 159.132 175.404C158.924 174.753 158.248 174.344 157.568 174.556C156.884 174.739 156.508 175.44 156.687 176.095C157.013 177.173 157.386 178.598 157.807 180.371C157.868 180.599 157.998 181.113 158.193 181.884C158.388 182.655 158.477 183.085 158.51 183.11C158.915 184.768 159.24 186.052 159.479 186.935C159.679 187.528 160.265 187.92 160.874 187.836L161.047 187.812C161.644 187.641 162.061 187.022 161.977 186.414C161.969 186.356 161.961 186.298 161.924 186.244C161.697 185.448 161.528 184.437 161.451 183.237C161.452 183.03 161.428 182.856 161.429 182.649ZM161.459 180.075C161.481 179.806 161.507 179.567 161.537 179.356C161.742 178.057 162.086 177.124 162.561 176.497C163.015 175.933 163.633 175.7 164.385 175.803C164.658 175.854 165.075 176.092 165.206 176.399C165.567 177.088 165.65 177.696 165.461 178.254C165.297 178.779 164.918 179.244 164.35 179.618C163.453 180.185 162.471 180.349 161.459 180.075ZM172.191 169.825C172.128 169.154 171.526 168.646 170.831 168.742C170.16 168.805 169.677 169.373 169.744 170.073L169.784 170.363C170.032 172.81 170.193 174.619 170.261 175.762C170.456 178.246 170.515 180.394 170.473 182.231C170.449 182.913 170.968 183.462 171.65 183.486C172.362 183.507 172.911 182.988 172.935 182.305C172.994 180.377 172.923 178.142 172.72 175.6C172.644 174.4 172.483 172.591 172.231 170.115L172.191 169.825ZM183.204 174.156C183.109 173.461 182.428 173.023 181.736 173.148C181.479 173.212 181.23 173.335 181.023 173.541C180.468 173.588 180.023 174.004 179.896 174.582C179.667 175.707 179.335 176.727 178.908 177.702C178.531 178.61 178.139 179.196 177.761 179.455C177.757 179.426 177.757 179.426 177.724 179.401C177.259 178.815 176.848 177.543 176.522 175.608C176.397 174.917 175.742 174.446 175.05 174.57C174.387 174.691 173.916 175.347 174.041 176.039C174.455 178.404 175.006 180.041 175.754 180.972C176.655 182.147 178.044 182.37 179.199 181.531C179.925 181.018 180.596 180.098 181.207 178.744C181.278 178.616 181.345 178.459 181.412 178.302C181.667 179.508 182.014 180.523 182.419 181.324C182.743 181.959 183.487 182.211 184.125 181.916C184.76 181.592 184.983 180.853 184.688 180.214C184.316 179.438 183.994 178.39 183.724 177.068C183.643 176.695 183.563 176.116 183.426 175.337C183.325 174.819 183.269 174.413 183.204 174.156ZM190.585 178.161C190.556 178.165 190.556 178.165 190.56 178.194C190.419 178.243 190.249 178.296 190.05 178.353C189.967 178.394 189.909 178.402 189.847 178.381C189.814 178.356 189.781 178.331 189.744 178.277C189.674 178.198 189.6 178.09 189.522 177.953C188.789 176.489 186.527 177.864 187.385 179.163C187.734 179.765 188.12 180.214 188.57 180.477C189.181 180.836 189.846 180.951 190.617 180.756C191.504 180.545 192.135 180.193 192.538 179.694C193.021 179.125 193.165 178.456 193 177.681C192.903 177.192 192.653 176.665 192.279 176.097C192.021 175.719 191.692 175.262 191.231 174.705C191.124 174.572 190.988 174.443 190.844 174.256C190.211 173.516 189.791 173.042 189.61 172.802C190.053 172.8 190.591 172.844 191.223 172.934C191.918 173.045 192.504 172.58 192.615 171.886C192.726 171.191 192.261 170.605 191.567 170.494C190.181 170.301 189.147 170.296 188.488 170.445C187.999 170.542 187.585 170.747 187.302 171.052C186.94 171.427 186.764 171.864 186.807 172.39C186.821 172.713 186.931 173.082 187.128 173.439C187.251 173.688 187.407 173.962 187.654 174.252C187.843 174.551 188.299 175.079 188.966 175.844C189.139 176.027 189.246 176.16 189.353 176.293C190.093 177.166 190.504 177.788 190.585 178.161Z" fill="white"/>
<path d="M151.121 58.559C152.083 58.0743 153.097 57.7265 154.144 57.5228C155.003 57.2919 155.904 57.2644 156.795 57.4418L156.657 58.286C155.88 58.1612 155.099 58.1954 154.351 58.3872C153.347 58.5558 152.376 58.8837 151.464 59.3618L151.121 58.559Z" fill="#1F1F39"/>
<path d="M145.557 236.311C140.237 235.19 134.386 233.387 131.555 228.781C129.5 225.45 129.252 221.033 130.779 215.34C132.427 209.148 137.841 203.983 144.095 198.003C152.246 190.224 161.487 181.387 165.004 167.727C169.61 149.804 153.398 136.612 141.606 126.965C138.225 124.409 135.062 121.578 132.148 118.501C128.569 114.281 126.61 107.281 126.359 97.7582C126.255 93.4127 126.474 89.0655 127.014 84.7524C127.025 84.6698 127.052 84.5901 127.094 84.5181C127.137 84.4461 127.193 84.3833 127.259 84.3332C127.326 84.2831 127.402 84.2468 127.483 84.2263C127.564 84.2059 127.648 84.2018 127.731 84.2142C127.891 84.2468 128.033 84.3387 128.129 84.4715C128.225 84.6043 128.268 84.7683 128.248 84.931C128.227 85.1561 124.959 108.119 133.082 117.735C135.942 120.751 139.043 123.529 142.354 126.042C154.425 135.875 170.979 149.377 166.186 168.076C162.607 182.078 153.211 191.039 144.936 198.942C138.806 204.728 133.517 209.769 131.961 215.651C130.53 221.002 130.748 225.109 132.616 228.129C134.671 231.493 138.622 233.563 145.813 235.097C151.665 236.37 157.67 236.789 163.642 236.342C163.722 236.332 163.803 236.337 163.881 236.358C163.958 236.379 164.031 236.416 164.094 236.465C164.158 236.514 164.211 236.575 164.251 236.645C164.291 236.714 164.317 236.791 164.327 236.871C164.337 236.951 164.332 237.032 164.31 237.109C164.289 237.187 164.253 237.259 164.204 237.323C164.155 237.386 164.094 237.44 164.024 237.48C163.954 237.519 163.877 237.545 163.798 237.555C162.289 237.722 160.771 237.795 159.254 237.773C154.65 237.76 150.06 237.27 145.557 236.311Z" fill="#1F1F39"/>
<path d="M156.539 140.633C156.438 140.504 156.392 140.341 156.409 140.179C156.427 140.016 156.507 139.866 156.632 139.761C156.821 139.609 175.023 124.952 180.214 106.999C183.243 95.887 182.377 84.0733 177.761 73.5218C177.724 73.4482 177.702 73.3681 177.696 73.286C177.69 73.2039 177.7 73.1215 177.726 73.0434C177.752 72.9653 177.793 72.8931 177.847 72.8309C177.901 72.7686 177.966 72.7176 178.04 72.6808C178.114 72.6439 178.194 72.6219 178.276 72.616C178.358 72.6101 178.44 72.6204 178.518 72.6463C178.596 72.6723 178.669 72.7134 178.731 72.7672C178.793 72.8211 178.844 72.8867 178.881 72.9602C183.626 83.7852 184.516 95.9102 181.401 107.312C176.112 125.638 157.597 140.54 157.411 140.696C157.371 140.757 157.316 140.807 157.25 140.84C157.185 140.873 157.111 140.887 157.038 140.882C156.942 140.88 156.847 140.857 156.761 140.814C156.674 140.771 156.598 140.709 156.539 140.633Z" fill="#1F1F39"/>
<path d="M164.165 240.671C163.217 240.665 162.31 240.287 161.64 239.617C160.97 238.947 160.591 238.04 160.586 237.092C160.591 236.145 160.97 235.238 161.64 234.568C162.31 233.898 163.217 233.519 164.165 233.513H213.331C214.278 233.519 215.185 233.898 215.855 234.568C216.525 235.238 216.904 236.145 216.91 237.092C216.912 237.563 216.822 238.029 216.643 238.465C216.464 238.9 216.2 239.296 215.867 239.629C215.535 239.962 215.139 240.225 214.704 240.404C214.268 240.583 213.802 240.674 213.331 240.671H164.165Z" fill="#EAEAFF"/>
<path fill-rule="evenodd" clip-rule="evenodd" d="M227.876 107.21C204.88 105.239 178.878 110.487 170.176 112.442L169.753 114.279C178.836 112.252 205.503 106.96 228.285 109.003L227.876 107.21Z" fill="white"/>
<path fill-rule="evenodd" clip-rule="evenodd" d="M171.169 108.315L171.404 109.18L169.394 109.687C169.398 109.686 169.405 109.684 169.417 109.681C169.652 109.619 171.527 109.125 174.52 108.449L174.343 107.605C172.534 108.013 170.833 108.404 169.286 108.791L171.169 108.315ZM179.532 106.588L179.708 107.43L179.71 107.431C181.613 107.032 183.301 106.718 184.875 106.468L184.737 105.605L184.149 105.717L184 105.745C182.523 106.027 181.001 106.317 179.532 106.588ZM189.961 104.757L190.096 105.62L190.099 105.622C191.597 105.384 193.197 105.163 195.282 104.894L195.184 104.01C193.644 104.206 191.818 104.449 189.961 104.757ZM200.409 103.362L200.506 104.244L200.506 104.24C201.956 104.083 203.413 103.946 204.827 103.819L205.752 103.733L205.653 102.851L204.776 102.931C203.353 103.061 201.875 103.199 200.409 103.362ZM210.973 102.497L211.016 103.357L211.018 103.368C212.585 103.28 214.16 103.224 215.687 103.17L215.715 103.169L216.26 103.149L216.261 102.265C215.638 102.293 215.007 102.32 214.367 102.346C213.251 102.386 212.101 102.433 210.973 102.497ZM221.504 102.238L221.504 103.118L221.504 103.12C223.342 103.138 225.1 103.197 226.728 103.257L226.789 102.393C224.848 102.306 223.168 102.254 221.504 102.238Z" fill="white"/>
</g>
</g>
<g filter="url(#filter1_d_410_4185)">
<g clip-path="url(#clip1_410_4185)">
<rect x="250.214" y="183.983" width="286.451" height="199.697" rx="13.0949" fill="#252024"/>
<rect x="250.214" y="204.444" width="286.451" height="179.236" fill="white"/>
<path d="M459.426 288.432V354.364C443.342 354.743 430.532 357.226 421.651 359.845V292.367C438.65 298.033 453.918 292.104 459.426 288.432Z" fill="white"/>
<path fill-rule="evenodd" clip-rule="evenodd" d="M459.426 288.432C462.837 285.546 469.972 277.571 471.231 268.757L449.196 243.574C454.442 242 463.991 235.861 460.213 223.899C456.436 211.937 445.523 212.619 440.539 214.456C437.391 215.767 431.567 220.279 433.456 227.834C422.753 225.316 415.88 212.619 413.781 206.586C412.866 208.188 412.829 213.587 418.693 223.305C419.548 224.722 420.529 226.231 421.651 227.834C418.608 227.366 415.979 225.361 413.795 222.715C410.105 218.246 407.687 211.163 406.699 207.373C404.862 213.144 397.097 224.686 380.728 224.686C382.302 227.834 383.876 232.084 383.876 245.935C382.302 262.461 391.746 271.381 397.255 273.479C401.452 274.528 412.207 275.997 421.651 273.479C426.635 271.643 437.706 265.767 442.113 256.953C441.85 263.248 437.391 274.581 421.651 275.84V292.367C438.65 298.033 453.917 292.104 459.426 288.432ZM389.617 240.254C387.623 240.086 386.143 238.334 386.311 236.34C386.479 234.346 388.232 232.866 390.225 233.034C392.219 233.203 393.699 234.955 393.531 236.949C393.363 238.942 391.61 240.422 389.617 240.254ZM412.749 236.751C410.755 236.583 409.275 234.83 409.443 232.836C409.611 230.843 411.364 229.363 413.358 229.531C415.351 229.699 416.831 231.451 416.663 233.445C416.495 235.439 414.743 236.919 412.749 236.751Z" fill="#F9D2DD"/>
<path d="M390.959 369.491H359.48C352.498 369.491 347.935 372.395 345.122 375.787C342.861 378.512 341.73 381.553 341.379 383.657H353.184H410.633V363.982C404.338 367.13 394.894 368.966 390.959 369.491Z" fill="#F9D2DD"/>
<path d="M342.953 292.367L343.74 296.302L361.841 296.302L361.054 288.432C361.054 283.71 367.038 276.014 367.038 264.035C367.038 257.642 365.612 251.503 363.975 250.276C361.333 248.294 361.841 256.414 361.054 262.552C360.441 267.329 355.545 264.035 347.675 240.426C347.15 238.852 343.403 237.278 342.953 240.426C342.872 240.995 342.877 243.629 342.953 244.361C342.03 241.593 339.018 240.426 337.444 242C336.061 243.383 336.551 245.188 336.657 245.935C336.483 244.707 335.144 243.877 333.746 243.824C334.101 244.721 334.296 245.698 334.296 246.722V261.309V268.757C334.296 278.831 340.068 288.694 342.953 292.367Z" fill="#F9D2DD"/>
<rect x="260.854" y="191.349" width="7.36587" height="7.36587" rx="3.68293" fill="#EA695E"/>
<rect x="270.674" y="191.349" width="7.36587" height="7.36587" rx="3.68293" fill="#F3BD4F"/>
<rect x="280.496" y="191.349" width="7.36587" height="7.36587" rx="3.68293" fill="#66C454"/>
<path d="M278.547 305.745L260.971 358.473H302.943L278.547 305.745Z" fill="#C0D0E0"/>
<path d="M233.689 318.38V350.603C233.689 354.95 237.212 358.473 241.559 358.473H260.971L278.547 305.745H238.411L233.689 318.38Z" fill="#D9D9D9"/>
<path d="M320.257 238.852H241.559C237.212 238.852 233.689 242.375 233.689 246.722V318.38L238.411 305.745H278.547L302.943 358.473H320.257C324.603 358.473 328.127 354.95 328.127 350.603V246.722C328.127 242.375 324.603 238.852 320.257 238.852Z" fill="#D9D9D9"/>
<path d="M329.701 238.852H320.257C324.603 238.852 328.127 242.375 328.127 246.722V350.603C328.127 354.95 324.603 358.473 320.257 358.473H329.701C334.047 358.473 337.57 354.95 337.57 350.603V268.757V261.309V246.722C337.57 245.698 337.375 244.721 337.02 243.824C335.866 240.912 333.024 238.852 329.701 238.852Z" fill="#F2F2F2"/>
<path d="M233.689 318.38V350.603C233.689 354.95 237.212 358.473 241.559 358.473H260.971L278.547 305.745H238.411L233.689 318.38Z" fill="#F2F2F2"/>
<path d="M233.689 350.603V318.38L209.292 383.657H252.576L260.971 358.473H241.559C237.212 358.473 233.689 354.95 233.689 350.603Z" fill="#F2F2F2"/>
<path d="M397.255 273.479C391.746 271.381 382.302 262.461 383.876 245.935C382.391 252.493 379.692 264.155 374.432 268.757C368.136 274.266 369.71 287.645 376.188 290.793C381.032 283.998 387.911 277.398 397.255 273.479Z" fill="#1D2628"/>
<path d="M442.113 256.953C437.705 265.767 426.635 271.643 421.651 273.479V275.84C437.391 274.581 441.85 263.248 442.113 256.953Z" fill="#1D2628"/>
<path d="M409.443 232.836C409.275 234.83 410.755 236.583 412.749 236.751C414.743 236.919 416.495 235.439 416.663 233.445C416.831 231.451 415.351 229.699 413.358 229.531C411.364 229.363 409.611 230.843 409.443 232.836Z" fill="#1D2628"/>
<path d="M386.311 236.34C386.143 238.334 387.623 240.086 389.617 240.254C391.61 240.422 393.363 238.942 393.531 236.949C393.699 234.955 392.219 233.203 390.225 233.034C388.231 232.866 386.479 234.346 386.311 236.34Z" fill="#1D2628"/>
<path d="M418.693 223.305C417.373 222.884 415.638 222.645 413.795 222.715C415.979 225.361 418.608 227.366 421.651 227.834C420.529 226.231 419.548 224.722 418.693 223.305Z" fill="#1D2628"/>
<path d="M449.195 243.574L471.231 268.757L468.083 310.43L522.341 386.954C534.754 383.543 557.616 375.577 549.759 370.994C539.938 365.265 539.529 350.533 543.621 340.712C547.713 330.891 561.626 298.149 530.935 294.471C515.876 292.834 510.474 283.135 505.973 271.146C500.587 256.801 504.336 249.457 482.648 233.445C471.902 225.512 475.778 217.539 472.417 209.354L472.371 209.241C466.823 195.729 457.906 174.01 420.864 175.893C383.719 177.782 378.629 209.209 380.728 224.686C397.097 224.686 404.862 213.144 406.698 207.373C407.687 211.163 410.105 218.246 413.795 222.715C415.638 222.645 417.373 222.884 418.693 223.305C412.829 213.587 412.866 208.188 413.781 206.586C415.88 212.619 422.753 225.316 433.456 227.834C431.567 220.279 437.391 215.767 440.539 214.456C445.523 212.619 456.436 211.937 460.213 223.899C463.991 235.861 454.442 242 449.195 243.574Z" fill="#1D2628"/>
<path d="M359.48 369.491H390.959C394.894 368.966 404.338 367.13 410.634 363.982C413.03 362.784 416.74 361.294 421.652 359.845V292.367V275.84V273.479C412.208 275.997 401.452 274.528 397.255 273.479C387.911 277.398 381.033 283.998 376.188 290.793C370.914 298.19 368.05 305.818 367.039 310.467L363.415 296.302L361.841 296.302L343.74 296.302H339.019L345.122 375.787C347.936 372.395 352.498 369.491 359.48 369.491Z" fill="#F99A3D"/>
<path d="M459.427 288.432V354.364C443.343 354.743 430.532 357.226 421.652 359.845C416.74 361.294 413.03 362.784 410.634 363.982V383.657H521.598C522.779 359.318 524.666 346.383 520.811 319.124C514.87 299.443 502.978 286.461 491.693 278.529C483.844 273.014 476.289 269.941 471.231 268.757C469.972 277.571 462.837 285.546 459.427 288.432Z" fill="#F99A3D"/>
<path d="M385.74 413.398C394.614 395.989 404.978 397.639 416.946 399.561C422.519 400.45 428.304 401.389 434.176 400.313C447.075 397.991 449.243 390.25 451.753 381.263C452.909 376.636 454.557 372.147 456.669 367.871C463.016 355.841 474.488 357.113 490.303 358.903C493.275 359.246 496.402 359.567 499.639 359.846C508.233 360.576 515.01 356.224 519.215 347.319C521.184 343.018 522.462 338.433 523.003 333.734L521.307 333.559C520.798 338.075 519.57 342.481 517.669 346.609C513.713 354.88 507.702 358.792 499.78 358.128C496.585 357.869 493.474 357.509 490.503 357.162C474.589 355.381 462.049 353.99 455.146 367.027C452.965 371.395 451.269 375.989 450.088 380.727C447.525 389.829 445.642 396.438 433.82 398.558C428.211 399.569 422.6 398.663 417.159 397.789C405.055 395.853 393.621 393.987 384.18 412.538C383.069 414.749 381.83 416.893 380.469 418.96L381.962 419.977C383.347 417.858 384.608 415.662 385.74 413.398Z" fill="white"/>
<path fill-rule="evenodd" clip-rule="evenodd" d="M383.92 335.525C381.359 335.794 379.039 336.031 376.771 336.226L376.617 336.24C363.904 337.444 355.474 338.242 343.171 349.534L341.758 348.17C354.536 336.428 363.261 335.61 376.387 334.378L376.493 334.368C378.76 334.175 381.08 333.938 383.593 333.664C395.796 332.285 397.741 325.351 400.193 316.611L400.209 316.554C401.476 310.725 403.905 305.189 407.364 300.248C414.355 291.185 424.903 294.115 438.29 297.846C438.443 297.888 438.595 297.93 438.748 297.972C447.007 300.244 456.269 302.792 466.628 303.101C477.609 303.444 486.032 298.866 491.647 289.496C493.201 286.849 494.454 284.057 495.391 281.167L497.137 282.11C496.186 284.976 494.928 287.746 493.377 290.374C490.86 295.004 487.001 298.839 482.258 301.422C477.515 304.005 472.088 305.227 466.623 304.943C455.833 304.615 446.277 301.969 437.809 299.614C424.659 295.942 415.15 293.301 408.984 301.354C405.674 306.127 403.354 311.466 402.149 317.082C399.742 325.76 397.456 333.985 383.92 335.525Z" fill="white"/>
<path d="M412.284 361.076C428.873 359.892 432.773 349.62 436.212 340.564L436.238 340.495L436.317 340.287C438.496 334.536 440.558 329.095 445.493 325.919C454.547 320.092 464.058 322.87 476.019 326.373C481.572 328.112 487.224 329.518 492.945 330.581C503.672 332.424 510.065 327.444 513.586 322.945C515.923 319.883 517.645 316.396 518.656 312.678C518.682 312.575 518.688 312.467 518.672 312.361C518.656 312.255 518.619 312.154 518.563 312.063C518.507 311.972 518.433 311.893 518.346 311.831C518.259 311.77 518.16 311.726 518.055 311.704C517.952 311.677 517.844 311.671 517.738 311.687C517.632 311.702 517.53 311.739 517.439 311.796C517.348 311.852 517.269 311.926 517.207 312.013C517.145 312.1 517.102 312.199 517.079 312.304C516.119 315.799 514.489 319.073 512.279 321.946C507.552 327.958 501.183 330.298 493.233 328.965C487.575 327.884 481.981 326.492 476.476 324.795C464.556 321.291 454.256 318.283 444.589 324.538C439.152 328.051 436.863 334.087 434.652 339.912L434.652 339.913C431.244 348.985 427.718 358.349 412.116 359.43C402.291 360.115 393.356 364.37 386.007 369.443L389.04 369.443C395.764 365.135 403.681 361.69 412.284 361.076Z" fill="white"/>
<path d="M421.651 273.479C426.636 271.643 437.706 265.767 442.113 256.953C441.851 263.248 437.391 279.299 421.651 280.558V273.479Z" fill="#1D2628"/>
<path d="M390.855 368.711C390.424 368.768 390.122 369.164 390.179 369.595C390.237 370.026 390.632 370.328 391.063 370.271L390.855 368.711ZM459.427 354.364L459.408 353.577H459.408L459.427 354.364ZM472.767 355.324C473.201 355.345 473.57 355.011 473.591 354.577C473.612 354.142 473.278 353.773 472.844 353.752L472.767 355.324ZM421.651 359.845L421.429 359.09H421.429L421.651 359.845ZM364.177 296.107C364.07 295.685 363.641 295.431 363.22 295.539C362.799 295.647 362.545 296.076 362.652 296.497L364.177 296.107ZM367.039 310.467L366.276 310.662L367.039 310.467ZM379.966 364.177C380.074 364.598 380.502 364.852 380.924 364.744C381.345 364.637 381.599 364.208 381.491 363.787L379.966 364.177ZM421.651 273.479L421.379 272.741C421.07 272.855 420.865 273.149 420.865 273.479H421.651ZM442.113 256.953L442.899 256.985C442.915 256.614 442.669 256.283 442.31 256.191C441.95 256.098 441.575 256.269 441.409 256.601L442.113 256.953ZM421.651 280.558H420.865C420.865 280.777 420.956 280.987 421.118 281.136C421.279 281.285 421.495 281.36 421.714 281.342L421.651 280.558ZM352.402 383.743C352.45 384.175 352.839 384.487 353.271 384.439C353.703 384.391 354.014 384.002 353.966 383.57L352.402 383.743ZM383.089 377.361C383.524 377.361 383.876 377.008 383.876 376.574C383.876 376.139 383.524 375.787 383.089 375.787V377.361ZM343.732 240.537C343.794 240.107 343.495 239.708 343.065 239.647C342.634 239.585 342.236 239.884 342.174 240.315L343.732 240.537ZM342.953 244.361L342.171 244.442C342.177 244.499 342.189 244.555 342.207 244.61L342.953 244.361ZM347.767 259.682C347.97 260.066 348.446 260.212 348.83 260.009C349.215 259.806 349.361 259.329 349.158 258.945L347.767 259.682ZM338.001 242.556C338.308 242.249 338.308 241.751 338.001 241.443C337.694 241.136 337.195 241.136 336.888 241.443L338.001 242.556ZM336.658 245.935L335.878 246.045L335.878 246.045L336.658 245.935ZM341.488 261.286C341.708 261.661 342.191 261.786 342.565 261.566C342.94 261.345 343.065 260.863 342.845 260.488L341.488 261.286ZM346.902 279.133C346.982 279.56 347.393 279.842 347.82 279.761C348.248 279.681 348.529 279.27 348.449 278.843L346.902 279.133ZM358.004 265.603C358.435 265.549 358.741 265.156 358.687 264.725C358.633 264.293 358.24 263.987 357.808 264.041L358.004 265.603ZM448.565 220.751C448.999 220.751 449.352 220.399 449.352 219.964C449.352 219.53 448.999 219.177 448.565 219.177V220.751ZM451.856 235.843C452.258 235.678 452.45 235.218 452.285 234.816C452.119 234.414 451.659 234.222 451.257 234.387L451.856 235.843ZM413.795 222.715L413.765 221.929L413.795 222.715ZM418.693 223.305L418.932 222.555V222.555L418.693 223.305ZM385.527 236.274C385.323 238.701 387.124 240.834 389.551 241.039L389.683 239.47C388.123 239.339 386.964 237.967 387.096 236.406L385.527 236.274ZM389.551 241.039C391.978 241.243 394.111 239.442 394.315 237.015L392.747 236.883C392.616 238.443 391.244 239.602 389.683 239.47L389.551 241.039ZM394.315 237.015C394.52 234.588 392.718 232.455 390.292 232.25L390.159 233.819C391.72 233.95 392.879 235.322 392.747 236.883L394.315 237.015ZM390.292 232.25C387.865 232.046 385.732 233.847 385.527 236.274L387.096 236.406C387.227 234.846 388.599 233.687 390.159 233.819L390.292 232.25ZM408.66 232.77C408.455 235.197 410.257 237.33 412.683 237.535L412.816 235.966C411.255 235.835 410.096 234.463 410.228 232.902L408.66 232.77ZM412.683 237.535C415.11 237.739 417.243 235.938 417.448 233.511L415.879 233.379C415.748 234.939 414.376 236.098 412.816 235.966L412.683 237.535ZM417.448 233.511C417.652 231.084 415.851 228.951 413.424 228.746L413.292 230.315C414.852 230.446 416.011 231.818 415.879 233.379L417.448 233.511ZM413.424 228.746C410.997 228.542 408.864 230.343 408.66 232.77L410.228 232.902C410.359 231.342 411.731 230.183 413.292 230.315L413.424 228.746ZM395.218 224.824C394.48 224.491 393.448 224.345 392.339 224.345C391.21 224.345 389.925 224.496 388.638 224.817C386.097 225.451 383.385 226.79 381.964 229.121L383.307 229.941C384.417 228.122 386.654 226.934 389.019 226.344C390.186 226.053 391.343 225.919 392.339 225.919C393.354 225.919 394.128 226.059 394.571 226.258L395.218 224.824ZM391.063 370.271C395.022 369.743 404.571 367.893 410.986 364.686L410.282 363.278C404.105 366.367 394.766 368.189 390.855 368.711L391.063 370.271ZM459.445 355.15C463.663 355.051 468.107 355.097 472.767 355.324L472.844 353.752C468.146 353.523 463.663 353.477 459.408 353.577L459.445 355.15ZM410.986 364.686C413.331 363.513 416.996 362.039 421.874 360.6L421.429 359.09C416.483 360.549 412.729 362.055 410.282 363.278L410.986 364.686ZM421.874 360.6C430.689 358 443.431 355.528 459.445 355.15L459.408 353.577C443.254 353.957 430.375 356.452 421.429 359.09L421.874 360.6ZM362.652 296.497L366.276 310.662L367.801 310.272L364.177 296.107L362.652 296.497ZM366.276 310.662L379.966 364.177L381.491 363.787L367.801 310.272L366.276 310.662ZM421.924 274.218C424.478 273.276 428.554 271.316 432.554 268.474C436.549 265.636 440.533 261.873 442.817 257.304L441.409 256.601C439.286 260.846 435.531 264.428 431.643 267.191C427.761 269.949 423.809 271.846 421.379 272.741L421.924 274.218ZM420.865 273.479V280.558H422.438V273.479H420.865ZM441.327 256.92C441.2 259.951 440.052 265.4 437.02 270.225C434.005 275.023 429.156 279.168 421.589 279.773L421.714 281.342C429.887 280.688 435.138 276.179 438.353 271.063C441.551 265.973 442.763 260.25 442.899 256.985L441.327 256.92ZM353.966 383.57C353.85 382.527 354.031 380.959 354.914 379.676C355.765 378.441 357.343 377.361 360.267 377.361V375.787C356.895 375.787 354.8 377.067 353.618 378.783C352.469 380.452 352.256 382.425 352.402 383.743L353.966 383.57ZM360.267 377.361H383.089V375.787H360.267V377.361ZM342.174 240.315C342.124 240.667 342.107 241.531 342.107 242.333C342.108 243.149 342.128 244.03 342.171 244.442L343.736 244.28C343.703 243.96 343.682 243.157 343.681 242.331C343.681 241.491 343.702 240.754 343.732 240.537L342.174 240.315ZM342.207 244.61C343.761 249.272 345.67 255.722 347.767 259.682L349.158 258.945C347.142 255.137 345.294 248.893 343.7 244.112L342.207 244.61ZM336.888 241.443C335.169 243.163 335.794 245.449 335.878 246.045L337.437 245.824C337.31 244.928 336.954 243.603 338.001 242.556L336.888 241.443ZM335.878 246.045C336.567 250.905 339.185 257.371 341.488 261.286L342.845 260.488C340.616 256.7 338.09 250.429 337.437 245.824L335.878 246.045ZM348.449 278.843C348.078 276.865 348.121 273.819 349.425 271.149C350.704 268.532 353.227 266.2 358.004 265.603L357.808 264.041C352.512 264.703 349.526 267.356 348.011 270.458C346.522 273.507 346.486 276.914 346.902 279.133L348.449 278.843ZM405.004 255.369C409.649 256.089 420.002 254.871 423.964 244.095L422.487 243.552C418.894 253.324 409.52 254.476 405.245 253.814L405.004 255.369ZM403.551 238.852C402.657 238.852 401.145 238.845 399.853 239.288C399.194 239.514 398.536 239.874 398.043 240.46C397.538 241.059 397.255 241.834 397.255 242.787H398.829C398.829 242.165 399.005 241.76 399.246 241.474C399.499 241.175 399.875 240.944 400.363 240.777C401.366 240.433 402.608 240.426 403.551 240.426L403.551 238.852ZM397.255 242.787C397.255 243.739 397.538 244.514 398.043 245.114C398.536 245.7 399.194 246.06 399.853 246.286C401.145 246.729 402.657 246.722 403.551 246.722V245.148C402.608 245.148 401.366 245.141 400.363 244.797C399.875 244.629 399.499 244.399 399.246 244.1C399.005 243.814 398.829 243.408 398.829 242.787H397.255ZM448.565 234.917C444.653 234.917 441.482 231.746 441.482 227.834H439.908C439.908 232.615 443.784 236.491 448.565 236.491V234.917ZM441.482 227.834C441.482 223.922 444.653 220.751 448.565 220.751V219.177C443.784 219.177 439.908 223.053 439.908 227.834H441.482ZM451.257 234.387C450.428 234.728 449.52 234.917 448.565 234.917V236.491C449.729 236.491 450.84 236.261 451.856 235.843L451.257 234.387ZM413.825 223.502C415.59 223.435 417.233 223.665 418.454 224.054L418.932 222.555C417.515 222.103 415.688 221.856 413.765 221.929L413.825 223.502ZM420.476 223.221C420.035 222.962 419.51 222.739 418.932 222.555L418.454 224.054C418.951 224.213 419.363 224.392 419.679 224.578L420.476 223.221ZM413.765 221.929C411.492 222.016 409.024 222.554 406.908 223.798L407.706 225.155C409.542 224.076 411.738 223.581 413.825 223.502L413.765 221.929Z" fill="#1D2628"/>
<path d="M448.259 232.805C451.118 232.805 453.437 230.487 453.437 227.627C453.437 224.768 451.118 222.449 448.259 222.449C445.399 222.449 443.08 224.768 443.08 227.627C443.08 228.922 443.555 230.105 444.34 231.013L439.584 237.92C439.029 238.726 439.232 239.828 440.038 240.383C440.843 240.938 441.946 240.735 442.501 239.929L447.45 232.743C447.713 232.784 447.983 232.805 448.259 232.805Z" fill="white"/>
<ellipse cx="428.337" cy="237.169" rx="6.13822" ry="3.68293" transform="rotate(-22.039 428.337 237.169)" fill="#F9ACC0"/>
<ellipse cx="387.941" cy="251.081" rx="6.13822" ry="3.68293" transform="rotate(-12.2059 387.941 251.081)" fill="#F9ACC0"/>
</g>
</g>
<path fill-rule="evenodd" clip-rule="evenodd" d="M287 88C279.268 88 273 94.268 273 102V135C273 142.732 279.268 149 287 149H315V166.973C315 169.45 317.832 170.86 319.809 169.367L346.764 149H521C528.732 149 535 142.732 535 135V102C535 94.268 528.732 88 521 88H287Z" fill="#0476F4"/>
<path d="M308.471 122.506C308.471 123.407 308.241 124.192 307.783 124.864C307.325 125.535 306.703 126.059 305.917 126.435C305.147 126.812 304.296 127 303.363 127H295.087V109.565H303.756C304.574 109.565 305.278 109.786 305.868 110.228C306.473 110.653 306.932 111.21 307.243 111.898C307.57 112.569 307.734 113.273 307.734 114.01C307.734 114.861 307.513 115.663 307.071 116.416C306.645 117.153 306.031 117.701 305.229 118.061C306.228 118.356 307.014 118.904 307.587 119.707C308.176 120.492 308.471 121.426 308.471 122.506ZM306.236 122.113C306.236 121.573 306.113 121.074 305.868 120.615C305.638 120.157 305.319 119.789 304.91 119.51C304.517 119.232 304.059 119.093 303.535 119.093H297.297V125.085H303.363C303.903 125.085 304.386 124.945 304.812 124.667C305.254 124.389 305.598 124.029 305.843 123.587C306.105 123.128 306.236 122.637 306.236 122.113ZM297.297 111.48V117.3H302.847C303.371 117.3 303.829 117.169 304.222 116.907C304.632 116.645 304.951 116.293 305.18 115.851C305.426 115.409 305.548 114.926 305.548 114.402C305.548 113.846 305.434 113.355 305.205 112.929C304.992 112.487 304.689 112.135 304.296 111.873C303.919 111.611 303.486 111.48 302.995 111.48H297.297ZM310.212 123.292C310.212 122.473 310.441 121.769 310.899 121.18C311.374 120.574 312.021 120.108 312.839 119.78C313.658 119.453 314.607 119.289 315.688 119.289C316.261 119.289 316.866 119.338 317.505 119.437C318.143 119.518 318.708 119.649 319.199 119.829V118.896C319.199 117.914 318.905 117.145 318.315 116.588C317.726 116.015 316.891 115.729 315.811 115.729C315.107 115.729 314.427 115.859 313.772 116.121C313.134 116.367 312.454 116.727 311.734 117.202L310.948 115.679C311.783 115.106 312.618 114.681 313.453 114.402C314.288 114.108 315.156 113.96 316.056 113.96C317.693 113.96 318.987 114.419 319.936 115.336C320.886 116.236 321.36 117.497 321.36 119.117V124.544C321.36 124.806 321.409 125.003 321.508 125.134C321.622 125.248 321.802 125.314 322.048 125.33V127C321.835 127.033 321.647 127.057 321.483 127.074C321.336 127.09 321.213 127.098 321.115 127.098C320.607 127.098 320.223 126.959 319.961 126.681C319.715 126.402 319.576 126.108 319.543 125.797L319.494 124.986C318.937 125.707 318.209 126.263 317.308 126.656C316.408 127.049 315.516 127.246 314.632 127.246C313.781 127.246 313.019 127.074 312.348 126.73C311.677 126.37 311.153 125.895 310.776 125.306C310.4 124.7 310.212 124.029 310.212 123.292ZM318.561 124.201C318.757 123.971 318.913 123.742 319.027 123.513C319.142 123.267 319.199 123.063 319.199 122.899V121.303C318.692 121.106 318.16 120.959 317.603 120.861C317.047 120.746 316.498 120.689 315.958 120.689C314.861 120.689 313.969 120.91 313.281 121.352C312.61 121.778 312.274 122.367 312.274 123.12C312.274 123.529 312.381 123.93 312.594 124.323C312.823 124.7 313.15 125.011 313.576 125.256C314.018 125.502 314.558 125.625 315.197 125.625C315.868 125.625 316.506 125.494 317.112 125.232C317.718 124.954 318.201 124.61 318.561 124.201ZM316.007 111.456C316.367 111.456 316.678 111.3 316.94 110.989C317.218 110.662 317.382 110.261 317.431 109.786H318.659C318.659 110.555 318.405 111.202 317.898 111.726C317.39 112.25 316.76 112.512 316.007 112.512C315.254 112.512 314.624 112.25 314.116 111.726C313.609 111.202 313.355 110.555 313.355 109.786H314.607C314.607 110.228 314.746 110.621 315.025 110.965C315.319 111.292 315.647 111.456 316.007 111.456ZM316.793 109.516L315.369 109.025L316.793 106.544H318.954L316.793 109.516ZM331.446 126.361C331.266 126.443 331.02 126.55 330.709 126.681C330.398 126.812 330.038 126.926 329.629 127.025C329.22 127.123 328.786 127.172 328.327 127.172C327.803 127.172 327.32 127.082 326.878 126.902C326.436 126.705 326.084 126.411 325.823 126.018C325.561 125.608 325.43 125.101 325.43 124.495V115.876H323.686V114.181H325.43V109.909H327.591V114.181H330.464V115.876H327.591V123.832C327.623 124.291 327.779 124.634 328.057 124.864C328.335 125.076 328.663 125.183 329.039 125.183C329.465 125.183 329.858 125.109 330.218 124.962C330.578 124.814 330.816 124.708 330.93 124.643L331.446 126.361ZM346.634 111.996V110.621H353.166V111.996H346.634ZM338.825 120.615C338.825 119.404 339.071 118.299 339.562 117.3C340.069 116.285 340.757 115.475 341.624 114.869C342.508 114.263 343.515 113.96 344.645 113.96C345.676 113.96 346.601 114.231 347.42 114.771C348.238 115.311 348.877 115.966 349.335 116.735V109.074H351.496V124.544C351.496 124.806 351.545 125.003 351.644 125.134C351.758 125.248 351.938 125.314 352.184 125.33V127C351.774 127.065 351.455 127.098 351.226 127.098C350.8 127.098 350.424 126.951 350.096 126.656C349.785 126.361 349.63 126.034 349.63 125.674V124.593C349.122 125.412 348.443 126.059 347.592 126.533C346.74 127.008 345.856 127.246 344.94 127.246C344.056 127.246 343.237 127.074 342.484 126.73C341.747 126.37 341.101 125.879 340.544 125.256C340.004 124.634 339.578 123.93 339.267 123.145C338.972 122.342 338.825 121.499 338.825 120.615ZM349.335 122.506V118.823C349.139 118.266 348.82 117.767 348.378 117.325C347.935 116.866 347.436 116.506 346.88 116.244C346.339 115.966 345.799 115.827 345.259 115.827C344.62 115.827 344.039 115.966 343.515 116.244C343.008 116.506 342.566 116.866 342.189 117.325C341.829 117.767 341.551 118.274 341.354 118.847C341.158 119.42 341.06 120.018 341.06 120.64C341.06 121.278 341.166 121.884 341.379 122.457C341.608 123.03 341.919 123.537 342.312 123.98C342.721 124.422 343.188 124.765 343.712 125.011C344.252 125.256 344.833 125.379 345.455 125.379C345.848 125.379 346.249 125.306 346.659 125.158C347.084 125.011 347.485 124.806 347.862 124.544C348.238 124.282 348.558 123.98 348.82 123.636C349.081 123.276 349.253 122.899 349.335 122.506ZM354.097 123.292C354.097 122.473 354.326 121.769 354.784 121.18C355.259 120.574 355.906 120.108 356.724 119.78C357.543 119.453 358.493 119.289 359.573 119.289C360.146 119.289 360.752 119.338 361.39 119.437C362.029 119.518 362.593 119.649 363.085 119.829V118.896C363.085 117.914 362.79 117.145 362.201 116.588C361.611 116.015 360.776 115.729 359.696 115.729C358.992 115.729 358.312 115.859 357.658 116.121C357.019 116.367 356.34 116.727 355.619 117.202L354.834 115.679C355.668 115.106 356.503 114.681 357.338 114.402C358.173 114.108 359.041 113.96 359.941 113.96C361.578 113.96 362.872 114.419 363.821 115.336C364.771 116.236 365.246 117.497 365.246 119.117V124.544C365.246 124.806 365.295 125.003 365.393 125.134C365.507 125.248 365.688 125.314 365.933 125.33V127C365.72 127.033 365.532 127.057 365.368 127.074C365.221 127.09 365.098 127.098 365 127.098C364.492 127.098 364.108 126.959 363.846 126.681C363.6 126.402 363.461 126.108 363.428 125.797L363.379 124.986C362.823 125.707 362.094 126.263 361.194 126.656C360.293 127.049 359.401 127.246 358.517 127.246C357.666 127.246 356.905 127.074 356.233 126.73C355.562 126.37 355.038 125.895 354.662 125.306C354.285 124.7 354.097 124.029 354.097 123.292ZM362.446 124.201C362.643 123.971 362.798 123.742 362.913 123.513C363.027 123.267 363.085 123.063 363.085 122.899V121.303C362.577 121.106 362.045 120.959 361.488 120.861C360.932 120.746 360.383 120.689 359.843 120.689C358.746 120.689 357.854 120.91 357.166 121.352C356.495 121.778 356.16 122.367 356.16 123.12C356.16 123.529 356.266 123.93 356.479 124.323C356.708 124.7 357.035 125.011 357.461 125.256C357.903 125.502 358.443 125.625 359.082 125.625C359.753 125.625 360.392 125.494 360.997 125.232C361.603 124.954 362.086 124.61 362.446 124.201ZM356.823 111.849L359.303 109.638H360.874L363.355 111.849L362.176 112.438L360.089 110.891L358.001 112.438L356.823 111.849ZM354.146 107.649H356.282L357.731 110.13L356.332 110.621L354.146 107.649ZM368.578 121.868V114.181H370.739V121.45C370.739 122.76 370.968 123.742 371.427 124.397C371.885 125.052 372.564 125.379 373.465 125.379C374.054 125.379 374.619 125.256 375.159 125.011C375.716 124.749 376.215 124.381 376.657 123.906C377.099 123.431 377.443 122.866 377.689 122.211V114.181H379.85V124.544C379.85 124.806 379.899 125.003 379.997 125.134C380.112 125.248 380.292 125.314 380.537 125.33V127C380.292 127.033 380.095 127.049 379.948 127.049C379.817 127.065 379.686 127.074 379.555 127.074C379.146 127.074 378.794 126.951 378.499 126.705C378.204 126.443 378.049 126.124 378.032 125.748L377.983 124.25C377.427 125.199 376.674 125.936 375.724 126.46C374.791 126.984 373.768 127.246 372.655 127.246C371.312 127.246 370.297 126.795 369.61 125.895C368.922 124.978 368.578 123.636 368.578 121.868ZM395.333 127.246C394.367 127.246 393.483 127.074 392.681 126.73C391.895 126.37 391.207 125.879 390.618 125.256C390.045 124.634 389.595 123.922 389.267 123.12C388.956 122.318 388.801 121.467 388.801 120.566C388.801 119.355 389.071 118.25 389.611 117.251C390.151 116.252 390.913 115.458 391.895 114.869C392.877 114.263 394.015 113.96 395.308 113.96C396.569 113.96 397.666 114.247 398.599 114.82C399.548 115.377 400.252 116.13 400.711 117.079L398.599 117.742C398.271 117.136 397.813 116.67 397.224 116.342C396.634 115.999 395.98 115.827 395.259 115.827C394.473 115.827 393.753 116.031 393.098 116.441C392.46 116.85 391.952 117.415 391.576 118.135C391.199 118.839 391.011 119.649 391.011 120.566C391.011 121.467 391.199 122.285 391.576 123.022C391.969 123.742 392.484 124.315 393.123 124.741C393.778 125.166 394.498 125.379 395.284 125.379C395.791 125.379 396.274 125.289 396.733 125.109C397.207 124.929 397.617 124.692 397.96 124.397C398.321 124.086 398.566 123.75 398.697 123.39L400.809 124.029C400.547 124.651 400.146 125.207 399.606 125.698C399.082 126.173 398.452 126.55 397.715 126.828C396.995 127.106 396.201 127.246 395.333 127.246ZM414.382 127H412.221V119.829C412.221 118.52 411.983 117.538 411.509 116.883C411.05 116.228 410.387 115.9 409.519 115.9C408.963 115.9 408.398 116.048 407.825 116.342C407.268 116.637 406.777 117.038 406.352 117.546C405.926 118.037 405.615 118.61 405.419 119.265V127H403.258V109.074H405.419V116.932C405.926 116.015 406.614 115.295 407.481 114.771C408.365 114.231 409.315 113.96 410.33 113.96C411.099 113.96 411.738 114.1 412.245 114.378C412.769 114.64 413.187 115.016 413.498 115.508C413.809 115.999 414.03 116.572 414.161 117.226C414.308 117.865 414.382 118.569 414.382 119.338V127ZM417.742 127V114.181H419.903V127H417.742ZM417.079 110.67L416.269 109.859C416.58 109.581 416.907 109.368 417.251 109.221C417.595 109.057 417.979 108.975 418.405 108.975C418.994 108.975 419.428 109.147 419.707 109.491C420.001 109.819 420.149 110.187 420.149 110.596C420.149 110.924 420.034 111.267 419.805 111.628C419.592 111.988 419.248 112.364 418.773 112.757L418.16 112.045C418.438 111.783 418.626 111.562 418.724 111.382C418.823 111.186 418.872 110.989 418.872 110.793C418.872 110.613 418.806 110.457 418.675 110.326C418.561 110.195 418.405 110.13 418.209 110.13C417.996 110.13 417.808 110.171 417.644 110.252C417.497 110.318 417.308 110.457 417.079 110.67ZM432.625 127L427.591 114.181H429.85L433.877 124.937L437.904 114.181H440.016L434.982 127H432.625ZM447.778 127.246C446.812 127.246 445.936 127.074 445.15 126.73C444.364 126.37 443.685 125.887 443.112 125.281C442.539 124.659 442.097 123.947 441.786 123.145C441.475 122.342 441.319 121.499 441.319 120.615C441.319 119.715 441.475 118.864 441.786 118.061C442.097 117.259 442.539 116.555 443.112 115.95C443.685 115.327 444.364 114.844 445.15 114.501C445.952 114.141 446.828 113.96 447.778 113.96C448.744 113.96 449.619 114.141 450.405 114.501C451.191 114.844 451.87 115.327 452.443 115.95C453.033 116.555 453.483 117.259 453.794 118.061C454.105 118.864 454.261 119.715 454.261 120.615C454.261 121.499 454.105 122.342 453.794 123.145C453.483 123.947 453.041 124.659 452.468 125.281C451.895 125.887 451.207 126.37 450.405 126.73C449.619 127.074 448.744 127.246 447.778 127.246ZM443.529 120.64C443.529 121.524 443.718 122.326 444.094 123.046C444.487 123.767 445.003 124.34 445.641 124.765C446.28 125.175 446.992 125.379 447.778 125.379C448.563 125.379 449.276 125.166 449.914 124.741C450.569 124.315 451.085 123.742 451.461 123.022C451.854 122.285 452.05 121.475 452.05 120.591C452.05 119.707 451.854 118.904 451.461 118.184C451.085 117.464 450.569 116.891 449.914 116.465C449.276 116.04 448.563 115.827 447.778 115.827C446.992 115.827 446.28 116.048 445.641 116.49C445.003 116.915 444.487 117.488 444.094 118.209C443.718 118.929 443.529 119.739 443.529 120.64ZM449.374 115.729L449.423 114.157C449.996 114.157 450.422 114.108 450.7 114.01C450.995 113.911 451.224 113.772 451.387 113.592C451.551 113.379 451.658 113.158 451.707 112.929C451.756 112.684 451.789 112.405 451.805 112.094H453.573C453.557 112.389 453.516 112.684 453.45 112.978C453.401 113.273 453.319 113.559 453.205 113.838C453.09 114.1 452.926 114.353 452.713 114.599C452.501 114.844 452.222 115.057 451.879 115.237C451.551 115.401 451.175 115.524 450.749 115.606C450.323 115.688 449.865 115.729 449.374 115.729ZM448.539 112.045L447.115 111.554L448.539 109.074H450.7L448.539 112.045ZM456.879 127V114.181H459.04V127H456.879ZM456.879 111.775V109.074H459.04V111.775H456.879ZM474.065 113.789H467.411V109.54H481.408L472.887 126.975H467.607L474.065 113.789ZM489.61 127.246C488.317 127.246 487.171 126.975 486.172 126.435C485.19 125.895 484.363 125.183 483.692 124.299C483.037 123.415 482.538 122.457 482.194 121.426C481.866 120.394 481.703 119.387 481.703 118.405C481.703 117.357 481.883 116.31 482.243 115.262C482.603 114.214 483.127 113.265 483.815 112.413C484.502 111.546 485.329 110.858 486.295 110.351C487.277 109.827 488.382 109.565 489.61 109.565C490.92 109.565 492.066 109.843 493.048 110.4C494.03 110.956 494.849 111.677 495.503 112.561C496.175 113.445 496.674 114.402 497.001 115.434C497.345 116.465 497.517 117.456 497.517 118.405C497.517 119.469 497.337 120.525 496.977 121.573C496.617 122.621 496.093 123.57 495.405 124.422C494.718 125.273 493.883 125.96 492.9 126.484C491.935 126.992 490.838 127.246 489.61 127.246ZM486.565 118.405C486.565 118.945 486.622 119.486 486.737 120.026C486.851 120.566 487.023 121.065 487.252 121.524C487.498 121.966 487.817 122.326 488.21 122.604C488.603 122.866 489.07 122.997 489.61 122.997C490.183 122.997 490.658 122.85 491.034 122.555C491.427 122.261 491.738 121.884 491.967 121.426C492.213 120.967 492.385 120.476 492.483 119.952C492.598 119.412 492.655 118.896 492.655 118.405C492.655 117.865 492.598 117.325 492.483 116.784C492.368 116.244 492.188 115.753 491.943 115.311C491.697 114.853 491.378 114.493 490.985 114.231C490.609 113.952 490.15 113.813 489.61 113.813C489.053 113.813 488.579 113.96 488.186 114.255C487.793 114.55 487.473 114.926 487.228 115.385C486.999 115.843 486.827 116.342 486.712 116.883C486.614 117.407 486.565 117.914 486.565 118.405ZM499.871 127V109.565H504.66V116.195L509.964 109.565H515.366L509.031 117.374L515.808 127H510.308L505.986 120.591L504.66 121.966V127H499.871Z" fill="white"/>
<path fill-rule="evenodd" clip-rule="evenodd" d="M186 350.219C190.418 350.219 194 346.637 194 342.219V314.219C194 309.8 190.418 306.219 186 306.219L179 306.219V287.005C179 284.573 176.258 283.152 174.271 284.554L144.926 305.248C144.577 305.494 144.313 305.833 144.158 306.219H76C71.5817 306.219 68 309.8 68 314.219V342.219C68 346.637 71.5817 350.219 76 350.219H186Z" fill="#FEB901"/>
<path d="M95.3695 319.204H99.9928L98.3295 326.956H105.574L107.238 319.204H111.861L107.604 339.219H102.981L104.729 331.015H97.4838L95.736 339.219H91.1128L95.3695 319.204ZM117.609 339.501C116.331 339.501 115.223 339.238 114.283 338.711C113.362 338.185 112.648 337.452 112.14 336.512C111.652 335.554 111.407 334.464 111.407 333.242C111.407 331.983 111.652 330.809 112.14 329.719C112.629 328.629 113.306 327.67 114.17 326.843C115.035 325.997 116.04 325.34 117.187 324.87C118.352 324.381 119.602 324.137 120.936 324.137C122.063 324.137 123.031 324.306 123.839 324.644C124.666 324.964 125.296 325.443 125.728 326.082C126.179 326.702 126.405 327.463 126.405 328.365C126.405 329.963 125.662 331.184 124.178 332.03C122.712 332.857 120.522 333.271 117.609 333.271C117.046 333.271 116.425 333.261 115.749 333.242C115.091 333.205 114.405 333.148 113.691 333.073L114.255 330.311C114.856 330.367 115.429 330.414 115.974 330.452C116.519 330.47 117.064 330.48 117.609 330.48C118.718 330.48 119.592 330.423 120.231 330.311C120.889 330.179 121.359 329.982 121.641 329.719C121.923 329.455 122.063 329.136 122.063 328.76C122.063 328.459 121.979 328.215 121.81 328.027C121.659 327.82 121.443 327.661 121.161 327.548C120.898 327.435 120.579 327.379 120.203 327.379C119.583 327.379 119.01 327.538 118.483 327.858C117.957 328.177 117.497 328.619 117.102 329.183C116.726 329.747 116.425 330.395 116.2 331.128C115.993 331.842 115.89 332.613 115.89 333.44C115.89 334.022 115.974 334.53 116.143 334.962C116.313 335.375 116.585 335.695 116.961 335.92C117.356 336.146 117.844 336.259 118.427 336.259C119.103 336.259 119.724 336.099 120.287 335.78C120.87 335.46 121.34 335.018 121.697 334.455L125.249 335.582C124.742 336.353 124.074 337.039 123.247 337.64C122.421 338.223 121.518 338.683 120.541 339.021C119.583 339.341 118.605 339.501 117.609 339.501ZM130.341 339.472C129.288 339.472 128.48 339.238 127.916 338.768C127.371 338.279 127.099 337.593 127.099 336.71C127.099 336.522 127.108 336.334 127.127 336.146C127.146 335.939 127.183 335.733 127.24 335.526L130.82 318.64H135.33L132.06 333.947C132.042 334.041 132.023 334.144 132.004 334.257C132.004 334.351 132.004 334.445 132.004 334.539C132.004 335.272 132.361 335.639 133.075 335.639C133.282 335.639 133.517 335.61 133.78 335.554C134.062 335.479 134.325 335.375 134.569 335.244L134.428 338.627C133.827 338.89 133.15 339.097 132.399 339.247C131.647 339.397 130.961 339.472 130.341 339.472ZM139.536 339.472C138.483 339.472 137.675 339.238 137.111 338.768C136.566 338.279 136.294 337.593 136.294 336.71C136.294 336.522 136.303 336.334 136.322 336.146C136.341 335.939 136.378 335.733 136.435 335.526L140.015 318.64H144.525L141.255 333.947C141.236 334.041 141.218 334.144 141.199 334.257C141.199 334.351 141.199 334.445 141.199 334.539C141.199 335.272 141.556 335.639 142.27 335.639C142.477 335.639 142.712 335.61 142.975 335.554C143.257 335.479 143.52 335.375 143.764 335.244L143.623 338.627C143.022 338.89 142.345 339.097 141.594 339.247C140.842 339.397 140.156 339.472 139.536 339.472ZM151.75 339.501C150.265 339.501 149.053 339.219 148.113 338.655C147.173 338.072 146.478 337.311 146.027 336.372C145.595 335.413 145.379 334.361 145.379 333.214C145.379 332.011 145.595 330.865 146.027 329.775C146.478 328.685 147.108 327.717 147.916 326.871C148.724 326.026 149.682 325.358 150.791 324.87C151.919 324.381 153.178 324.137 154.569 324.137C156.072 324.137 157.284 324.419 158.205 324.983C159.145 325.546 159.831 326.308 160.263 327.266C160.714 328.206 160.94 329.258 160.94 330.423C160.94 331.607 160.714 332.744 160.263 333.834C159.831 334.924 159.211 335.902 158.403 336.766C157.594 337.612 156.627 338.279 155.499 338.768C154.39 339.256 153.14 339.501 151.75 339.501ZM152.398 335.695C152.905 335.695 153.385 335.582 153.836 335.357C154.306 335.112 154.719 334.774 155.076 334.342C155.433 333.91 155.715 333.402 155.922 332.82C156.129 332.237 156.232 331.617 156.232 330.959C156.232 330.339 156.138 329.813 155.95 329.38C155.781 328.929 155.527 328.582 155.189 328.337C154.851 328.093 154.428 327.971 153.92 327.971C153.432 327.971 152.952 328.093 152.483 328.337C152.031 328.563 151.618 328.892 151.242 329.324C150.885 329.756 150.603 330.264 150.396 330.846C150.19 331.429 150.086 332.058 150.086 332.735C150.086 333.318 150.171 333.834 150.34 334.285C150.528 334.736 150.791 335.084 151.129 335.328C151.486 335.573 151.909 335.695 152.398 335.695ZM163.725 331.269L166.291 319.006H170.801L168.236 331.269H163.725ZM162.006 339.219L163.021 334.539H167.531L166.516 339.219H162.006Z" fill="black"/>
<path d="M15.107 129C-3.94776 105.326 -1.01256 84.972 2.83689 77.7543L69.9616 76.3107C67.5557 88.0997 66.3527 115.142 80.7881 129H15.107Z" fill="#FED353"/>
<path d="M16.5503 99.4074C17.7532 105.422 24.3454 117.163 41.0905 116.008C54.0824 115.112 59.1348 104.46 58.413 98.6856" stroke="black" stroke-width="1.44354" stroke-linecap="round" stroke-linejoin="round"/>
<circle cx="30.6751" cy="99.2342" r="2.16531" fill="black"/>
<g filter="url(#filter2_d_410_4185)">
<path d="M24.161 83.6901L22.0914 74.425L50.0803 71.0968L52.1983 81.082L24.161 83.6901Z" fill="white"/>
</g>
<circle cx="46.554" cy="99.2342" r="2.16531" fill="black"/>
<defs>
<filter id="filter0_d_410_4185" x="23.2683" y="-2.54744" width="315.914" height="262.716" filterUnits="userSpaceOnUse" color-interpolation-filters="sRGB">
<feFlood flood-opacity="0" result="BackgroundImageFix"/>
<feColorMatrix in="SourceAlpha" type="matrix" values="0 0 0 0 0 0 0 0 0 0 0 0 0 0 0 0 0 0 127 0" result="hardAlpha"/>
<feOffset dy="8.1843"/>
<feGaussianBlur stdDeviation="7.36587"/>
<feColorMatrix type="matrix" values="0 0 0 0 0 0 0 0 0 0 0 0 0 0 0 0 0 0 0.17 0"/>
<feBlend mode="normal" in2="BackgroundImageFix" result="effect1_dropShadow_410_4185"/>
<feBlend mode="normal" in="SourceGraphic" in2="effect1_dropShadow_410_4185" result="shape"/>
</filter>
<filter id="filter1_d_410_4185" x="235.482" y="159.43" width="315.914" height="247.166" filterUnits="userSpaceOnUse" color-interpolation-filters="sRGB">
<feFlood flood-opacity="0" result="BackgroundImageFix"/>
<feColorMatrix in="SourceAlpha" type="matrix" values="0 0 0 0 0 0 0 0 0 0 0 0 0 0 0 0 0 0 127 0" result="hardAlpha"/>
<feOffset dy="8.1843"/>
<feGaussianBlur stdDeviation="7.36587"/>
<feColorMatrix type="matrix" values="0 0 0 0 0 0 0 0 0 0 0 0 0 0 0 0 0 0 0.17 0"/>
<feBlend mode="normal" in2="BackgroundImageFix" result="effect1_dropShadow_410_4185"/>
<feBlend mode="normal" in="SourceGraphic" in2="effect1_dropShadow_410_4185" result="shape"/>
</filter>
<filter id="filter2_d_410_4185" x="19.8105" y="69.9564" width="36.9493" height="19.4356" filterUnits="userSpaceOnUse" color-interpolation-filters="sRGB">
<feFlood flood-opacity="0" result="BackgroundImageFix"/>
<feColorMatrix in="SourceAlpha" type="matrix" values="0 0 0 0 0 0 0 0 0 0 0 0 0 0 0 0 0 0 127 0" result="hardAlpha"/>
<feOffset dx="1.1404" dy="2.2808"/>
<feGaussianBlur stdDeviation="1.7106"/>
<feComposite in2="hardAlpha" operator="out"/>
<feColorMatrix type="matrix" values="0 0 0 0 0 0 0 0 0 0 0 0 0 0 0 0 0 0 0.45 0"/>
<feBlend mode="normal" in2="BackgroundImageFix" result="effect1_dropShadow_410_4185"/>
<feBlend mode="normal" in="SourceGraphic" in2="effect1_dropShadow_410_4185" result="shape"/>
</filter>
<clipPath id="clip0_410_4185">
<rect x="38" y="4" width="286.451" height="233.253" rx="17.187" fill="white"/>
</clipPath>
<clipPath id="clip1_410_4185">
<rect x="250.214" y="165.978" width="286.451" height="217.702" rx="17.187" fill="white"/>
</clipPath>
</defs>
</svg>
