<svg width="32" height="32" viewBox="0 0 32 32" fill="none" xmlns="http://www.w3.org/2000/svg">
<g clip-path="url(#clip0_697_1329)">
<path d="M7.45953 29.3757H20.0877H21.1905C22.2091 29.3985 23.5806 28.2445 23.5806 26.8953V26.1429L20.0877 26.5212V23.6667L23.5806 19.5948V16.3445V6.91769C23.5806 4.92706 22.0167 3.31333 20.0877 3.31333H19.2765C19.2079 4.21509 18.4545 4.92543 17.5352 4.92543H10.012C9.0927 4.92543 8.33927 4.21509 8.27068 3.31333H7.45953C5.53046 3.31333 3.96664 4.92706 3.96664 6.91769V25.7713C3.96664 27.7619 5.53046 29.3757 7.45953 29.3757Z" fill="#EF456F" fill-opacity="0.2"/>
<path d="M17.5352 1.43254H10.012C9.0475 1.43254 8.26559 2.21445 8.26559 3.17899C8.26559 3.22419 8.2673 3.26899 8.27068 3.31333C8.33927 4.21509 9.0927 4.92543 10.012 4.92543H17.5352C18.4545 4.92543 19.2079 4.21509 19.2765 3.31333C19.2799 3.26899 19.2816 3.22419 19.2816 3.17899C19.2816 2.21445 18.4997 1.43254 17.5352 1.43254Z" fill="#EF456F" fill-opacity="0.2"/>
<path d="M25.4722 17.7031L20.5647 22.6107C20.3706 22.8048 20.1904 23.1652 20.1488 23.4286L19.8854 25.3001C19.7883 25.9794 20.2597 26.4508 20.939 26.3537L22.8105 26.0903C23.0739 26.0487 23.4482 25.8685 23.6285 25.6744L27.8212 21.4817L28.536 20.7669C29.3817 19.9212 29.7837 18.937 28.536 17.6893C27.3022 16.4554 26.3179 16.8574 25.4722 17.7031Z" fill="#EF456F" fill-opacity="0.2"/>
<path d="M6.8373 11.0203C6.64204 11.2156 6.64204 11.5321 6.8373 11.7274C7.03256 11.9227 7.34914 11.9227 7.5444 11.7274L6.8373 11.0203ZM11.0373 8.23451C11.2326 8.03924 11.2326 7.72266 11.0373 7.5274C10.842 7.33214 10.5254 7.33214 10.3302 7.5274L11.0373 8.23451ZM7.5444 7.5274C7.34914 7.33214 7.03256 7.33214 6.8373 7.5274C6.64204 7.72266 6.64204 8.03924 6.8373 8.23451L7.5444 7.5274ZM10.3302 11.7274C10.5254 11.9227 10.842 11.9227 11.0373 11.7274C11.2326 11.5321 11.2326 11.2156 11.0373 11.0203L10.3302 11.7274ZM7.55725 16.7655C7.36935 16.5632 7.05298 16.5515 6.85063 16.7394C6.64827 16.9273 6.63655 17.2436 6.82445 17.446L7.55725 16.7655ZM8.35515 18.3596L7.98875 18.6998C8.08539 18.8039 8.22172 18.862 8.36372 18.8595C8.50572 18.8571 8.63998 18.7944 8.73299 18.6871L8.35515 18.3596ZM11.0616 16.0002C11.2424 15.7916 11.2199 15.4758 11.0112 15.2949C10.8025 15.1141 10.4868 15.1366 10.3059 15.3453L11.0616 16.0002ZM7.55725 23.7513C7.36935 23.549 7.05298 23.5372 6.85063 23.7251C6.64827 23.913 6.63655 24.2294 6.82445 24.4318L7.55725 23.7513ZM8.35515 25.3454L7.98875 25.6856C8.08539 25.7897 8.22172 25.8478 8.36372 25.8453C8.50572 25.8429 8.63998 25.7802 8.73299 25.6729L8.35515 25.3454ZM11.0616 22.986C11.2424 22.7773 11.2199 22.4616 11.0112 22.2807C10.8025 22.0999 10.4868 22.1224 10.3059 22.3311L11.0616 22.986ZM13.3034 24.4155C13.0273 24.4155 12.8034 24.6394 12.8034 24.9155C12.8034 25.1917 13.0273 25.4155 13.3034 25.4155V24.4155ZM15.5738 25.4155C15.8499 25.4155 16.0738 25.1917 16.0738 24.9155C16.0738 24.6394 15.8499 24.4155 15.5738 24.4155V25.4155ZM8.27068 3.31333L8.76924 3.2754V3.2754L8.27068 3.31333ZM19.2765 3.31333L18.778 3.2754V3.2754L19.2765 3.31333ZM13.3034 22.6422C13.0273 22.6422 12.8034 22.8661 12.8034 23.1422C12.8034 23.4183 13.0273 23.6422 13.3034 23.6422V22.6422ZM13.3034 17.3223C13.0273 17.3223 12.8034 17.5461 12.8034 17.8223C12.8034 18.0984 13.0273 18.3223 13.3034 18.3223V17.3223ZM18.5427 18.3223C18.8189 18.3223 19.0427 18.0984 19.0427 17.8223C19.0427 17.5461 18.8189 17.3223 18.5427 17.3223V18.3223ZM13.3034 15.5489C13.0273 15.5489 12.8034 15.7728 12.8034 16.0489C12.8034 16.3251 13.0273 16.5489 13.3034 16.5489V15.5489ZM21.2833 16.5489C21.5595 16.5489 21.7833 16.3251 21.7833 16.0489C21.7833 15.7728 21.5595 15.5489 21.2833 15.5489V16.5489ZM13.3034 10.0141C13.0273 10.0141 12.8034 10.2379 12.8034 10.5141C12.8034 10.7902 13.0273 11.0141 13.3034 11.0141V10.0141ZM18.5427 11.0141C18.8189 11.0141 19.0427 10.7902 19.0427 10.5141C19.0427 10.2379 18.8189 10.0141 18.5427 10.0141V11.0141ZM13.3034 8.24074C13.0273 8.24074 12.8034 8.4646 12.8034 8.74074C12.8034 9.01688 13.0273 9.24074 13.3034 9.24074V8.24074ZM21.2833 9.24074C21.5595 9.24074 21.7833 9.01688 21.7833 8.74074C21.7833 8.4646 21.5595 8.24074 21.2833 8.24074V9.24074ZM25.4722 17.7031L25.1187 17.3495V17.3495L25.4722 17.7031ZM20.5647 22.6107L20.9183 22.9642L20.9183 22.9642L20.5647 22.6107ZM20.1488 23.4286L19.6548 23.3506L19.6537 23.3589L20.1488 23.4286ZM19.8854 25.3001L20.3804 25.3708L20.3805 25.3698L19.8854 25.3001ZM20.939 26.3537L20.8693 25.8586L20.8683 25.8588L20.939 26.3537ZM22.8105 26.0903L22.8802 26.5855L22.8885 26.5842L22.8105 26.0903ZM23.6285 25.6744L23.2749 25.3209C23.2705 25.3252 23.2663 25.3297 23.2621 25.3342L23.6285 25.6744ZM28.536 20.7669L28.8896 21.1204H28.8896L28.536 20.7669ZM28.536 17.6893L28.8896 17.3357L28.536 17.6893ZM25.247 18.2764C25.1731 18.0103 24.8975 17.8545 24.6315 17.9284C24.3654 18.0024 24.2096 18.278 24.2835 18.544L25.247 18.2764ZM27.7091 21.9696C27.9752 22.0435 28.2508 21.8877 28.3247 21.6217C28.3986 21.3556 28.2428 21.08 27.9767 21.0061L27.7091 21.9696ZM23.0806 16.3445C23.0806 16.6206 23.3044 16.8445 23.5806 16.8445C23.8567 16.8445 24.0806 16.6206 24.0806 16.3445H23.0806ZM17.0784 23.6422C17.3546 23.6422 17.5784 23.4183 17.5784 23.1422C17.5784 22.8661 17.3546 22.6422 17.0784 22.6422V23.6422ZM20.0877 28.8757H7.45953V29.8757H20.0877V28.8757ZM4.46664 25.7713V6.91769H3.46664V25.7713H4.46664ZM7.45953 28.8757C5.8213 28.8757 4.46664 27.5007 4.46664 25.7713H3.46664C3.46664 28.0231 5.23963 29.8757 7.45953 29.8757V28.8757ZM20.0877 3.81333C21.7259 3.81333 23.0806 5.18828 23.0806 6.91769H24.0806C24.0806 4.66584 22.3076 2.81333 20.0877 2.81333V3.81333ZM7.45953 2.81333C5.23963 2.81333 3.46664 4.66584 3.46664 6.91769H4.46664C4.46664 5.18828 5.8213 3.81333 7.45953 3.81333V2.81333ZM7.5444 11.7274L9.29085 9.98095L8.58374 9.27384L6.8373 11.0203L7.5444 11.7274ZM9.29085 9.98095L11.0373 8.23451L10.3302 7.5274L8.58374 9.27384L9.29085 9.98095ZM6.8373 8.23451L8.58374 9.98095L9.29085 9.27384L7.5444 7.5274L6.8373 8.23451ZM8.58374 9.98095L10.3302 11.7274L11.0373 11.0203L9.29085 9.27384L8.58374 9.98095ZM6.82445 17.446L7.98875 18.6998L8.72154 18.0194L7.55725 16.7655L6.82445 17.446ZM8.73299 18.6871L11.0616 16.0002L10.3059 15.3453L7.9773 18.0322L8.73299 18.6871ZM6.82445 24.4318L7.98875 25.6856L8.72154 25.0052L7.55725 23.7513L6.82445 24.4318ZM8.73299 25.6729L11.0616 22.986L10.3059 22.3311L7.9773 25.0179L8.73299 25.6729ZM13.3034 25.4155H15.5738V24.4155H13.3034V25.4155ZM10.012 1.93254H17.5352V0.932541H10.012V1.93254ZM17.5352 4.42543H10.012V5.42543H17.5352V4.42543ZM17.5352 1.93254C18.2236 1.93254 18.7816 2.49059 18.7816 3.17899H19.7816C19.7816 1.93831 18.7759 0.932541 17.5352 0.932541V1.93254ZM10.012 0.932541C8.77135 0.932541 7.76559 1.93831 7.76559 3.17899H8.76559C8.76559 2.49059 9.32364 1.93254 10.012 1.93254V0.932541ZM8.27068 2.81333H7.45953V3.81333H8.27068V2.81333ZM20.0877 2.81333H19.2765V3.81333H20.0877V2.81333ZM18.778 3.2754C18.7291 3.91849 18.1911 4.42543 17.5352 4.42543V5.42543C18.7179 5.42543 19.6868 4.5117 19.7751 3.35125L18.778 3.2754ZM10.012 4.42543C9.35613 4.42543 8.81816 3.91849 8.76924 3.2754L7.77212 3.35125C7.86039 4.5117 8.82927 5.42543 10.012 5.42543V4.42543ZM18.7816 3.17899C18.7816 3.21152 18.7804 3.24367 18.778 3.2754L19.7751 3.35126C19.7794 3.29431 19.7816 3.23685 19.7816 3.17899H18.7816ZM8.76924 3.2754C8.76682 3.24367 8.76559 3.21152 8.76559 3.17899H7.76559C7.76559 3.23686 7.76779 3.29431 7.77212 3.35125L8.76924 3.2754ZM13.3034 18.3223H18.5427V17.3223H13.3034V18.3223ZM13.3034 11.0141H18.5427V10.0141H13.3034V11.0141ZM25.1187 17.3495L20.2112 22.2571L20.9183 22.9642L25.8258 18.0567L25.1187 17.3495ZM20.2112 22.2571C20.0659 22.4024 19.9438 22.5892 19.8534 22.7679C19.763 22.9466 19.6861 23.1531 19.6549 23.3506L20.6427 23.5066C20.6531 23.4407 20.6871 23.3353 20.7457 23.2194C20.8044 23.1035 20.8694 23.0131 20.9183 22.9642L20.2112 22.2571ZM19.6537 23.3589L19.3903 25.2304L20.3805 25.3698L20.6439 23.4983L19.6537 23.3589ZM19.3904 25.2294C19.3232 25.7003 19.4491 26.1532 19.7675 26.4716C20.0859 26.79 20.5389 26.916 21.0097 26.8487L20.8683 25.8588C20.6598 25.8885 20.5375 25.8274 20.4746 25.7645C20.4118 25.7016 20.3506 25.5793 20.3804 25.3708L19.3904 25.2294ZM21.0087 26.8489L22.8802 26.5855L22.7409 25.5952L20.8693 25.8586L21.0087 26.8489ZM22.8885 26.5842C23.084 26.5534 23.293 26.4774 23.4743 26.3868C23.6531 26.2974 23.849 26.1717 23.9949 26.0146L23.2621 25.3342C23.2277 25.3712 23.1464 25.4327 23.0271 25.4924C22.9103 25.5508 22.8005 25.5857 22.7326 25.5965L22.8885 26.5842ZM28.8896 21.1204C29.3408 20.6692 29.7513 20.1084 29.8186 19.4281C29.8886 18.7213 29.5778 18.0239 28.8896 17.3357L28.1825 18.0428C28.7419 18.6023 28.854 19.0209 28.8235 19.3296C28.7903 19.6647 28.5769 20.0189 28.1825 20.4133L28.8896 21.1204ZM28.8896 17.3357C28.207 16.6531 27.5123 16.3466 26.8075 16.419C26.1301 16.4886 25.57 16.8983 25.1187 17.3495L25.8258 18.0567C26.2202 17.6623 26.5751 17.4481 26.9097 17.4138C27.2169 17.3822 27.6312 17.4916 28.1825 18.0428L28.8896 17.3357ZM13.3034 16.5489H21.2833V15.5489H13.3034V16.5489ZM13.3034 9.24074H21.2833V8.24074H13.3034V9.24074ZM23.0806 6.91769V16.3445H24.0806V6.91769H23.0806ZM13.3034 23.6422H17.0784V22.6422H13.3034V23.6422ZM23.982 26.028L28.1747 21.8353L27.4676 21.1282L23.2749 25.3209L23.982 26.028ZM28.1747 21.8353L28.8896 21.1204L28.1825 20.4133L27.4676 21.1282L28.1747 21.8353ZM24.2835 18.544C24.7441 20.2021 26.0304 21.4942 27.6849 21.9628L27.9574 21.0007C26.6385 20.6271 25.6142 19.5982 25.247 18.2764L24.2835 18.544ZM27.6849 21.9628C27.693 21.9651 27.7011 21.9674 27.7091 21.9696L27.9767 21.0061C27.9703 21.0043 27.9638 21.0025 27.9574 21.0007L27.6849 21.9628Z" fill="#EF456F"/>
</g>
<defs>
<clipPath id="clip0_697_1329">
<rect width="30.9524" height="30.9524" fill="white" transform="translate(0.142853 0.14286)"/>
</clipPath>
</defs>
</svg>
