<svg width="38" height="38" viewBox="0 0 38 38" fill="none" xmlns="http://www.w3.org/2000/svg">
<path d="M16.3865 27.1133C12.9158 27.1133 10.1023 24.2997 10.1023 20.829C10.1023 21.3703 9.61077 21.8373 9.06944 21.8373C8.57855 21.8373 8.12137 21.693 7.73804 21.4444C7.06458 21.0077 6.61905 20.2493 6.61905 19.3869C6.61905 18.5852 7.00403 17.8735 7.59921 17.4264C7.77206 17.2966 7.96264 17.1891 8.16667 17.1082V12.8922C8.16667 7.14837 13.1324 2.49207 19.2579 2.49207C25.3835 2.49207 30.3492 7.14837 30.3492 12.8922V17.5999C30.8255 18.0469 31.123 18.6822 31.123 19.3869C31.123 20.2493 30.6775 21.0077 30.004 21.4444C29.6207 21.693 29.1635 21.8373 28.6726 21.8373C28.2887 21.8373 27.9563 21.6165 27.7955 21.295C27.557 24.5481 24.8422 27.1133 21.5282 27.1133H20.9569V28.4155C21.7058 28.6912 22.5068 28.9884 23.2421 29.2652C24.3101 29.6672 25.2396 30.0263 25.6701 30.2146C25.8573 30.2965 26.022 30.392 26.1666 30.4957C26.8166 30.962 27.0594 31.5947 27.0984 31.9013L27.8125 36.5397H20.4523H17.5439H10.1023L10.8164 31.9013C10.8553 31.5947 11.0981 30.962 11.7481 30.4957C11.8927 30.392 12.0575 30.2965 12.2446 30.2146C12.6751 30.0263 13.6047 29.6672 14.6726 29.2652C15.4079 28.9884 16.2089 28.6912 16.9578 28.4155V27.1133H16.3865Z" fill="#9757D7" fill-opacity="0.2"/>
<path d="M18.0398 22.2429C17.8741 22.1186 17.639 22.1522 17.5148 22.3179C17.3905 22.4836 17.4241 22.7186 17.5898 22.8429L18.0398 22.2429ZM20.325 22.8429C20.4907 22.7186 20.5242 22.4836 20.4 22.3179C20.2757 22.1522 20.0407 22.1186 19.875 22.2429L20.325 22.8429ZM10.1023 13.626L10.0735 13.2521L9.72726 13.2787V13.626H10.1023ZM22.6111 9.19842L22.955 9.04889L22.7439 8.56336L22.3559 8.92362L22.6111 9.19842ZM27.7955 14.0992L28.1705 14.097L28.1688 13.8284L27.914 13.7435L27.7955 14.0992ZM10.8164 31.9013L11.1871 31.9584L11.1884 31.9486L10.8164 31.9013ZM11.7481 30.4957L11.9667 30.8004L11.9667 30.8004L11.7481 30.4957ZM12.2446 30.2146L12.3949 30.5582H12.3949L12.2446 30.2146ZM14.6726 29.2652L14.5405 28.9142H14.5405L14.6726 29.2652ZM16.1236 33.3069L15.7912 33.4805C15.8463 33.5861 15.9483 33.6592 16.066 33.6774C16.1837 33.6957 16.3031 33.657 16.3877 33.5731L16.1236 33.3069ZM27.0984 31.9013L26.7262 31.9486L26.7277 31.9584L27.0984 31.9013ZM26.1666 30.4957L25.948 30.8004L25.948 30.8004L26.1666 30.4957ZM25.6701 30.2146L25.5198 30.5582L25.6701 30.2146ZM23.2421 29.2652L23.3742 28.9142H23.3742L23.2421 29.2652ZM21.7912 33.3069L21.5271 33.5731C21.6116 33.657 21.731 33.6957 21.8487 33.6774C21.9664 33.6592 22.0684 33.5861 22.1236 33.4805L21.7912 33.3069ZM17.0516 32.3863L16.7875 32.1201V32.1201L17.0516 32.3863ZM20.8632 32.3863L21.1273 32.1201V32.1201L20.8632 32.3863ZM10.1023 36.5397L9.73162 36.4826C9.71497 36.5908 9.74639 36.7008 9.81763 36.7838C9.88887 36.8669 9.99284 36.9147 10.1023 36.9147V36.5397ZM27.8125 36.5397V36.9147C27.9219 36.9147 28.0259 36.8669 28.0971 36.7838C28.1683 36.7008 28.1998 36.5908 28.1831 36.4826L27.8125 36.5397ZM7.73804 21.4444L7.53401 21.759L7.53401 21.759L7.73804 21.4444ZM7.59921 17.4264L7.37399 17.1266H7.37399L7.59921 17.4264ZM30.004 21.4444L30.2081 21.759L30.2081 21.759L30.004 21.4444ZM30.1429 17.4264L30.3681 17.1266L30.3681 17.1266L30.1429 17.4264ZM8.16667 17.1082L8.30489 17.4568L8.30489 17.4568L8.16667 17.1082ZM30.3492 17.5999L30.0926 17.8733L30.0926 17.8733L30.3492 17.5999ZM17.5898 22.8429C17.911 23.0838 18.3197 23.2945 18.7977 23.3344C19.2849 23.375 19.8029 23.2344 20.325 22.8429L19.875 22.2429C19.4829 22.5369 19.144 22.6106 18.86 22.587C18.5667 22.5625 18.2898 22.4305 18.0398 22.2429L17.5898 22.8429ZM16.3865 26.7383C13.1229 26.7383 10.4773 24.0926 10.4773 20.829H9.72726C9.72726 24.5068 12.7087 27.4883 16.3865 27.4883V26.7383ZM10.4773 20.829V16.9365H9.72726V20.829H10.4773ZM10.4773 16.9365V13.626H9.72726V16.9365H10.4773ZM10.131 13.9999C11.7027 13.879 14.057 13.5103 16.4257 12.796C18.7873 12.0838 21.205 11.0159 22.8663 9.47321L22.3559 8.92362C20.818 10.3517 18.5285 11.3785 16.2091 12.0779C13.8969 12.7752 11.5963 13.1349 10.0735 13.2521L10.131 13.9999ZM22.2672 9.34794C22.5293 9.95086 23.2574 11.0124 24.2098 12.0175C25.1626 13.0228 26.3909 14.0263 27.6769 14.455L27.914 13.7435C26.8006 13.3723 25.6747 12.4729 24.7542 11.5016C23.8334 10.5299 23.169 9.54096 22.955 9.04889L22.2672 9.34794ZM11.1884 31.9486C11.2152 31.7373 11.4078 31.2014 11.9667 30.8004L11.5295 30.191C10.7885 30.7227 10.4954 31.4521 10.4444 31.854L11.1884 31.9486ZM11.9667 30.8004C12.0901 30.7119 12.232 30.6294 12.3949 30.5582L12.0943 29.871C11.8829 29.9635 11.6953 30.0721 11.5295 30.191L11.9667 30.8004ZM12.3949 30.5582C12.8146 30.3746 13.7342 30.0191 14.8047 29.6161L14.5405 28.9142C13.4751 29.3153 12.5357 29.678 12.0943 29.871L12.3949 30.5582ZM14.3052 29.3403C14.511 30.3467 14.9996 31.965 15.7912 33.4805L16.456 33.1333C15.7018 31.6895 15.2341 30.1394 15.04 29.19L14.3052 29.3403ZM27.4704 31.854C27.4193 31.4521 27.1262 30.7227 26.3852 30.191L25.948 30.8004C26.5069 31.2014 26.6995 31.7373 26.7263 31.9486L27.4704 31.854ZM26.3852 30.191C26.2194 30.0721 26.0318 29.9635 25.8204 29.871L25.5198 30.5582C25.6827 30.6294 25.8246 30.7119 25.948 30.8004L26.3852 30.191ZM25.8204 29.871C25.3791 29.678 24.4396 29.3153 23.3742 28.9142L23.11 29.6161C24.1806 30.0191 25.1001 30.3746 25.5198 30.5582L25.8204 29.871ZM22.8747 29.19C22.6806 30.1394 22.2129 31.6895 21.4588 33.1333L22.1236 33.4805C22.9151 31.965 23.4037 30.3467 23.6095 29.3403L22.8747 29.19ZM21.3319 28.8272V28.4155H20.5819V28.8272H21.3319ZM16.5828 28.4155V28.8272H17.3328V28.4155H16.5828ZM16.5828 28.8272C16.5828 30.0139 17.453 30.9967 18.5901 31.1734L18.7053 30.4323C17.9279 30.3115 17.3328 29.6385 17.3328 28.8272H16.5828ZM19.3246 31.1734C20.4617 30.9967 21.3319 30.0139 21.3319 28.8272H20.5819C20.5819 29.6385 19.9868 30.3115 19.2094 30.4323L19.3246 31.1734ZM19.2094 30.4323C19.1275 30.4451 19.0433 30.4517 18.9574 30.4517V31.2017C19.082 31.2017 19.2047 31.1921 19.3246 31.1734L19.2094 30.4323ZM14.8047 29.6161C15.5389 29.3397 16.339 29.0429 17.0874 28.7674L16.8283 28.0636C16.0788 28.3395 15.2769 28.637 14.5405 28.9142L14.8047 29.6161ZM18.9574 30.4517C18.8714 30.4517 18.7873 30.4451 18.7053 30.4323L18.5901 31.1734C18.71 31.1921 18.8327 31.2017 18.9574 31.2017V30.4517ZM23.3742 28.9142C22.6378 28.637 21.8359 28.3395 21.0865 28.0636L20.8273 28.7674C21.5757 29.0429 22.3758 29.3397 23.11 29.6161L23.3742 28.9142ZM16.9578 27.4883H20.9569V26.7383H16.9578V27.4883ZM20.5819 27.1133V28.4155H21.3319V27.1133H20.5819ZM17.3328 28.4155V27.1133H16.5828V28.4155H17.3328ZM21.5282 26.7383H20.9569V27.4883H21.5282V26.7383ZM16.9578 26.7383H16.3865V27.4883H16.9578V26.7383ZM16.7476 32.6059L17.6953 33.9171L18.3031 33.4778L17.3555 32.1666L16.7476 32.6059ZM20.5498 32.1802L19.6875 33.4914L20.3141 33.9035L21.1765 32.5923L20.5498 32.1802ZM17.9992 34.0725H20.0008V33.3225H17.9992V34.0725ZM17.6289 33.6381L17.1736 36.4804L17.9141 36.599L18.3695 33.7568L17.6289 33.6381ZM17.5439 36.9147H20.4523V36.1647H17.5439V36.9147ZM19.6304 33.7563L20.082 36.5985L20.8227 36.4809L20.3712 33.6386L19.6304 33.7563ZM10.4729 36.5968L11.187 31.9584L10.4457 31.8442L9.73162 36.4826L10.4729 36.5968ZM27.8125 36.1647H20.4523V36.9147H27.8125V36.1647ZM17.5439 36.1647H10.1023V36.9147H17.5439V36.1647ZM16.3877 33.5731L17.3157 32.6525L16.7875 32.1201L15.8595 33.0406L16.3877 33.5731ZM17.3157 32.6525L18.9118 31.0691L18.3836 30.5367L16.7875 32.1201L17.3157 32.6525ZM28.1831 36.4826L27.469 31.8442L26.7277 31.9584L27.4418 36.5967L28.1831 36.4826ZM22.0553 33.0406L21.1273 32.1201L20.5991 32.6525L21.5271 33.5731L22.0553 33.0406ZM21.1273 32.1201L19.5311 30.5367L19.0029 31.0691L20.5991 32.6525L21.1273 32.1201ZM9.06944 17.3115H10.1023V16.5615H9.06944V17.3115ZM7.53401 21.759C7.97626 22.0458 8.50398 22.2123 9.06944 22.2123V21.4623C8.65312 21.4623 8.26648 21.3401 7.94206 21.1297L7.53401 21.759ZM7.94206 21.1297C7.37071 20.7593 6.99405 20.117 6.99405 19.3869H6.24405C6.24405 20.3817 6.75845 21.2561 7.53401 21.759L7.94206 21.1297ZM7.37399 17.1266C6.68858 17.6414 6.24405 18.4623 6.24405 19.3869H6.99405C6.99405 18.7082 7.31949 18.1055 7.82442 17.7263L7.37399 17.1266ZM29.8 21.1297C29.4756 21.3401 29.0889 21.4623 28.6726 21.4623V22.2123C29.2381 22.2123 29.7658 22.0458 30.2081 21.759L29.8 21.1297ZM30.748 19.3869C30.748 20.117 30.3714 20.7593 29.8 21.1297L30.2081 21.759C30.9836 21.2561 31.498 20.3817 31.498 19.3869H30.748ZM28.6726 17.3115C29.1403 17.3115 29.5708 17.4657 29.9176 17.7262L30.3681 17.1266C29.8958 16.7719 29.3082 16.5615 28.6726 16.5615V17.3115ZM9.72726 20.829C9.72726 21.1518 9.41531 21.4623 9.06944 21.4623V22.2123C9.80623 22.2123 10.4773 21.5889 10.4773 20.829H9.72726ZM27.4375 20.829C27.4375 20.9766 27.4321 21.1228 27.4215 21.2676L28.1695 21.3224C28.1814 21.1594 28.1875 20.9949 28.1875 20.829H27.4375ZM27.4601 21.4628C27.6819 21.9064 28.1412 22.2123 28.6726 22.2123V21.4623C28.4361 21.4623 28.2306 21.3267 28.1308 21.1273L27.4601 21.4628ZM28.6726 16.5615H27.8125V17.3115H28.6726V16.5615ZM27.4375 16.9365V20.829H28.1875V16.9365H27.4375ZM27.4205 14.1015L27.4375 16.9388L28.1875 16.9343L28.1705 14.097L27.4205 14.1015ZM27.4215 21.2676C27.1973 24.3262 24.6443 26.7383 21.5282 26.7383V27.4883C25.0401 27.4883 27.9167 24.77 28.1695 21.3224L27.4215 21.2676ZM19.2579 2.86707C25.1995 2.86707 29.9742 7.37784 29.9742 12.8922H30.7242C30.7242 6.9189 25.5675 2.11707 19.2579 2.11707V2.86707ZM19.2579 2.11707C12.9484 2.11707 7.79167 6.9189 7.79167 12.8922H8.54167C8.54167 7.37784 13.3164 2.86707 19.2579 2.86707V2.11707ZM9.06944 16.5615C8.70253 16.5615 8.35109 16.6316 8.02845 16.7596L8.30489 17.4568C8.541 17.3632 8.79874 17.3115 9.06944 17.3115V16.5615ZM8.02845 16.7596C7.79297 16.8529 7.57318 16.977 7.37399 17.1266L7.82442 17.7263C7.97093 17.6162 8.13231 17.5252 8.30489 17.4568L8.02845 16.7596ZM8.54167 17.1082V12.8922H7.79167V17.1082H8.54167ZM31.498 19.3869C31.498 18.5743 31.1545 17.8414 30.6058 17.3264L30.0926 17.8733C30.4965 18.2524 30.748 18.79 30.748 19.3869H31.498ZM30.6058 17.3264C30.5304 17.2556 30.451 17.1889 30.3681 17.1266L29.9176 17.7262C29.9786 17.7721 30.037 17.8212 30.0926 17.8733L30.6058 17.3264ZM30.7242 17.5999V12.8922H29.9742V17.5999H30.7242Z" fill="#9757D7"/>
<ellipse cx="15.131" cy="18.2262" rx="1.28968" ry="1.80556" fill="#9757D7"/>
<ellipse cx="22.869" cy="18.2262" rx="1.28968" ry="1.80556" fill="#9757D7"/>
</svg>
