<svg width="38" height="38" viewBox="0 0 38 38" fill="none" xmlns="http://www.w3.org/2000/svg">
<rect width="38" height="38" rx="14" fill="#EF456F"/>
<path d="M12.3391 14.7177C12.1438 14.913 12.1438 15.2296 12.3391 15.4248C12.5343 15.6201 12.8509 15.6201 13.0462 15.4248L12.3391 14.7177ZM15.8673 12.6036C16.0626 12.4084 16.0626 12.0918 15.8673 11.8965C15.6721 11.7013 15.3555 11.7013 15.1602 11.8965L15.8673 12.6036ZM13.0462 11.8965C12.8509 11.7013 12.5343 11.7013 12.3391 11.8965C12.1438 12.0918 12.1438 12.4084 12.3391 12.6036L13.0462 11.8965ZM15.1602 15.4248C15.3555 15.6201 15.6721 15.6201 15.8673 15.4248C16.0626 15.2296 16.0626 14.913 15.8673 14.7177L15.1602 15.4248ZM13.059 19.3607C12.8711 19.1583 12.5547 19.1466 12.3524 19.3345C12.15 19.5224 12.1383 19.8388 12.3262 20.0411L13.059 19.3607ZM13.633 20.7136L13.2666 21.0538C13.3632 21.1579 13.4996 21.216 13.6416 21.2135C13.7836 21.2111 13.9178 21.1484 14.0108 21.0411L13.633 20.7136ZM15.8916 18.8709C16.0725 18.6623 16.0499 18.3465 15.8413 18.1656C15.6326 17.9848 15.3168 18.0073 15.1359 18.216L15.8916 18.8709ZM13.059 25.003C12.8711 24.8007 12.5547 24.789 12.3524 24.9769C12.15 25.1648 12.1383 25.4811 12.3262 25.6835L13.059 25.003ZM13.633 26.356L13.2666 26.6962C13.3632 26.8003 13.4996 26.8583 13.6416 26.8559C13.7836 26.8535 13.9178 26.7908 14.0108 26.6834L13.633 26.356ZM15.8916 24.5133C16.0725 24.3046 16.0499 23.9889 15.8413 23.808C15.6326 23.6271 15.3168 23.6497 15.1359 23.8584L15.8916 24.5133ZM17.6297 25.5088C17.3535 25.5088 17.1297 25.7326 17.1297 26.0088C17.1297 26.2849 17.3535 26.5088 17.6297 26.5088V25.5088ZM19.4634 26.5088C19.7396 26.5088 19.9634 26.2849 19.9634 26.0088C19.9634 25.7326 19.7396 25.5088 19.4634 25.5088V26.5088ZM13.5648 8.56085L14.0633 8.52292V8.52292L13.5648 8.56085ZM22.4541 8.56085L21.9556 8.52291L21.9556 8.52292L22.4541 8.56085ZM17.6297 24.0765C17.3535 24.0765 17.1297 24.3003 17.1297 24.5765C17.1297 24.8526 17.3535 25.0765 17.6297 25.0765V24.0765ZM17.6297 19.7796C17.3535 19.7796 17.1297 20.0035 17.1297 20.2796C17.1297 20.5557 17.3535 20.7796 17.6297 20.7796V19.7796ZM21.8614 20.7796C22.1376 20.7796 22.3614 20.5557 22.3614 20.2796C22.3614 20.0035 22.1376 19.7796 21.8614 19.7796V20.7796ZM17.6297 18.3473C17.3535 18.3473 17.1297 18.5712 17.1297 18.8473C17.1297 19.1234 17.3535 19.3473 17.6297 19.3473V18.3473ZM24.075 19.3473C24.3511 19.3473 24.575 19.1234 24.575 18.8473C24.575 18.5712 24.3511 18.3473 24.075 18.3473V19.3473ZM17.6297 13.8768C17.3535 13.8768 17.1297 14.1007 17.1297 14.3768C17.1297 14.653 17.3535 14.8768 17.6297 14.8768V13.8768ZM21.8614 14.8768C22.1376 14.8768 22.3614 14.653 22.3614 14.3768C22.3614 14.1007 22.1376 13.8768 21.8614 13.8768V14.8768ZM17.6297 12.4445C17.3535 12.4445 17.1297 12.6684 17.1297 12.9445C17.1297 13.2207 17.3535 13.4445 17.6297 13.4445V12.4445ZM24.075 13.4445C24.3511 13.4445 24.575 13.2207 24.575 12.9445C24.575 12.6684 24.3511 12.4445 24.075 12.4445V13.4445ZM27.4583 20.1834L27.1048 19.8298L27.1048 19.8298L27.4583 20.1834ZM23.4946 24.1472L23.8481 24.5007H23.8481L23.4946 24.1472ZM23.1586 24.8078L22.6647 24.7298L22.6635 24.7381L23.1586 24.8078ZM22.9459 26.3194L23.4409 26.3901L23.441 26.3891L22.9459 26.3194ZM23.7969 27.1704L23.7272 26.6753L23.7262 26.6754L23.7969 27.1704ZM25.3085 26.9577L25.3782 27.4529L25.3865 27.4515L25.3085 26.9577ZM25.9691 26.6217L25.6156 26.2682C25.6112 26.2725 25.6069 26.277 25.6027 26.2815L25.9691 26.6217ZM29.9329 22.658L30.2865 23.0115L30.2865 23.0115L29.9329 22.658ZM29.9329 20.1722L30.2865 19.8186L29.9329 20.1722ZM27.3691 20.6207C27.2952 20.3546 27.0196 20.1988 26.7535 20.2727C26.4875 20.3466 26.3317 20.6222 26.4056 20.8883L27.3691 20.6207ZM29.2393 23.722C29.5054 23.7959 29.781 23.6401 29.8549 23.3741C29.9288 23.108 29.773 22.8324 29.5069 22.7585L29.2393 23.722ZM25.4305 19.086C25.4305 19.3622 25.6543 19.586 25.9305 19.586C26.2066 19.586 26.4305 19.3622 26.4305 19.086H25.4305ZM20.6787 25.0765C20.9549 25.0765 21.1787 24.8526 21.1787 24.5765C21.1787 24.3003 20.9549 24.0765 20.6787 24.0765V25.0765ZM23.1093 29.1112H12.9096V30.1112H23.1093V29.1112ZM10.5884 26.7V11.4721H9.58844V26.7H10.5884ZM12.9096 29.1112C11.6424 29.1112 10.5884 28.0466 10.5884 26.7H9.58844C9.58844 28.569 11.0607 30.1112 12.9096 30.1112V29.1112ZM23.1093 9.06085C24.3765 9.06085 25.4305 10.1255 25.4305 11.4721H26.4305C26.4305 9.60302 24.9582 8.06085 23.1093 8.06085V9.06085ZM12.9096 8.06085C11.0607 8.06085 9.58844 9.60302 9.58844 11.4721H10.5884C10.5884 10.1255 11.6424 9.06085 12.9096 9.06085V8.06085ZM13.0462 15.4248L14.4568 14.0142L13.7496 13.3071L12.3391 14.7177L13.0462 15.4248ZM14.4568 14.0142L15.8673 12.6036L15.1602 11.8965L13.7496 13.3071L14.4568 14.0142ZM12.3391 12.6036L13.7496 14.0142L14.4568 13.3071L13.0462 11.8965L12.3391 12.6036ZM13.7496 14.0142L15.1602 15.4248L15.8673 14.7177L14.4568 13.3071L13.7496 14.0142ZM12.3262 20.0411L13.2666 21.0538L13.9994 20.3734L13.059 19.3607L12.3262 20.0411ZM14.0108 21.0411L15.8916 18.8709L15.1359 18.216L13.2552 20.3862L14.0108 21.0411ZM12.3262 25.6835L13.2666 26.6962L13.9994 26.0158L13.059 25.003L12.3262 25.6835ZM14.0108 26.6834L15.8916 24.5133L15.1359 23.8584L13.2552 26.0285L14.0108 26.6834ZM17.6297 26.5088H19.4634V25.5088H17.6297V26.5088ZM14.9713 7.54175H21.0476V6.54175H14.9713V7.54175ZM21.0476 9.36293H14.9713V10.3629H21.0476V9.36293ZM21.0476 7.54175C21.5505 7.54175 21.9582 7.94943 21.9582 8.45234H22.9582C22.9582 7.39715 22.1028 6.54175 21.0476 6.54175V7.54175ZM14.9713 6.54175C13.9161 6.54175 13.0607 7.39715 13.0607 8.45234H14.0607C14.0607 7.94943 14.4683 7.54175 14.9713 7.54175V6.54175ZM13.5648 8.06085H12.9096V9.06085H13.5648V8.06085ZM23.1093 8.06085H22.4541V9.06085H23.1093V8.06085ZM21.9556 8.52292C21.9198 8.99259 21.5267 9.36293 21.0476 9.36293V10.3629C22.0536 10.3629 22.8776 9.5858 22.9527 8.59877L21.9556 8.52292ZM14.9713 9.36293C14.4921 9.36293 14.0991 8.99259 14.0633 8.52292L13.0662 8.59877C13.1413 9.5858 13.9653 10.3629 14.9713 10.3629V9.36293ZM21.9582 8.45234C21.9582 8.47618 21.9573 8.49971 21.9556 8.52291L22.9527 8.59878C22.9564 8.55035 22.9582 8.50151 22.9582 8.45234H21.9582ZM14.0633 8.52292C14.0616 8.49971 14.0607 8.47618 14.0607 8.45234H13.0607C13.0607 8.50152 13.0625 8.55035 13.0662 8.59877L14.0633 8.52292ZM17.6297 20.7796H21.8614V19.7796H17.6297V20.7796ZM17.6297 14.8768H21.8614V13.8768H17.6297V14.8768ZM27.1048 19.8298L23.141 23.7936L23.8481 24.5007L27.8119 20.5369L27.1048 19.8298ZM23.141 23.7936C23.0144 23.9202 22.9103 24.0804 22.8343 24.2308C22.7582 24.3811 22.6919 24.5576 22.6648 24.7298L23.6525 24.8858C23.6589 24.8452 23.6823 24.7698 23.7266 24.6822C23.7709 24.5946 23.818 24.5309 23.8481 24.5007L23.141 23.7936ZM22.6635 24.7381L22.4508 26.2497L23.441 26.3891L23.6538 24.8775L22.6635 24.7381ZM22.4509 26.2487C22.393 26.6542 22.501 27.0519 22.7827 27.3336C23.0644 27.6153 23.4621 27.7233 23.8676 27.6654L23.7262 26.6754C23.583 26.6959 23.516 26.6527 23.4898 26.6265C23.4636 26.6003 23.4204 26.5333 23.4409 26.3901L22.4509 26.2487ZM23.8666 27.6655L25.3782 27.4528L25.2388 26.4625L23.7272 26.6753L23.8666 27.6655ZM25.3865 27.4515C25.5566 27.4247 25.735 27.3594 25.8876 27.2831C26.0377 27.208 26.207 27.1003 26.3355 26.962L25.6027 26.2815C25.5857 26.2999 25.5311 26.3433 25.4404 26.3887C25.3523 26.4327 25.2731 26.4571 25.2305 26.4638L25.3865 27.4515ZM26.3227 26.9753L30.2865 23.0115L29.5794 22.3044L25.6156 26.2682L26.3227 26.9753ZM30.2865 23.0115C30.6564 22.6416 31.0069 22.1688 31.0646 21.5861C31.1248 20.977 30.8548 20.3869 30.2865 19.8186L29.5794 20.5257C30.0189 20.9652 30.0903 21.2765 30.0694 21.4876C30.0459 21.7251 29.8925 21.9913 29.5794 22.3044L30.2865 23.0115ZM30.2865 19.8186C29.7226 19.2547 29.1345 18.9881 28.527 19.0505C27.9469 19.1101 27.4748 19.4598 27.1048 19.8298L27.8119 20.5369C28.125 20.2238 28.3919 20.0697 28.6292 20.0453C28.8391 20.0237 29.1468 20.0931 29.5794 20.5257L30.2865 19.8186ZM26.4056 20.8883C26.7884 22.2666 27.861 23.3392 29.2393 23.722L29.5069 22.7585C28.4666 22.4695 27.6581 21.661 27.3691 20.6207L26.4056 20.8883ZM17.6297 19.3473H24.075V18.3473H17.6297V19.3473ZM17.6297 13.4445H24.075V12.4445H17.6297V13.4445ZM25.4305 11.4721V19.086H26.4305V11.4721H25.4305ZM17.6297 25.0765H20.6787V24.0765H17.6297V25.0765Z" fill="white"/>
</svg>
