<svg width="38" height="38" viewBox="0 0 38 38" fill="none" xmlns="http://www.w3.org/2000/svg">
<rect width="38" height="38" rx="14" fill="#FF5AF8"/>
<path d="M15.1592 19.5725V20.6935M22.8268 19.5725V20.6935M17.8945 20.5141C18.0738 20.8729 19.3742 21.3661 20.0468 20.5141" stroke="white" stroke-width="0.75" stroke-linecap="round" stroke-linejoin="round"/>
<path d="M14.6605 29.3192C14.3096 30.0424 14.1194 30.9104 14.0299 31.6994C13.9671 32.2532 13.954 32.7681 13.9697 33.1666H18.9582M14.6605 29.3192L17.0019 31.3407L17.2302 32.058L18.9582 33.1666M14.6605 29.3192C14.9915 28.6372 15.4654 28.084 16.1326 27.8475M18.9582 33.1666H23.9467C23.9559 32.7794 23.9297 32.263 23.8441 31.6994C23.7265 30.9244 23.4967 30.06 23.093 29.3192M18.9582 33.1666L20.6536 32.058L20.7841 31.3407L23.093 29.3192M23.093 29.3192C22.7703 28.7269 22.3363 28.2137 21.7595 27.8883M9.30439 16.1198C9.14515 16.8266 9.0611 17.562 9.0611 18.3169C9.0611 22.8121 12.0407 26.6114 16.1326 27.8475M9.30439 16.1198C12.0183 16.7326 18.5312 16.8103 22.8717 12.3981C24.3514 13.7881 26.0547 16.6579 28.7653 16.2992M9.30439 16.1198C9.66468 14.5205 10.4099 13.067 11.4376 11.8618L10.2838 11.2584C9.51027 10.7155 8.53107 10.3126 7.70295 10.0319C7.03613 9.80584 6.70989 9.03529 7.05748 8.42299L8.8089 5.33782C9.03136 4.94595 9.48087 4.72184 9.89913 4.88948C11.5666 5.55781 12.9318 7.45929 13.6265 8.81224C13.6607 8.87868 13.7005 8.94156 13.7469 9.00005L14.2177 9.59298C15.6406 8.80876 17.2759 8.36255 19.0155 8.36255C20.7551 8.36255 22.3904 8.80876 23.8133 9.59298L24.1745 8.91207C24.8521 7.55457 26.2436 5.57442 27.9525 4.88948C28.3708 4.72184 28.8203 4.94595 29.0427 5.33782L30.7941 8.42299C31.1417 9.03529 30.8155 9.80584 30.1487 10.0319C29.3205 10.3126 28.3414 10.7155 27.5678 11.2584L26.5934 11.8618C27.6594 13.112 28.4214 14.6292 28.7653 16.2992M28.7653 16.2992C28.8994 16.9508 28.9699 17.6256 28.9699 18.3169C28.9699 22.8628 25.9227 26.697 21.7595 27.8883M16.1717 27.8592C16.5706 28.8282 17.6614 30.7616 18.9135 30.9169C20.1426 31.0693 21.2163 29.0381 21.6327 27.9237M16.1717 27.8592C16.1586 27.8553 16.1456 27.8514 16.1326 27.8475M16.1717 27.8592C17.0727 28.1273 18.0273 28.2713 19.0155 28.2713C19.9212 28.2713 20.7987 28.1504 21.6327 27.9237M21.7595 27.8883C21.7173 27.9004 21.6751 27.9122 21.6327 27.9237" stroke="white" stroke-width="0.75" stroke-linejoin="round"/>
</svg>
