<svg width="38" height="38" viewBox="0 0 38 38" fill="none" xmlns="http://www.w3.org/2000/svg">
<rect width="38" height="38" rx="14" fill="#FFA51F"/>
<path d="M25.1764 10.2205L25.5655 9.90646V9.90646L25.1764 10.2205ZM9.34784 10.2205L8.9588 9.90646H8.9588L9.34784 10.2205ZM12.8136 22.1797L13.2945 22.0428L12.8136 22.1797ZM15.3963 26.6999H15.8963C15.8963 26.5475 15.8269 26.4035 15.7077 26.3086L15.3963 26.6999ZM15.3963 27.2396L15.3039 27.731C15.4501 27.7585 15.601 27.7195 15.7155 27.6245C15.83 27.5295 15.8963 27.3884 15.8963 27.2396H15.3963ZM23.3194 19.6916L23.4809 19.2184L23.3194 19.1633L23.158 19.2184L23.3194 19.6916ZM32 22.6535L32.181 23.1196C32.3768 23.0436 32.5043 22.8532 32.4999 22.6431C32.4955 22.4331 32.3603 22.2482 32.1615 22.1803L32 22.6535ZM23.3194 25.7501L23.1515 26.221L23.3194 26.2809L23.4874 26.221L23.3194 25.7501ZM14.6389 22.6535L14.4774 22.1803C14.2762 22.249 14.1404 22.4374 14.1389 22.6501C14.1374 22.8627 14.2706 23.053 14.4709 23.1245L14.6389 22.6535ZM28.5804 23.8734L28.4293 23.3967C28.4236 23.3985 28.418 23.4004 28.4124 23.4024L28.5804 23.8734ZM30.8163 30.4622V30.9622H31.3163V30.4622H30.8163ZM29.3695 30.4622H28.8695V30.9622H29.3695V30.4622ZM7 17.4081H12.1202V16.4081H7V17.4081ZM12.1202 17.4081H17.2621V16.4081H12.1202V17.4081ZM17.2621 17.4081H22.4041V16.4081H17.2621V17.4081ZM22.4041 17.4081H27.5243V16.4081H22.4041V17.4081ZM12.6202 16.9081C12.6202 15.0207 12.8695 13.259 13.3002 11.7532L12.3388 11.4782C11.8804 13.0807 11.6202 14.9356 11.6202 16.9081H12.6202ZM13.3002 11.7532C13.7335 10.2385 14.3439 9.00488 15.0484 8.16072C15.7538 7.31558 16.5134 6.90332 17.2621 6.90332V5.90332C16.1157 5.90332 15.0999 6.53835 14.2807 7.51997C13.4606 8.50255 12.7973 9.87517 12.3388 11.4782L13.3002 11.7532ZM17.2621 6.90332C18.0109 6.90332 18.7705 7.31558 19.4758 8.16072C20.1804 9.00488 20.7908 10.2385 21.2241 11.7532L22.1855 11.4782C21.727 9.87517 21.0636 8.50255 20.2436 7.51997C19.4243 6.53835 18.4086 5.90332 17.2621 5.90332V6.90332ZM21.2241 11.7532C21.6548 13.259 21.9041 15.0207 21.9041 16.9081H22.9041C22.9041 14.9356 22.6439 13.0807 22.1855 11.4782L21.2241 11.7532ZM24.9128 9.79571C24.0241 10.3473 22.8916 10.8079 21.585 11.1303L21.8245 12.1012C23.2108 11.7592 24.445 11.263 25.4401 10.6454L24.9128 9.79571ZM21.585 11.1303C20.282 11.4517 18.8155 11.6332 17.2621 11.6332V12.6332C18.8918 12.6332 20.439 12.443 21.8245 12.1012L21.585 11.1303ZM17.2621 6.90332C20.2877 6.90332 22.9944 8.3137 24.7874 10.5346L25.5655 9.90646C23.594 7.46444 20.6076 5.90332 17.2621 5.90332V6.90332ZM24.7874 10.5346C26.1841 12.2647 27.0243 14.4846 27.0243 16.9081H28.0243C28.0243 14.25 27.102 11.8097 25.5655 9.90646L24.7874 10.5346ZM17.2621 11.6332C15.7088 11.6332 14.2422 11.4517 12.9393 11.1303L12.6997 12.1012C14.0853 12.443 15.6325 12.6332 17.2621 12.6332V11.6332ZM12.9393 11.1303C11.6326 10.8079 10.5002 10.3473 9.6115 9.79571L9.08417 10.6454C10.0793 11.263 11.3135 11.7592 12.6997 12.1012L12.9393 11.1303ZM7.5 16.9081C7.5 14.4846 8.34014 12.2647 9.73688 10.5346L8.9588 9.90646C7.42227 11.8097 6.5 14.25 6.5 16.9081H7.5ZM9.73688 10.5346C11.5299 8.3137 14.2365 6.90332 17.2621 6.90332V5.90332C13.9167 5.90332 10.9303 7.46444 8.9588 9.90646L9.73688 10.5346ZM9.72552 23.2674C8.33559 21.5394 7.5 19.325 7.5 16.9081H6.5C6.5 19.5589 7.41727 21.9932 8.94631 23.8942L9.72552 23.2674ZM21.9041 16.9081C21.9041 17.491 21.8803 18.0623 21.8346 18.6179L22.8313 18.6998C22.8792 18.1167 22.9041 17.5182 22.9041 16.9081H21.9041ZM27.0243 16.9081C27.0243 17.967 26.8639 18.9866 26.5671 19.9432L27.5222 20.2395C27.8485 19.1879 28.0243 18.0685 28.0243 16.9081H27.0243ZM16.7621 6.40332V12.1332H17.7621V6.40332H16.7621ZM16.7621 12.1332V16.9081H17.7621V12.1332H16.7621ZM16.7621 16.9081V19.9322H17.7621V16.9081H16.7621ZM9.60029 24.0052C10.4893 23.4514 11.6238 22.9887 12.9335 22.6651L12.6936 21.6943C11.304 22.0377 10.0674 22.5361 9.07155 23.1564L9.60029 24.0052ZM13.2945 22.0428C12.8673 20.5415 12.6202 18.787 12.6202 16.9081H11.6202C11.6202 18.8718 11.8781 20.719 12.3327 22.3165L13.2945 22.0428ZM15.7077 26.3086C14.7326 25.5326 13.8626 24.0394 13.2945 22.0428L12.3327 22.3165C12.9283 24.4098 13.8783 26.1308 15.0849 27.0911L15.7077 26.3086ZM15.4887 26.7482C13.1848 26.315 11.1607 25.0517 9.72552 23.2674L8.94631 23.8942C10.5241 25.8557 12.7553 27.2518 15.3039 27.731L15.4887 26.7482ZM14.8963 26.6999V27.2396H15.8963V26.6999H14.8963ZM23.158 20.1648L31.8385 23.1267L32.1615 22.1803L23.4809 19.2184L23.158 20.1648ZM23.158 19.2184L14.4774 22.1803L14.8004 23.1267L23.4809 20.1648L23.158 19.2184ZM28.0804 27.5676C28.0804 28.1429 27.6599 28.766 26.7561 29.2737C25.868 29.7726 24.6075 30.0969 23.1879 30.0969V31.0969C24.7465 31.0969 26.1822 30.7431 27.2459 30.1455C28.2937 29.5569 29.0804 28.6653 29.0804 27.5676H28.0804ZM23.1879 30.0969C21.7683 30.0969 20.5078 29.7726 19.6198 29.2737C18.7159 28.766 18.2955 28.1429 18.2955 27.5676H17.2955C17.2955 28.6653 18.0822 29.5569 19.13 30.1455C20.1936 30.7431 21.6293 31.0969 23.1879 31.0969V30.0969ZM28.0804 25.4135C28.0804 25.9888 27.6599 26.6118 26.7561 27.1196C25.868 27.6184 24.6075 27.9427 23.1879 27.9427V28.9427C24.7465 28.9427 26.1822 28.5889 27.2459 27.9914C28.2937 27.4028 29.0804 26.5112 29.0804 25.4135H28.0804ZM23.1879 27.9427C21.7683 27.9427 20.5078 27.6184 19.6198 27.1196C18.7159 26.6118 18.2955 25.9888 18.2955 25.4135H17.2955C17.2955 26.5112 18.0822 27.4028 19.13 27.9914C20.1936 28.5889 21.6293 28.9427 23.1879 28.9427V27.9427ZM28.0804 25.4135V27.5676H29.0804V25.4135H28.0804ZM17.2955 25.4135V27.5676H18.2955V25.4135H17.2955ZM28.4124 23.4024L23.1515 25.2791L23.4874 26.221L28.7484 24.3443L28.4124 23.4024ZM29.0804 25.4135V23.8734H28.0804V25.4135H29.0804ZM14.4709 23.1245L17.6275 24.2505L17.9634 23.3086L14.8069 22.1826L14.4709 23.1245ZM17.6275 24.2505L23.1515 26.221L23.4874 25.2791L17.9634 23.3086L17.6275 24.2505ZM18.2955 25.4135V23.7795H17.2955V25.4135H18.2955ZM31.819 22.1874L29.9119 22.9279L30.2739 23.8601L32.181 23.1196L31.819 22.1874ZM29.9418 22.9174L28.4293 23.3967L28.7315 24.35L30.244 23.8706L29.9418 22.9174ZM23.2651 23.1506L30.0386 23.891L30.1472 22.897L23.3738 22.1565L23.2651 23.1506ZM30.5929 28.3081V23.394H29.5929V28.3081H30.5929ZM30.3163 29.0486V30.4622H31.3163V29.0486H30.3163ZM30.8163 29.9622H29.3695V30.9622H30.8163V29.9622ZM29.8695 30.4622V29.0486H28.8695V30.4622H29.8695ZM30.0929 28.8081C30.2053 28.8081 30.3163 28.9047 30.3163 29.0486H31.3163C31.3163 28.3746 30.7795 27.8081 30.0929 27.8081V28.8081ZM30.0929 27.8081C29.4063 27.8081 28.8695 28.3746 28.8695 29.0486H29.8695C29.8695 28.9047 29.9805 28.8081 30.0929 28.8081V27.8081Z" fill="white"/>
</svg>
