<svg width="38" height="38" viewBox="0 0 38 38" fill="none" xmlns="http://www.w3.org/2000/svg">
<rect width="38" height="38" rx="14" fill="#45B36B"/>
<mask id="path-2-inside-1_182_398" fill="white">
<path fill-rule="evenodd" clip-rule="evenodd" d="M14.6613 28.5644H17.2847C20.0653 28.5644 22.3195 26.2312 22.3195 23.353C22.3195 20.4748 20.0653 18.1416 17.2847 18.1416H11.0347C9.88319 18.1416 8.82194 18.5417 7.97369 19.215C6.77371 20.1676 6.00001 21.6667 6.00001 23.353C6.00001 25.4915 7.24446 27.3292 9.02469 28.1325C9.02447 28.1332 9.02425 28.1339 9.02403 28.1346L8.2392 30.6902C7.96365 31.5875 8.9645 32.3358 9.74715 31.8176L14.6613 28.5644Z"/>
</mask>
<path fill-rule="evenodd" clip-rule="evenodd" d="M14.6613 28.5644H17.2847C20.0653 28.5644 22.3195 26.2312 22.3195 23.353C22.3195 20.4748 20.0653 18.1416 17.2847 18.1416H11.0347C9.88319 18.1416 8.82194 18.5417 7.97369 19.215C6.77371 20.1676 6.00001 21.6667 6.00001 23.353C6.00001 25.4915 7.24446 27.3292 9.02469 28.1325C9.02447 28.1332 9.02425 28.1339 9.02403 28.1346L8.2392 30.6902C7.96365 31.5875 8.9645 32.3358 9.74715 31.8176L14.6613 28.5644Z" fill="#45B36B"/>
<path d="M14.6613 28.5644V27.5644H14.3602L14.1092 27.7306L14.6613 28.5644ZM7.97369 19.215L7.35197 18.4318L7.97369 19.215ZM9.02469 28.1325L9.97988 28.4285L10.2414 27.5844L9.43598 27.221L9.02469 28.1325ZM9.02403 28.1346L9.97997 28.4282L9.98003 28.428L9.02403 28.1346ZM8.2392 30.6902L9.19514 30.9838V30.9838L8.2392 30.6902ZM9.74715 31.8176L9.19514 30.9838L9.19514 30.9838L9.74715 31.8176ZM17.2847 27.5644H14.6613V29.5644H17.2847V27.5644ZM21.3195 23.353C21.3195 25.7117 19.4808 27.5644 17.2847 27.5644V29.5644C20.6499 29.5644 23.3195 26.7506 23.3195 23.353H21.3195ZM17.2847 19.1416C19.4808 19.1416 21.3195 20.9943 21.3195 23.353H23.3195C23.3195 19.9553 20.6498 17.1416 17.2847 17.1416V19.1416ZM11.0347 19.1416H17.2847V17.1416H11.0347V19.1416ZM8.59541 19.9983C9.27562 19.4584 10.1199 19.1416 11.0347 19.1416V17.1416C9.64645 17.1416 8.36826 17.6251 7.35197 18.4318L8.59541 19.9983ZM7.00001 23.353C7.00001 21.9771 7.63026 20.7644 8.59541 19.9983L7.35197 18.4318C5.91716 19.5707 5.00001 21.3564 5.00001 23.353H7.00001ZM9.43598 27.221C8.01483 26.5797 7.00001 25.0992 7.00001 23.353H5.00001C5.00001 25.8839 6.4741 28.0787 8.6134 29.044L9.43598 27.221ZM8.0695 27.8365C8.069 27.8381 8.06851 27.8397 8.06803 27.8412L9.98003 28.428L9.97988 28.4285L8.0695 27.8365ZM8.0681 27.841L7.28326 30.3967L9.19514 30.9838L9.97997 28.4282L8.0681 27.841ZM7.28326 30.3967C6.73216 32.1912 8.73386 33.6877 10.2992 32.6515L9.19514 30.9838L9.19514 30.9838L7.28326 30.3967ZM10.2992 32.6515L15.2133 29.3982L14.1092 27.7306L9.19514 30.9838L10.2992 32.6515Z" fill="white" mask="url(#path-2-inside-1_182_398)"/>
<path d="M10.3115 24.5512C10.7754 24.5512 11.1507 24.1628 11.1507 23.6826C11.1507 23.2023 10.7754 22.814 10.3115 22.814C9.8475 22.814 9.47229 23.2023 9.47229 23.6826C9.47229 24.1628 9.8475 24.5512 10.3115 24.5512Z" fill="white"/>
<path d="M14.3334 24.5512C14.7974 24.5512 15.1726 24.1628 15.1726 23.6826C15.1726 23.2023 14.7974 22.814 14.3334 22.814C13.8694 22.814 13.4942 23.2023 13.4942 23.6826C13.4942 24.1628 13.8694 24.5512 14.3334 24.5512Z" fill="white"/>
<path d="M18.3553 24.5512C18.8193 24.5512 19.1945 24.1628 19.1945 23.6826C19.1945 23.2023 18.8193 22.814 18.3553 22.814C17.8914 22.814 17.5162 23.2023 17.5162 23.6826C17.5162 24.1628 17.8914 24.5512 18.3553 24.5512Z" fill="white"/>
<g filter="url(#filter0_d_182_398)">
<mask id="path-5-inside-2_182_398" fill="white">
<path fill-rule="evenodd" clip-rule="evenodd" d="M20.4675 22.095H18.0614C13.893 22.095 10.5139 18.7159 10.5139 14.5475C10.5139 10.3791 13.893 6.9999 18.0614 6.9999H23.4524C27.6208 6.9999 31 10.3791 31 14.5475C31 17.4128 29.4034 19.9051 27.0512 21.1834L28.1485 23.541C28.5372 24.3761 27.6857 25.2481 26.8416 24.8794L20.4675 22.095Z"/>
</mask>
<path fill-rule="evenodd" clip-rule="evenodd" d="M20.4675 22.095H18.0614C13.893 22.095 10.5139 18.7159 10.5139 14.5475C10.5139 10.3791 13.893 6.9999 18.0614 6.9999H23.4524C27.6208 6.9999 31 10.3791 31 14.5475C31 17.4128 29.4034 19.9051 27.0512 21.1834L28.1485 23.541C28.5372 24.3761 27.6857 25.2481 26.8416 24.8794L20.4675 22.095Z" fill="#45B36B"/>
<path d="M20.4675 22.095L20.8678 21.1786L20.6764 21.095H20.4675V22.095ZM27.0512 21.1834L26.5737 20.3048L25.7481 20.7535L26.1446 21.6054L27.0512 21.1834ZM28.1485 23.541L29.0551 23.119L28.1485 23.541ZM26.8416 24.8794L26.4413 25.7957L26.8416 24.8794ZM20.4675 21.095H18.0614V23.095H20.4675V21.095ZM18.0614 21.095C14.4453 21.095 11.5139 18.1636 11.5139 14.5475L9.51388 14.5475C9.51388 19.2682 13.3407 23.095 18.0614 23.095V21.095ZM11.5139 14.5475C11.5139 10.9313 14.4453 7.9999 18.0614 7.9999V5.9999C13.3408 5.9999 9.51388 9.82678 9.51388 14.5475L11.5139 14.5475ZM18.0614 7.9999H23.4524L23.4524 5.9999H18.0614V7.9999ZM23.4524 7.9999C27.0686 7.9999 30 10.9313 30 14.5475H32C32 9.82678 28.1731 5.9999 23.4524 5.9999L23.4524 7.9999ZM30 14.5475C30 17.0318 28.6168 19.1945 26.5737 20.3048L27.5287 22.0621C30.1899 20.6158 32 17.7938 32 14.5475H30ZM26.1446 21.6054L27.2419 23.963L29.0551 23.119L27.9579 20.7615L26.1446 21.6054ZM27.2419 23.963L27.2419 23.963L26.4413 25.7957C28.1296 26.5332 29.8325 24.7893 29.0551 23.119L27.2419 23.963ZM27.2419 23.963L20.8678 21.1786L20.0672 23.0114L26.4413 25.7957L27.2419 23.963Z" fill="white" mask="url(#path-5-inside-2_182_398)"/>
</g>
<path d="M14.1505 12.6323H15.0591L14.7322 14.2094H16.1562L16.4831 12.6323H17.3917L16.5551 16.7041H15.6464L15.9899 15.0353H14.566L14.2225 16.7041H13.3138L14.1505 12.6323Z" fill="white"/>
<path d="M18.5215 16.7615C18.2703 16.7615 18.0524 16.708 17.8677 16.6009C17.6867 16.4939 17.5464 16.3447 17.4466 16.1536C17.3506 15.9586 17.3026 15.7368 17.3026 15.4883C17.3026 15.2322 17.3506 14.9932 17.4466 14.7714C17.5427 14.5497 17.6757 14.3547 17.8456 14.1865C18.0155 14.0144 18.2131 13.8806 18.4384 13.785C18.6674 13.6856 18.913 13.6359 19.1753 13.6359C19.3969 13.6359 19.5872 13.6703 19.746 13.7391C19.9085 13.8041 20.0322 13.9016 20.1172 14.0316C20.2059 14.1578 20.2502 14.3126 20.2502 14.4962C20.2502 14.8211 20.1043 15.0697 19.8125 15.2417C19.5244 15.4099 19.094 15.4941 18.5215 15.4941C18.4107 15.4941 18.2888 15.4921 18.1558 15.4883C18.0266 15.4807 17.8917 15.4692 17.7514 15.4539L17.8622 14.8919C17.9804 14.9033 18.093 14.9129 18.2002 14.9206C18.3073 14.9244 18.4144 14.9263 18.5215 14.9263C18.7394 14.9263 18.9112 14.9148 19.0368 14.8919C19.1661 14.8651 19.2584 14.825 19.3138 14.7714C19.3692 14.7179 19.3969 14.6529 19.3969 14.5765C19.3969 14.5153 19.3803 14.4656 19.3471 14.4273C19.3175 14.3853 19.275 14.3528 19.2196 14.3298C19.1679 14.3069 19.1051 14.2954 19.0312 14.2954C18.9094 14.2954 18.7967 14.3279 18.6933 14.3929C18.5898 14.4579 18.4994 14.5478 18.4218 14.6625C18.3479 14.7772 18.2888 14.9091 18.2445 15.0582C18.2039 15.2035 18.1835 15.3602 18.1835 15.5285C18.1835 15.647 18.2002 15.7502 18.2334 15.8382C18.2666 15.9223 18.3202 15.9873 18.3941 16.0331C18.4716 16.079 18.5677 16.102 18.6822 16.102C18.8152 16.102 18.9371 16.0695 19.0479 16.0045C19.1624 15.9395 19.2547 15.8496 19.3249 15.7349L20.023 15.9643C19.9233 16.1211 19.7922 16.2606 19.6296 16.383C19.4671 16.5015 19.2898 16.5952 19.0977 16.664C18.9094 16.729 18.7173 16.7615 18.5215 16.7615Z" fill="white"/>
<path d="M21.0237 16.7558C20.8169 16.7558 20.6581 16.708 20.5472 16.6124C20.4401 16.513 20.3866 16.3734 20.3866 16.1937C20.3866 16.1555 20.3884 16.1173 20.3921 16.079C20.3958 16.037 20.4032 15.9949 20.4143 15.9529L21.1179 12.5176H22.0044L21.3617 15.6317C21.358 15.6508 21.3543 15.6718 21.3506 15.6948C21.3506 15.7139 21.3506 15.733 21.3506 15.7521C21.3506 15.9012 21.4208 15.9758 21.5612 15.9758C21.6018 15.9758 21.648 15.9701 21.6997 15.9586C21.7551 15.9433 21.8068 15.9223 21.8548 15.8955L21.8271 16.5837C21.7089 16.6372 21.5759 16.6793 21.4282 16.7099C21.2805 16.7405 21.1456 16.7558 21.0237 16.7558Z" fill="white"/>
<path d="M22.8309 16.7558C22.6241 16.7558 22.4652 16.708 22.3544 16.6124C22.2473 16.513 22.1938 16.3734 22.1938 16.1937C22.1938 16.1555 22.1956 16.1173 22.1993 16.079C22.203 16.037 22.2104 15.9949 22.2215 15.9529L22.9251 12.5176H23.8116L23.1689 15.6317C23.1652 15.6508 23.1615 15.6718 23.1578 15.6948C23.1578 15.7139 23.1578 15.733 23.1578 15.7521C23.1578 15.9012 23.228 15.9758 23.3684 15.9758C23.409 15.9758 23.4552 15.9701 23.5069 15.9586C23.5623 15.9433 23.614 15.9223 23.662 15.8955L23.6343 16.5837C23.5161 16.6372 23.3831 16.6793 23.2354 16.7099C23.0876 16.7405 22.9528 16.7558 22.8309 16.7558Z" fill="white"/>
<path d="M25.2315 16.7615C24.9397 16.7615 24.7014 16.7041 24.5167 16.5894C24.332 16.4709 24.1954 16.3161 24.1067 16.1249C24.0218 15.9299 23.9793 15.7158 23.9793 15.4826C23.9793 15.2379 24.0218 15.0047 24.1067 14.7829C24.1954 14.5612 24.3191 14.3643 24.4779 14.1922C24.6368 14.0202 24.8252 13.8844 25.0431 13.785C25.2647 13.6856 25.5122 13.6359 25.7855 13.6359C26.081 13.6359 26.3193 13.6933 26.5003 13.808C26.6849 13.9227 26.8198 14.0775 26.9047 14.2725C26.9934 14.4637 27.0377 14.6778 27.0377 14.9148C27.0377 15.1557 26.9934 15.387 26.9047 15.6088C26.8198 15.8305 26.6979 16.0293 26.539 16.2052C26.3802 16.3772 26.19 16.513 25.9684 16.6124C25.7504 16.7118 25.5048 16.7615 25.2315 16.7615ZM25.3589 15.9873C25.4586 15.9873 25.5528 15.9643 25.6415 15.9184C25.7338 15.8687 25.8151 15.7999 25.8853 15.712C25.9554 15.624 26.0108 15.5208 26.0515 15.4023C26.0921 15.2838 26.1124 15.1576 26.1124 15.0238C26.1124 14.8976 26.0939 14.7906 26.057 14.7026C26.0238 14.6109 25.9739 14.5401 25.9074 14.4904C25.8409 14.4407 25.7578 14.4159 25.6581 14.4159C25.5621 14.4159 25.4679 14.4407 25.3755 14.4904C25.2869 14.5363 25.2056 14.6032 25.1317 14.6912C25.0616 14.7791 25.0061 14.8823 24.9655 15.0008C24.9249 15.1194 24.9046 15.2474 24.9046 15.3851C24.9046 15.5036 24.9212 15.6088 24.9544 15.7005C24.9914 15.7923 25.0431 15.863 25.1096 15.9127C25.1798 15.9624 25.2629 15.9873 25.3589 15.9873Z" fill="white"/>
<path d="M27.5852 15.0869L28.0894 12.5921H28.9759L28.4717 15.0869H27.5852ZM27.2472 16.7041L27.4467 15.7521H28.3332L28.1337 16.7041H27.2472Z" fill="white"/>
<defs>
<filter id="filter0_d_182_398" x="9.51385" y="7" width="21.4861" height="18.9663" filterUnits="userSpaceOnUse" color-interpolation-filters="sRGB">
<feFlood flood-opacity="0" result="BackgroundImageFix"/>
<feColorMatrix in="SourceAlpha" type="matrix" values="0 0 0 0 0 0 0 0 0 0 0 0 0 0 0 0 0 0 127 0" result="hardAlpha"/>
<feOffset dx="-1" dy="1"/>
<feComposite in2="hardAlpha" operator="out"/>
<feColorMatrix type="matrix" values="0 0 0 0 0.270588 0 0 0 0 0.701961 0 0 0 0 0.419608 0 0 0 1 0"/>
<feBlend mode="normal" in2="BackgroundImageFix" result="effect1_dropShadow_182_398"/>
<feBlend mode="normal" in="SourceGraphic" in2="effect1_dropShadow_182_398" result="shape"/>
</filter>
</defs>
</svg>
