<svg width="38" height="38" viewBox="0 0 38 38" fill="none" xmlns="http://www.w3.org/2000/svg">
<rect width="38" height="38" rx="14" fill="#9757D7"/>
<path d="M18.2677 21.5617C18.102 21.4374 17.867 21.471 17.7427 21.6367C17.6184 21.8023 17.652 22.0374 17.8177 22.1617L18.2677 21.5617ZM20.1134 22.1617C20.2791 22.0374 20.3127 21.8023 20.1884 21.6367C20.0642 21.471 19.8291 21.4374 19.6634 21.5617L20.1134 22.1617ZM11.8134 14.6595L11.7846 14.2856L11.4384 14.3123V14.6595H11.8134ZM21.9167 11.0834L22.2606 10.9339L22.0495 10.4484L21.6615 10.8086L21.9167 11.0834ZM26.104 15.0417L26.479 15.0395L26.4774 14.7709L26.2226 14.686L26.104 15.0417ZM11.8134 33.1667L11.4427 33.1097C11.4261 33.2178 11.4575 33.3279 11.5287 33.4109C11.6 33.494 11.7039 33.5417 11.8134 33.5417V33.1667ZM12.3902 29.4204L12.7609 29.4774L12.7622 29.4676L12.3902 29.4204ZM13.1427 28.2851L13.3613 28.5898L13.3613 28.5898L13.1427 28.2851ZM13.5437 28.058L13.694 28.4016H13.694L13.5437 28.058ZM15.5048 27.2912L15.3727 26.9402H15.3727L15.5048 27.2912ZM16.6767 30.5556L16.3443 30.7292C16.3995 30.8348 16.5015 30.9079 16.6192 30.9262C16.7369 30.9445 16.8563 30.9057 16.9408 30.8219L16.6767 30.5556ZM26.1178 33.1667V33.5417C26.2272 33.5417 26.3312 33.494 26.4024 33.4109C26.4736 33.3279 26.5051 33.2178 26.4884 33.1097L26.1178 33.1667ZM25.541 29.4204L25.1688 29.4676L25.1703 29.4774L25.541 29.4204ZM24.7884 28.2851L24.5698 28.5898H24.5698L24.7884 28.2851ZM24.3874 28.058L24.2371 28.4016L24.3874 28.058ZM22.4263 27.2912L22.5584 26.9402H22.5584L22.4263 27.2912ZM21.2544 30.5556L20.9903 30.8219C21.0749 30.9057 21.1942 30.9445 21.3119 30.9262C21.4296 30.9079 21.5316 30.8348 21.5868 30.7292L21.2544 30.5556ZM17.7302 29.5924C17.6089 29.4246 17.3745 29.3868 17.2066 29.5081C17.0388 29.6295 17.001 29.8639 17.1223 30.0317L17.7302 29.5924ZM20.8182 30.0181C20.932 29.8451 20.884 29.6126 20.7109 29.4988C20.5379 29.385 20.3054 29.433 20.1915 29.606L20.8182 30.0181ZM17.8239 33.1667L17.4536 33.1074L17.384 33.5417H17.8239V33.1667ZM20.173 33.1667V33.5417H20.6123L20.5434 33.1079L20.173 33.1667ZM11.8134 17.3334H12.1884C12.1884 17.1263 12.0205 16.9584 11.8134 16.9584V17.3334ZM9.9038 20.9744L9.69977 21.289H9.69977L9.9038 20.9744ZM9.79167 17.7291L9.56645 17.4293H9.56645L9.79167 17.7291ZM27.8879 20.9744L28.0919 21.289L27.8879 20.9744ZM28 17.7291L28.2252 17.4293V17.4293L28 17.7291ZM26.104 20.8537L25.73 20.8263V20.8263L26.104 20.8537ZM10.25 17.4721L10.3882 17.8207H10.3882L10.25 17.4721ZM17.8177 22.1617C18.084 22.3614 18.4268 22.5391 18.8306 22.5728C19.2437 22.6072 19.6793 22.4872 20.1134 22.1617L19.6634 21.5617C19.3593 21.7898 19.1028 21.8429 18.8929 21.8254C18.6738 21.8071 18.4628 21.708 18.2677 21.5617L17.8177 22.1617ZM16.8891 25.1781C14.293 25.1781 12.1884 23.0735 12.1884 20.4774H11.4384C11.4384 23.4877 13.8787 25.9281 16.8891 25.9281V25.1781ZM12.1884 20.4774V14.6595H11.4384V20.4774H12.1884ZM11.8421 15.0334C13.1162 14.9354 15.0229 14.6368 16.9416 14.0582C18.8531 13.4817 20.8182 12.6152 22.1718 11.3582L21.6615 10.8086C20.4312 11.9511 18.5942 12.7765 16.725 13.3401C14.8629 13.9017 13.0099 14.1914 11.7846 14.2856L11.8421 15.0334ZM21.5728 11.2329C21.7891 11.7306 22.3833 12.595 23.1556 13.4099C23.9283 14.2253 24.9302 15.0457 25.9854 15.3975L26.2226 14.686C25.3399 14.3917 24.4403 13.6753 23.7 12.894C22.9592 12.1124 22.4287 11.3207 22.2606 10.9339L21.5728 11.2329ZM12.7622 29.4676C12.7815 29.3153 12.9274 28.9011 13.3613 28.5898L12.9241 27.9804C12.3081 28.4224 12.0617 29.0301 12.0181 29.3731L12.7622 29.4676ZM13.3613 28.5898C13.4569 28.5212 13.5671 28.4571 13.694 28.4016L13.3935 27.7145C13.218 27.7912 13.0621 27.8814 12.9241 27.9804L13.3613 28.5898ZM13.694 28.4016C14.0309 28.2542 14.7717 27.9678 15.6369 27.6421L15.3727 26.9402C14.5127 27.264 13.752 27.5576 13.3935 27.7145L13.694 28.4016ZM15.1374 27.3663C15.3048 28.1847 15.7014 29.4983 16.3443 30.7292L17.0091 30.382C16.4036 29.2228 16.0279 27.9773 15.8722 27.216L15.1374 27.3663ZM25.913 29.3731C25.8694 29.0301 25.6231 28.4224 25.007 27.9804L24.5698 28.5898C25.0037 28.9011 25.1496 29.3153 25.169 29.4676L25.913 29.3731ZM25.007 27.9804C24.869 27.8814 24.7131 27.7912 24.5377 27.7145L24.2371 28.4016C24.364 28.4571 24.4742 28.5212 24.5698 28.5898L25.007 27.9804ZM24.5377 27.7145C24.1791 27.5576 23.4184 27.264 22.5584 26.9402L22.2942 27.6421C23.1594 27.9678 23.9002 28.2542 24.2371 28.4016L24.5377 27.7145ZM22.0589 27.216C21.9032 27.9773 21.5275 29.2228 20.922 30.382L21.5868 30.7292C22.2297 29.4983 22.6264 28.1847 22.7937 27.3663L22.0589 27.216ZM20.9556 26.9374V26.6049H20.2056V26.9374H20.9556ZM16.9756 26.6049V26.9374H17.7255V26.6049H16.9756ZM16.9756 26.9374C16.9756 27.932 17.7048 28.7556 18.6579 28.9037L18.7731 28.1626C18.1797 28.0704 17.7255 27.5566 17.7255 26.9374H16.9756ZM19.2733 28.9037C20.2263 28.7556 20.9556 27.932 20.9556 26.9374H20.2056C20.2056 27.5566 19.7514 28.0704 19.158 28.1626L19.2733 28.9037ZM19.1581 28.1626C19.0955 28.1723 19.0313 28.1774 18.9656 28.1774V28.9274C19.07 28.9274 19.1728 28.9193 19.2733 28.9037L19.1581 28.1626ZM15.6369 27.6421C16.2297 27.419 16.8758 27.1793 17.4801 26.9568L17.221 26.253C16.6155 26.4759 15.9677 26.7162 15.3727 26.9402L15.6369 27.6421ZM18.9656 28.1774C18.8999 28.1774 18.8356 28.1723 18.7731 28.1626L18.6579 28.9037C18.7584 28.9193 18.8611 28.9274 18.9656 28.9274V28.1774ZM22.5584 26.9402C21.9634 26.7162 21.3156 26.4759 20.7101 26.253L20.451 26.9568C21.0554 27.1793 21.7014 27.419 22.2942 27.6421L22.5584 26.9402ZM17.3505 25.9281H20.5806V25.1781H17.3505V25.9281ZM20.2056 25.5531V26.6049H20.9556V25.5531H20.2056ZM17.7255 26.6049V25.5531H16.9756V26.6049H17.7255ZM21.042 25.1781H20.5806V25.9281H21.042V25.1781ZM17.3505 25.1781H16.8891V25.9281H17.3505V25.1781ZM17.1223 30.0317L17.8877 31.0908L18.4956 30.6515L17.7302 29.5924L17.1223 30.0317ZM20.1915 29.606L19.495 30.6651L20.1217 31.0772L20.8182 30.0181L20.1915 29.606ZM18.1917 31.2461H19.8083V30.4961H18.1917V31.2461ZM17.8214 30.8118L17.4536 33.1074L18.1942 33.2261L18.5619 30.9304L17.8214 30.8118ZM17.8239 33.5417H20.173V32.7917H17.8239V33.5417ZM19.438 30.93L19.8027 33.2256L20.5434 33.1079L20.1787 30.8123L19.438 30.93ZM12.184 33.2238L12.7608 29.4774L12.0195 29.3633L11.4427 33.1097L12.184 33.2238ZM26.1178 32.7917H11.8134V33.5417H26.1178V32.7917ZM16.9408 30.8219L18.9796 28.7994L18.4514 28.2669L16.4126 30.2894L16.9408 30.8219ZM26.4884 33.1097L25.9116 29.3633L25.1703 29.4774L25.7471 33.2238L26.4884 33.1097ZM21.5185 30.2894L19.4798 28.2669L18.9516 28.7994L20.9903 30.8219L21.5185 30.2894ZM11.4384 17.3334V20.4774H12.1884V17.3334H11.4384ZM10.9792 17.7084H11.8134V16.9584H10.9792V17.7084ZM9.69977 21.289C10.0683 21.528 10.5081 21.6668 10.9792 21.6668V20.9168C10.6572 20.9168 10.3585 20.8223 10.1078 20.6597L9.69977 21.289ZM10.1078 20.6598C9.66598 20.3732 9.375 19.8768 9.375 19.3126H8.625C8.625 20.1415 9.05373 20.8701 9.69977 21.289L10.1078 20.6598ZM9.56645 17.4293C8.99549 17.8581 8.625 18.5421 8.625 19.3126H9.375C9.375 18.788 9.6264 18.3222 10.0169 18.0289L9.56645 17.4293ZM27.6838 20.6597C27.4331 20.8223 27.1344 20.9167 26.8125 20.9167V21.6667C27.2836 21.6667 27.7234 21.528 28.0919 21.289L27.6838 20.6597ZM28.4167 19.3126C28.4167 19.8768 28.1257 20.3732 27.6838 20.6597L28.0919 21.289C28.7379 20.8701 29.1667 20.1415 29.1667 19.3126H28.4167ZM26.8125 17.7084C27.1741 17.7084 27.5067 17.8276 27.7748 18.0289L28.2252 17.4293C27.8317 17.1337 27.342 16.9584 26.8125 16.9584V17.7084ZM11.4384 20.4774C11.4384 20.696 11.2209 20.9168 10.9792 20.9168V21.6668C11.6119 21.6668 12.1884 21.1331 12.1884 20.4774H11.4384ZM25.7428 20.4774C25.7428 20.5948 25.7385 20.7112 25.73 20.8263L26.478 20.8812C26.4878 20.7478 26.4928 20.6131 26.4928 20.4774H25.7428ZM25.7686 21.0215C25.9596 21.4033 26.3549 21.6667 26.8125 21.6667V20.9167C26.6498 20.9167 26.5082 20.8236 26.4394 20.686L25.7686 21.0215ZM26.8125 16.9584H26.1178V17.7084H26.8125V16.9584ZM25.7428 17.3334V20.4774H26.4928V17.3334H25.7428ZM25.729 15.044L25.7428 17.3357L26.4928 17.3312L26.479 15.0395L25.729 15.044ZM25.73 20.8263C25.5517 23.2593 23.5208 25.1781 21.042 25.1781V25.9281C23.9166 25.9281 26.2712 23.7031 26.478 20.8812L25.73 20.8263ZM19.2083 6.04175C23.9719 6.04175 27.7917 9.65708 27.7917 14.0669H28.5417C28.5417 9.19814 24.3399 5.29175 19.2083 5.29175V6.04175ZM19.2083 5.29175C14.0768 5.29175 9.875 9.19814 9.875 14.0669H10.625C10.625 9.65708 14.4448 6.04175 19.2083 6.04175V5.29175ZM10.9792 16.9584C10.6736 16.9584 10.3807 17.0168 10.1118 17.1235L10.3882 17.8207C10.5706 17.7483 10.7698 17.7084 10.9792 17.7084V16.9584ZM10.1118 17.1235C9.91554 17.2013 9.7324 17.3046 9.56645 17.4293L10.0169 18.0289C10.1302 17.9439 10.2549 17.8735 10.3882 17.8207L10.1118 17.1235ZM10.625 17.4721V14.0669H9.875V17.4721H10.625ZM29.1667 19.3126C29.1667 18.6355 28.8804 18.0248 28.4233 17.5958L27.91 18.1426C28.2224 18.4358 28.4167 18.8512 28.4167 19.3126H29.1667ZM28.4233 17.5958C28.3604 17.5368 28.2943 17.4812 28.2252 17.4293L27.7748 18.0289C27.8219 18.0644 27.8671 18.1023 27.91 18.1426L28.4233 17.5958ZM28.5417 17.8692V14.0669H27.7917V17.8692H28.5417Z" fill="white"/>
<ellipse cx="15.875" cy="18.3751" rx="1.04167" ry="1.45833" fill="white"/>
<ellipse cx="22.125" cy="18.3751" rx="1.04167" ry="1.45833" fill="white"/>
</svg>
