<svg width="33" height="32" viewBox="0 0 33 32" fill="none" xmlns="http://www.w3.org/2000/svg">
<path d="M21.185 27.929C24.8723 27.929 27.8614 26.2498 27.8614 24.1785V22.2717L21.3479 24.5952L14.5087 22.1555V24.1785C14.5087 26.2498 17.4978 27.929 21.185 27.929Z" fill="#FFA51F" fill-opacity="0.2"/>
<path d="M21.185 30.596C24.8723 30.596 27.8614 28.9169 27.8614 26.8455V24.1785C27.8614 26.2498 24.8723 27.929 21.185 27.929C17.4978 27.929 14.5087 26.2498 14.5087 24.1785V26.8455C14.5087 28.9169 17.4978 30.596 21.185 30.596Z" fill="#FFA51F" fill-opacity="0.2"/>
<path d="M32.0952 20.7614L21.3479 17.0942L10.6005 20.7614L14.5087 22.1555L21.3479 24.5952L27.8614 22.2717L29.7341 21.6782L32.0952 20.7614Z" fill="#FFA51F" fill-opacity="0.2"/>
<path d="M30.6297 30.4293V28.6791C30.6297 28.1728 30.2287 27.7623 29.7341 27.7623C29.2394 27.7623 28.8385 28.1728 28.8385 28.6791V30.4293H30.6297Z" fill="#FFA51F" fill-opacity="0.2"/>
<path d="M8.34061 20.1747C6.66959 20.5876 5.20177 21.1826 4.03494 21.9095C5.9001 24.2283 8.53437 25.8746 11.5383 26.4394V25.7711C10.1877 24.6962 9.06101 22.7066 8.34061 20.1747Z" fill="#FFA51F" fill-opacity="0.2"/>
<path d="M7.48218 13.648H1.14285C1.14285 16.7852 2.22796 19.663 4.03494 21.9095C5.20177 21.1826 6.66959 20.5876 8.34061 20.1747C7.79477 18.2564 7.48218 16.0267 7.48218 13.648Z" fill="#FFA51F" fill-opacity="0.2"/>
<path d="M1.14285 13.648H7.48218C7.48218 11.2586 7.79757 9.01969 8.34794 7.09555C6.68092 6.6843 5.21584 6.09192 4.0497 5.36817C2.23387 7.61735 1.14285 10.5022 1.14285 13.648Z" fill="#FFA51F" fill-opacity="0.2"/>
<path d="M7.48218 13.648H13.8484V7.73621C11.8779 7.73621 10.0123 7.50615 8.34794 7.09555C7.79757 9.01969 7.48218 11.2586 7.48218 13.648Z" fill="#FFA51F" fill-opacity="0.2"/>
<path d="M13.8484 13.648H20.2145C20.2145 11.2586 19.8992 9.01969 19.3488 7.09555C17.6844 7.50615 15.8188 7.73621 13.8484 7.73621V13.648Z" fill="#FFA51F" fill-opacity="0.2"/>
<path d="M20.2145 13.648H26.5539C26.5539 10.5022 25.4629 7.61735 23.647 5.36817C22.4809 6.09192 21.0158 6.6843 19.3488 7.09555C19.8992 9.01969 20.2145 11.2586 20.2145 13.648Z" fill="#FFA51F" fill-opacity="0.2"/>
<path d="M13.8484 0.642088C16.1947 0.642088 18.2446 3.23539 19.3488 7.09555C21.0158 6.6843 22.4809 6.09192 23.647 5.36817C21.3166 2.48159 17.7923 0.642088 13.8484 0.642088Z" fill="#FFA51F" fill-opacity="0.2"/>
<path d="M19.3488 7.09555C18.2446 3.23539 16.1947 0.642088 13.8484 0.642088V7.73621C15.8188 7.73621 17.6844 7.50615 19.3488 7.09555Z" fill="#FFA51F" fill-opacity="0.2"/>
<path d="M13.8484 0.642088C11.502 0.642088 9.45209 3.23539 8.34794 7.09555C10.0123 7.50615 11.8779 7.73621 13.8484 7.73621V0.642088Z" fill="#FFA51F" fill-opacity="0.2"/>
<path d="M8.34794 7.09555C9.45209 3.23539 11.502 0.642088 13.8484 0.642088C9.90439 0.642088 6.38013 2.48159 4.0497 5.36817C5.21584 6.09192 6.68092 6.6843 8.34794 7.09555Z" fill="#FFA51F" fill-opacity="0.2"/>
<path d="M23.647 5.36817L24.0361 5.05409V5.05409L23.647 5.36817ZM4.0497 5.36817L3.66066 5.05409L4.0497 5.36817ZM8.34061 20.1747L8.82152 20.0379L8.34061 20.1747ZM11.5383 25.7711H12.0383C12.0383 25.6188 11.9688 25.4748 11.8496 25.3799L11.5383 25.7711ZM11.5383 26.4394L11.4459 26.9308C11.5921 26.9583 11.743 26.9192 11.8575 26.8243C11.972 26.7293 12.0383 26.5882 12.0383 26.4394H11.5383ZM21.3479 17.0942L21.5093 16.621L21.3479 16.5659L21.1864 16.621L21.3479 17.0942ZM32.0952 20.7614L32.2762 21.2275C32.4721 21.1514 32.5995 20.9611 32.5951 20.751C32.5908 20.5409 32.4555 20.356 32.2567 20.2882L32.0952 20.7614ZM21.3479 24.5952L21.1799 25.0662L21.3479 25.1261L21.5159 25.0662L21.3479 24.5952ZM10.6005 20.7614L10.4391 20.2882C10.2378 20.3568 10.102 20.5453 10.1005 20.7579C10.0991 20.9706 10.2322 21.1609 10.4325 21.2323L10.6005 20.7614ZM27.8614 22.2717L27.7104 21.7951C27.7047 21.7969 27.699 21.7987 27.6934 21.8008L27.8614 22.2717ZM30.6297 30.4293V30.9293H31.1297V30.4293H30.6297ZM28.8385 30.4293H28.3385V30.9293H28.8385V30.4293ZM1.14285 14.148H7.48218V13.148H1.14285V14.148ZM7.48218 14.148H13.8484V13.148H7.48218V14.148ZM13.8484 14.148H20.2145V13.148H13.8484V14.148ZM20.2145 14.148H26.5539V13.148H20.2145V14.148ZM7.98218 13.648C7.98218 11.3011 8.29212 9.10884 8.82866 7.23306L7.86722 6.95805C7.30302 8.93054 6.98218 11.216 6.98218 13.648H7.98218ZM8.82866 7.23306C9.36811 5.34713 10.1302 3.80327 11.0162 2.74163C11.903 1.67903 12.874 1.14209 13.8484 1.14209V0.142088C12.4763 0.142088 11.2492 0.901799 10.2484 2.10088C9.24689 3.30094 8.43192 4.98381 7.86722 6.95805L8.82866 7.23306ZM13.8484 1.14209C14.8227 1.14209 15.7937 1.67903 16.6805 2.74163C17.5666 3.80327 18.3286 5.34713 18.8681 7.23306L19.8295 6.95805C19.2648 4.98382 18.4498 3.30094 17.4483 2.10088C16.4475 0.901799 15.2204 0.142088 13.8484 0.142088V1.14209ZM18.8681 7.23306C19.4046 9.10884 19.7145 11.3011 19.7145 13.648H20.7145C20.7145 11.216 20.3937 8.93054 19.8295 6.95805L18.8681 7.23306ZM23.3834 4.94334C22.2704 5.63407 20.8562 6.20868 19.229 6.61011L19.4685 7.581C21.1754 7.15992 22.6913 6.54978 23.9107 5.793L23.3834 4.94334ZM19.229 6.61011C17.606 7.01052 15.7806 7.23621 13.8484 7.23621V8.23621C15.8569 8.23621 17.7629 8.00179 19.4685 7.581L19.229 6.61011ZM13.8484 1.14209C17.6324 1.14209 21.0168 2.90622 23.258 5.68226L24.0361 5.05409C21.6164 2.05696 17.9523 0.142088 13.8484 0.142088V1.14209ZM23.258 5.68226C25.0039 7.84486 26.0539 10.6195 26.0539 13.648H27.0539C27.0539 10.3849 25.9218 7.38985 24.0361 5.05409L23.258 5.68226ZM13.8484 7.23621C11.9161 7.23621 10.0908 7.01052 8.4677 6.61011L8.22818 7.581C9.93383 8.00179 11.8398 8.23621 13.8484 8.23621V7.23621ZM8.4677 6.61011C6.84052 6.20868 5.4263 5.63407 4.31337 4.94334L3.78604 5.793C5.00539 6.54978 6.52133 7.15992 8.22818 7.581L8.4677 6.61011ZM1.64285 13.648C1.64285 10.6195 2.69281 7.84486 4.43874 5.68226L3.66066 5.05409C1.77494 7.38985 0.642853 10.3849 0.642853 13.648H1.64285ZM4.43874 5.68226C6.67992 2.90622 10.0643 1.14209 13.8484 1.14209V0.142088C9.74447 0.142088 6.08034 2.05696 3.66066 5.05409L4.43874 5.68226ZM4.42455 21.5961C2.68712 19.436 1.64285 16.6682 1.64285 13.648H0.642853C0.642853 16.9022 1.7688 19.8899 3.64533 22.2228L4.42455 21.5961ZM19.7145 13.648C19.7145 14.373 19.685 15.0835 19.6282 15.7747L20.6248 15.8566C20.6839 15.1379 20.7145 14.4001 20.7145 13.648H19.7145ZM26.0539 13.648C26.0539 14.9712 25.8535 16.2454 25.4825 17.441L26.4376 17.7373C26.838 16.4467 27.0539 15.0726 27.0539 13.648H26.0539ZM13.3484 0.642088V7.73621H14.3484V0.642088H13.3484ZM13.3484 7.73621V13.648H14.3484V7.73621H13.3484ZM13.3484 13.648V17.3921H14.3484V13.648H13.3484ZM4.29931 22.3339C5.41272 21.6403 6.82947 21.0632 8.46056 20.6601L8.22067 19.6893C6.50971 20.1121 4.99081 20.7249 3.77057 21.4851L4.29931 22.3339ZM8.82152 20.0379C8.28937 18.1676 7.98218 15.9844 7.98218 13.648H6.98218C6.98218 16.0691 7.30017 18.3451 7.8597 20.3116L8.82152 20.0379ZM11.8496 25.3799C10.6148 24.3971 9.52817 22.5214 8.82152 20.0379L7.8597 20.3116C8.59385 22.8917 9.76059 24.9953 11.2269 26.1624L11.8496 25.3799ZM11.6307 25.948C8.7491 25.4062 6.21841 23.8263 4.42455 21.5961L3.64533 22.2228C5.58179 24.6303 8.31963 26.343 11.4459 26.9308L11.6307 25.948ZM11.0383 25.7711V26.4394H12.0383V25.7711H11.0383ZM21.1864 17.5674L31.9338 21.2346L32.2567 20.2882L21.5093 16.621L21.1864 17.5674ZM21.1864 16.621L10.4391 20.2882L10.762 21.2346L21.5093 17.5674L21.1864 16.621ZM27.3614 26.8455C27.3614 27.62 26.7973 28.4233 25.6611 29.0616C24.5407 29.691 22.9592 30.096 21.185 30.096V31.096C23.0982 31.096 24.8549 30.6615 26.1508 29.9334C27.431 29.2143 28.3614 28.1424 28.3614 26.8455H27.3614ZM21.185 30.096C19.4109 30.096 17.8294 29.691 16.709 29.0616C15.5728 28.4233 15.0087 27.62 15.0087 26.8455H14.0087C14.0087 28.1424 14.9391 29.2143 16.2192 29.9334C17.5152 30.6615 19.2719 31.096 21.185 31.096V30.096ZM27.3614 24.1785C27.3614 24.953 26.7973 25.7563 25.6611 26.3946C24.5407 27.024 22.9592 27.429 21.185 27.429V28.429C23.0982 28.429 24.8549 27.9944 26.1508 27.2664C27.431 26.5473 28.3614 25.4754 28.3614 24.1785H27.3614ZM21.185 27.429C19.4109 27.429 17.8294 27.024 16.709 26.3946C15.5728 25.7563 15.0087 24.953 15.0087 24.1785H14.0087C14.0087 25.4754 14.9391 26.5473 16.2192 27.2664C17.5152 27.9944 19.2719 28.429 21.185 28.429V27.429ZM27.3614 24.1785V26.8455H28.3614V24.1785H27.3614ZM14.0087 24.1785V26.8455H15.0087V24.1785H14.0087ZM27.6934 21.8008L21.1799 24.1243L21.5159 25.0662L28.0294 22.7426L27.6934 21.8008ZM28.3614 24.1785V22.2717H27.3614V24.1785H28.3614ZM10.4325 21.2323L14.3407 22.6264L14.6766 21.6846L10.7685 20.2905L10.4325 21.2323ZM14.3407 22.6264L21.1799 25.0662L21.5159 24.1243L14.6766 21.6846L14.3407 22.6264ZM15.0087 24.1785V22.1555H14.0087V24.1785H15.0087ZM31.9143 20.2953L29.5531 21.2121L29.915 22.1443L32.2762 21.2275L31.9143 20.2953ZM29.583 21.2015L27.7104 21.7951L28.0125 22.7483L29.8851 22.1548L29.583 21.2015ZM21.2935 21.2584L29.6797 22.1752L29.7884 21.1811L21.4022 20.2643L21.2935 21.2584ZM30.2341 27.7623V21.6782H29.2341V27.7623H30.2341ZM30.1297 28.6791V30.4293H31.1297V28.6791H30.1297ZM30.6297 29.9293H28.8385V30.9293H30.6297V29.9293ZM29.3385 30.4293V28.6791H28.3385V30.4293H29.3385ZM29.7341 28.2623C29.9416 28.2623 30.1297 28.4378 30.1297 28.6791H31.1297C31.1297 27.9077 30.5158 27.2623 29.7341 27.2623V28.2623ZM29.7341 27.2623C28.9523 27.2623 28.3385 27.9077 28.3385 28.6791H29.3385C29.3385 28.4378 29.5265 28.2623 29.7341 28.2623V27.2623Z" fill="#FFA51F"/>
</svg>
