<svg width="38" height="38" viewBox="0 0 38 38" fill="none" xmlns="http://www.w3.org/2000/svg">
<g clip-path="url(#clip0_697_1315)">
<path d="M7.0991 15.6405C6.90194 16.5156 6.79789 17.426 6.79789 18.3607C6.79789 23.9262 10.4869 28.6301 15.5531 30.1605L15.6014 30.175C16.7171 30.507 17.8989 30.6852 19.1224 30.6852C20.2438 30.6852 21.3302 30.5355 22.3627 30.2548C22.4152 30.2406 22.4675 30.226 22.5197 30.211C27.6741 28.7361 31.4468 23.989 31.4468 18.3607C31.4468 17.5048 31.3596 16.6693 31.1935 15.8625C27.8375 16.3067 25.7287 12.7537 23.8967 11.0327C18.5228 16.4954 10.4592 16.3992 7.0991 15.6405Z" fill="#FF00F4" fill-opacity="0.2"/>
<path d="M7.0991 15.6405C10.4592 16.3992 18.5228 16.4954 23.8967 11.0327C25.7287 12.7537 27.8375 16.3067 31.1935 15.8625C30.7678 13.795 29.8243 11.9165 28.5045 10.3686L29.711 9.6216C30.6687 8.94947 31.881 8.45059 32.9063 8.10304C33.7319 7.8232 34.1358 6.86919 33.7055 6.1111L31.537 2.29137C31.2616 1.80619 30.7051 1.52872 30.1872 1.73628C28.0714 2.5843 26.3487 5.03591 25.5097 6.71663L25.0625 7.55966C23.3008 6.58872 21.2761 6.03627 19.1224 6.03627C16.9686 6.03627 14.9439 6.58872 13.1822 7.55966L12.5994 6.82556C12.5419 6.75314 12.4926 6.67528 12.4503 6.59303C11.5902 4.91794 9.89992 2.56373 7.83545 1.73628C7.31759 1.52872 6.76106 1.80619 6.48563 2.29137L4.31721 6.1111C3.88686 6.86919 4.29078 7.8232 5.11637 8.10304C6.14166 8.45059 7.354 8.94947 8.31169 9.6216L9.74022 10.3686C8.46782 11.8609 7.54517 13.6604 7.0991 15.6405Z" fill="#FF00F4" fill-opacity="0.2"/>
<path d="M25.2277 36.746C25.2391 36.2666 25.2066 35.6273 25.1006 34.9295C24.955 33.9699 24.6705 32.8998 24.1708 31.9827L21.312 34.4854L21.1506 35.3735L19.0515 36.746H25.2277Z" fill="#FF00F4" fill-opacity="0.2"/>
<path d="M12.9498 34.9295C12.872 35.6151 12.8557 36.2526 12.8752 36.746H19.0515L16.912 35.3735L16.6294 34.4854L13.7305 31.9827C13.296 32.878 13.0605 33.9526 12.9498 34.9295Z" fill="#FF00F4" fill-opacity="0.2"/>
<path d="M13.7305 31.9827L16.6294 34.4854L16.912 35.3735L19.0515 36.746L21.1506 35.3735L21.312 34.4854L24.1708 31.9827C23.7711 31.2493 23.2338 30.6138 22.5197 30.211C22.4675 30.226 22.4152 30.2406 22.3627 30.2548C21.8472 31.6346 20.5179 34.1494 18.9961 33.9607C17.4459 33.7684 16.0953 31.3747 15.6014 30.175L15.5531 30.1605C14.727 30.4533 14.1403 31.1382 13.7305 31.9827Z" fill="#FF00F4" fill-opacity="0.2"/>
<path d="M15.6014 30.175C16.0953 31.3747 17.4459 33.7684 18.9961 33.9607C20.5179 34.1494 21.8472 31.6346 22.3627 30.2548C21.3302 30.5355 20.2438 30.6852 19.1224 30.6852C17.8989 30.6852 16.7171 30.507 15.6014 30.175Z" fill="#FF00F4" fill-opacity="0.2"/>
<path d="M13.7305 31.9827C13.296 32.878 13.0605 33.9526 12.9498 34.9295C12.872 35.6151 12.8557 36.2526 12.8752 36.746H19.0515M13.7305 31.9827L16.6294 34.4854L16.912 35.3735L19.0515 36.746M13.7305 31.9827C14.1403 31.1382 14.727 30.4533 15.5531 30.1605M19.0515 36.746H25.2277C25.2391 36.2666 25.2066 35.6273 25.1006 34.9295C24.955 33.9699 24.6705 32.8998 24.1708 31.9827M19.0515 36.746L21.1506 35.3735L21.312 34.4854L24.1708 31.9827M24.1708 31.9827C23.7711 31.2493 23.2338 30.6138 22.5197 30.211M7.0991 15.6405C6.90194 16.5156 6.79789 17.426 6.79789 18.3607C6.79789 23.9262 10.4869 28.6301 15.5531 30.1605M7.0991 15.6405C10.4592 16.3992 18.5228 16.4954 23.8967 11.0327C25.7287 12.7537 27.8375 16.3067 31.1935 15.8625M7.0991 15.6405C7.54517 13.6605 8.46782 11.8609 9.74022 10.3686L8.31169 9.6216C7.354 8.94947 6.14166 8.45059 5.11637 8.10304C4.29078 7.8232 3.88686 6.86919 4.31721 6.1111L6.48563 2.29137C6.76106 1.80619 7.31759 1.52872 7.83545 1.73628C9.89992 2.56373 11.5902 4.91794 12.4503 6.59303C12.4926 6.67528 12.5419 6.75314 12.5994 6.82556L13.1822 7.55966C14.9439 6.58872 16.9686 6.03627 19.1224 6.03627C21.2761 6.03627 23.3008 6.58872 25.0625 7.55966L25.5097 6.71663C26.3487 5.03591 28.0714 2.5843 30.1872 1.73628C30.7051 1.52872 31.2616 1.80619 31.537 2.29137L33.7055 6.1111C34.1358 6.86919 33.7319 7.8232 32.9063 8.10304C31.881 8.45059 30.6687 8.94947 29.711 9.6216L28.5045 10.3686C29.8243 11.9165 30.7678 13.795 31.1935 15.8625M31.1935 15.8625C31.3596 16.6693 31.4468 17.5048 31.4468 18.3607C31.4468 23.989 27.6741 28.7361 22.5197 30.211M15.6014 30.175C16.0953 31.3747 17.4459 33.7684 18.9961 33.9607C20.5179 34.1494 21.8472 31.6346 22.3627 30.2548M15.6014 30.175C15.5853 30.1702 15.5692 30.1653 15.5531 30.1605M15.6014 30.175C16.7171 30.507 17.8989 30.6852 19.1224 30.6852C20.2438 30.6852 21.3302 30.5355 22.3627 30.2548M15.6014 30.175L15.5531 30.1605M22.5197 30.211C22.4675 30.226 22.4152 30.2406 22.3627 30.2548" stroke="#FF00F4" stroke-width="0.75" stroke-linejoin="round"/>
<path d="M14.348 19.9153V21.3032M23.8412 19.9153V21.3032M17.7344 21.0811C17.9565 21.5253 19.5664 22.1359 20.3992 21.0811" stroke="#FF00F4" stroke-width="0.75" stroke-linecap="round" stroke-linejoin="round"/>
</g>
<defs>
<clipPath id="clip0_697_1315">
<rect width="37.1429" height="37.1429" fill="white" transform="translate(0.428572 0.42857)"/>
</clipPath>
</defs>
</svg>
