<svg width="38" height="38" viewBox="0 0 38 38" fill="none" xmlns="http://www.w3.org/2000/svg">
<path d="M22.0995 18.401C22.0995 19.1109 22.4974 19.6864 22.9882 19.6864C23.479 19.6864 23.8769 19.1109 23.8769 18.401C23.8769 18.2795 23.8652 18.1619 23.8434 18.0504H23.8769C24.1573 18.0504 24.3847 17.8411 24.3847 17.583C24.3847 17.3248 24.1573 17.1156 23.8769 17.1156H23.1151C23.0943 17.1156 23.0737 17.1167 23.0535 17.119C23.0319 17.1167 23.0101 17.1156 22.9882 17.1156C22.4974 17.1156 22.0995 17.6911 22.0995 18.401Z" fill="#3772FF" fill-opacity="0.2"/>
<path d="M15.8477 18.401C15.8477 19.1109 15.4498 19.6864 14.959 19.6864C14.4682 19.6864 14.0703 19.1109 14.0703 18.401C14.0703 18.2795 14.082 18.1619 14.1038 18.0504H14.0703C13.7899 18.0504 13.5625 17.8411 13.5625 17.583C13.5625 17.3248 13.7899 17.1156 14.0703 17.1156H14.8321C14.8529 17.1156 14.8735 17.1167 14.8937 17.119C14.9153 17.1167 14.9371 17.1156 14.959 17.1156C15.4498 17.1156 15.8477 17.6911 15.8477 18.401Z" fill="#3772FF" fill-opacity="0.2"/>
<path d="M31.8116 27.2609V14.8304C31.8116 7.73121 26.0565 1.97619 18.9574 1.97619C11.8582 1.97619 6.10318 7.73121 6.10318 14.8304V27.2609C6.10318 30.2168 7.93698 32.7444 10.529 33.768L10.8164 31.9013C10.8553 31.5947 11.0981 30.962 11.7481 30.4957C11.8927 30.392 12.0575 30.2965 12.2446 30.2146C12.6751 30.0263 13.6047 29.6672 14.6726 29.2652C15.4079 28.9884 16.2089 28.6912 16.9578 28.4155V27.1133H16.3865C12.9158 27.1133 10.1023 24.2997 10.1023 20.829V15.8302C13.1968 15.5921 20.1857 14.3733 23.3849 11.4026C23.861 12.4976 25.413 14.8875 27.8125 15.6873V20.829C27.8125 24.2997 24.9989 27.1133 21.5282 27.1133H20.9569V28.4155C21.7058 28.6912 22.5068 28.9884 23.2421 29.2652C24.3101 29.6672 25.2396 30.0263 25.6701 30.2146C25.8573 30.2965 26.022 30.392 26.1666 30.4957C26.8166 30.962 27.0594 31.5947 27.0984 31.9013L27.3858 33.768C29.9778 32.7444 31.8116 30.2168 31.8116 27.2609Z" fill="#3772FF" fill-opacity="0.2"/>
<path fill-rule="evenodd" clip-rule="evenodd" d="M10.1023 20.829C10.1023 24.2997 12.9158 27.1133 16.3865 27.1133H16.9578H20.9569H21.5282C24.9989 27.1133 27.8125 24.2997 27.8125 20.829V15.6873C25.413 14.8875 23.861 12.4976 23.3849 11.4026C20.1857 14.3733 13.1968 15.5921 10.1023 15.8302V20.829ZM14.959 19.6864C15.4498 19.6864 15.8477 19.1109 15.8477 18.401C15.8477 17.6911 15.4498 17.1156 14.959 17.1156C14.9371 17.1156 14.9153 17.1167 14.8937 17.119C14.8735 17.1167 14.8529 17.1156 14.8321 17.1156H14.0703C13.7899 17.1156 13.5625 17.3248 13.5625 17.583C13.5625 17.8411 13.7899 18.0504 14.0703 18.0504H14.1038C14.082 18.1619 14.0703 18.2795 14.0703 18.401C14.0703 19.1109 14.4682 19.6864 14.959 19.6864ZM22.9882 19.6864C22.4974 19.6864 22.0995 19.1109 22.0995 18.401C22.0995 17.6911 22.4974 17.1156 22.9882 17.1156C23.0101 17.1156 23.0319 17.1167 23.0535 17.119C23.0737 17.1167 23.0943 17.1156 23.1151 17.1156H23.8769C24.1573 17.1156 24.3847 17.3248 24.3847 17.583C24.3847 17.8411 24.1573 18.0504 23.8769 18.0504H23.8434C23.8652 18.1619 23.8769 18.2795 23.8769 18.401C23.8769 19.1109 23.479 19.6864 22.9882 19.6864Z" fill="#3772FF" fill-opacity="0.2"/>
<path d="M27.8125 36.5397L27.3858 33.768L27.0984 31.9013C27.0594 31.5947 26.8166 30.962 26.1666 30.4957C25.4359 30.9523 24.2056 32.2249 23.7796 34.2545C23.6373 34.9325 23.5847 35.695 23.6706 36.5397H27.8125Z" fill="#3772FF" fill-opacity="0.2"/>
<path d="M26.1666 30.4957C26.022 30.392 25.8573 30.2965 25.6701 30.2146C25.2396 30.0263 24.3101 29.6672 23.2421 29.2652C23.0421 30.243 22.564 31.8272 21.7912 33.3069C21.6223 33.6302 21.4393 33.9486 21.2421 34.2545C21.022 34.5959 20.7842 34.9218 20.5284 35.222C20.0644 35.7665 19.5412 36.2263 18.9574 36.5397H23.6706C23.5847 35.695 23.6373 34.9325 23.7796 34.2545C24.2056 32.2249 25.4359 30.9523 26.1666 30.4957Z" fill="#3772FF" fill-opacity="0.2"/>
<path d="M17.3863 35.222C17.8503 35.7665 18.3735 36.2263 18.9574 36.5397C19.5412 36.2263 20.0644 35.7665 20.5284 35.222L19.6366 34.2545L18.9574 33.5177L18.2782 34.2545L17.3863 35.222Z" fill="#3772FF" fill-opacity="0.2"/>
<path d="M21.7912 33.3069L20.3743 31.9013L18.9574 33.5177L19.6366 34.2545L20.5284 35.222C20.7842 34.9218 21.022 34.5959 21.2421 34.2545C21.4393 33.9486 21.6223 33.6302 21.7912 33.3069Z" fill="#3772FF" fill-opacity="0.2"/>
<path d="M17.5405 31.9013L16.1236 33.3069C16.2925 33.6302 16.4754 33.9486 16.6726 34.2545C16.8927 34.5959 17.1305 34.9218 17.3863 35.222L18.2782 34.2545L18.9574 33.5177L17.5405 31.9013Z" fill="#3772FF" fill-opacity="0.2"/>
<path d="M17.5405 31.9013L18.9574 33.5177L20.3743 31.9013L19.267 30.8029C19.1661 30.8186 19.0627 30.8267 18.9574 30.8267C18.8521 30.8267 18.7486 30.8186 18.6477 30.8029L17.5405 31.9013Z" fill="#3772FF" fill-opacity="0.2"/>
<path d="M20.9569 28.8272V28.4155V27.1133H16.9578V28.4155V28.8272C16.9578 29.8262 17.6904 30.6541 18.6477 30.8029C18.7486 30.8186 18.8521 30.8267 18.9574 30.8267C19.0627 30.8267 19.1661 30.8186 19.267 30.8029C20.2243 30.6541 20.9569 29.8262 20.9569 28.8272Z" fill="#3772FF" fill-opacity="0.2"/>
<path d="M14.6726 29.2652C14.8726 30.243 15.3507 31.8272 16.1236 33.3069L17.5405 31.9013L18.6477 30.8029C17.6904 30.6541 16.9578 29.8262 16.9578 28.8272V28.4155C16.2089 28.6912 15.4079 28.9884 14.6726 29.2652Z" fill="#3772FF" fill-opacity="0.2"/>
<path d="M21.7912 33.3069C22.564 31.8272 23.0421 30.243 23.2421 29.2652C22.5068 28.9884 21.7058 28.6912 20.9569 28.4155V28.8272C20.9569 29.8262 20.2243 30.6541 19.267 30.8029L20.3743 31.9013L21.7912 33.3069Z" fill="#3772FF" fill-opacity="0.2"/>
<path d="M12.2446 30.2146C12.0575 30.2965 11.8927 30.392 11.7481 30.4957C12.4788 30.9523 13.7092 32.2249 14.1352 34.2545C14.2775 34.9325 14.33 35.695 14.2442 36.5397H18.9574C18.3735 36.2263 17.8503 35.7665 17.3863 35.222C17.1305 34.9218 16.8927 34.5959 16.6726 34.2545C16.4754 33.9486 16.2925 33.6302 16.1236 33.3069C15.3507 31.8272 14.8726 30.243 14.6726 29.2652C13.6047 29.6672 12.6751 30.0263 12.2446 30.2146Z" fill="#3772FF" fill-opacity="0.2"/>
<path d="M10.529 33.768L10.1023 36.5397H14.2442C14.33 35.695 14.2775 34.9325 14.1352 34.2545C13.7092 32.2249 12.4788 30.9523 11.7481 30.4957C11.0981 30.962 10.8553 31.5947 10.8164 31.9013L10.529 33.768Z" fill="#3772FF" fill-opacity="0.2"/>
<path d="M18.0398 22.2429C17.8741 22.1186 17.639 22.1522 17.5148 22.3179C17.3905 22.4836 17.4241 22.7186 17.5898 22.8429L18.0398 22.2429ZM20.325 22.8429C20.4907 22.7186 20.5242 22.4836 20.4 22.3179C20.2757 22.1522 20.0407 22.1186 19.875 22.2429L20.325 22.8429ZM14.8937 17.119L14.8522 17.4917C14.879 17.4947 14.9061 17.4948 14.9329 17.4919L14.8937 17.119ZM14.1038 18.0504L14.4718 18.1224C14.4933 18.0124 14.4645 17.8986 14.3933 17.8121C14.322 17.7255 14.2158 17.6754 14.1038 17.6754V18.0504ZM23.0535 17.119L23.0143 17.4919C23.0411 17.4948 23.0682 17.4947 23.095 17.4917L23.0535 17.119ZM23.8434 18.0504V17.6754C23.7314 17.6754 23.6252 17.7255 23.5539 17.8121C23.4827 17.8986 23.4539 18.0124 23.4754 18.1224L23.8434 18.0504ZM23.7796 34.2545L23.4126 34.1775L23.7796 34.2545ZM21.2421 34.2545L21.5573 34.4577L21.2421 34.2545ZM19.6366 34.2545L19.9123 34.0003L19.6366 34.2545ZM18.2782 34.2545L18.0024 34.0003L18.2782 34.2545ZM16.6726 34.2545L16.3574 34.4577L16.6726 34.2545ZM14.1352 34.2545L13.7681 34.3315L14.1352 34.2545ZM10.529 33.768L10.8996 33.8251L10.529 33.768ZM10.1023 15.8302L10.0735 15.4563C9.87812 15.4713 9.72726 15.6342 9.72726 15.8302H10.1023ZM23.3849 11.4026L23.7288 11.2531C23.6803 11.1415 23.5807 11.0604 23.4617 11.0355C23.3426 11.0106 23.2189 11.045 23.1298 11.1278L23.3849 11.4026ZM27.8125 15.6873H28.1875C28.1875 15.5259 28.0842 15.3826 27.9311 15.3316L27.8125 15.6873ZM10.1023 36.5397L9.73162 36.4826C9.71497 36.5908 9.74639 36.7008 9.81763 36.7838C9.88887 36.8669 9.99284 36.9147 10.1023 36.9147V36.5397ZM10.8164 31.9013L11.1871 31.9584L11.1884 31.9485L10.8164 31.9013ZM12.2446 30.2146L12.3949 30.5582H12.3949L12.2446 30.2146ZM14.6726 29.2652L14.5405 28.9142H14.5405L14.6726 29.2652ZM16.1236 33.3069L15.7912 33.4805H15.7912L16.1236 33.3069ZM17.5405 31.9013L17.2764 31.6351L17.5405 31.9013ZM17.3863 35.222L17.1009 35.4652L17.3863 35.222ZM27.8125 36.5397V36.9147C27.9219 36.9147 28.0259 36.8669 28.0971 36.7838C28.1683 36.7008 28.1998 36.5908 28.1831 36.4826L27.8125 36.5397ZM27.0984 31.9013L26.7262 31.9486L26.7277 31.9584L27.0984 31.9013ZM25.6701 30.2146L25.5198 30.5582L25.6701 30.2146ZM23.2421 29.2652L23.3742 28.9142H23.3742L23.2421 29.2652ZM21.7912 33.3069L22.1236 33.4805L21.7912 33.3069ZM20.5284 35.222L20.8139 35.4652L20.5284 35.222ZM17.5898 22.8429C17.911 23.0838 18.3197 23.2945 18.7977 23.3344C19.2849 23.375 19.8029 23.2344 20.325 22.8429L19.875 22.2429C19.4829 22.5369 19.144 22.6106 18.86 22.587C18.5667 22.5625 18.2898 22.4304 18.0398 22.2429L17.5898 22.8429ZM15.4727 18.401C15.4727 18.6894 15.3912 18.9342 15.2789 19.0967C15.1656 19.2606 15.0463 19.3114 14.959 19.3114V20.0614C15.3625 20.0614 15.6876 19.8245 15.8959 19.5232C16.1052 19.2204 16.2227 18.8225 16.2227 18.401H15.4727ZM14.959 19.3114C14.8717 19.3114 14.7524 19.2606 14.6391 19.0967C14.5268 18.9342 14.4453 18.6894 14.4453 18.401H13.6953C13.6953 18.8225 13.8128 19.2204 14.0222 19.5232C14.2305 19.8245 14.5555 20.0614 14.959 20.0614V19.3114ZM14.959 17.4906C15.0463 17.4906 15.1656 17.5414 15.2789 17.7053C15.3912 17.8677 15.4727 18.1125 15.4727 18.401H16.2227C16.2227 17.9795 16.1052 17.5816 15.8959 17.2788C15.6876 16.9775 15.3625 16.7406 14.959 16.7406V17.4906ZM14.0703 17.4906H14.8321V16.7406H14.0703V17.4906ZM14.0703 17.6754C14.0238 17.6754 13.9876 17.6582 13.9652 17.6376C13.9433 17.6175 13.9375 17.5979 13.9375 17.583H13.1875C13.1875 18.0769 13.6126 18.4254 14.0703 18.4254V17.6754ZM14.0703 16.7406C13.6126 16.7406 13.1875 17.0891 13.1875 17.583H13.9375C13.9375 17.568 13.9433 17.5485 13.9652 17.5284C13.9876 17.5078 14.0238 17.4906 14.0703 17.4906V16.7406ZM14.8321 17.4906C14.839 17.4906 14.8458 17.491 14.8522 17.4917L14.9353 16.7463C14.9013 16.7425 14.8668 16.7406 14.8321 16.7406V17.4906ZM14.9329 17.4919C14.9415 17.491 14.9502 17.4906 14.959 17.4906V16.7406C14.9239 16.7406 14.8891 16.7424 14.8546 16.746L14.9329 17.4919ZM14.4453 18.401C14.4453 18.3034 14.4547 18.2099 14.4718 18.1224L13.7357 17.9785C13.7093 18.1138 13.6953 18.2555 13.6953 18.401H14.4453ZM14.1038 17.6754H14.0703V18.4254H14.1038V17.6754ZM21.7245 18.401C21.7245 18.8225 21.842 19.2204 22.0513 19.5232C22.2596 19.8245 22.5847 20.0614 22.9882 20.0614V19.3114C22.9009 19.3114 22.7816 19.2606 22.6683 19.0967C22.556 18.9342 22.4745 18.6894 22.4745 18.401H21.7245ZM22.9882 20.0614C23.3917 20.0614 23.7167 19.8245 23.925 19.5232C24.1344 19.2204 24.2519 18.8225 24.2519 18.401H23.5019C23.5019 18.6894 23.4204 18.9342 23.3081 19.0967C23.1948 19.2606 23.0755 19.3114 22.9882 19.3114V20.0614ZM22.9882 16.7406C22.5847 16.7406 22.2596 16.9775 22.0513 17.2788C21.842 17.5816 21.7245 17.9795 21.7245 18.401H22.4745C22.4745 18.1125 22.556 17.8677 22.6683 17.7053C22.7816 17.5414 22.9009 17.4906 22.9882 17.4906V16.7406ZM23.8769 16.7406H23.1151V17.4906H23.8769V16.7406ZM23.8769 18.4254C24.3346 18.4254 24.7597 18.0769 24.7597 17.583H24.0097C24.0097 17.5979 24.0039 17.6175 23.982 17.6376C23.9596 17.6582 23.9234 17.6754 23.8769 17.6754V18.4254ZM23.8769 17.4906C23.9234 17.4906 23.9596 17.5078 23.982 17.5284C24.0039 17.5485 24.0097 17.568 24.0097 17.583H24.7597C24.7597 17.0891 24.3346 16.7406 23.8769 16.7406V17.4906ZM23.1151 16.7406C23.0804 16.7406 23.0459 16.7425 23.0119 16.7463L23.095 17.4917C23.1014 17.491 23.1082 17.4906 23.1151 17.4906V16.7406ZM23.0926 16.746C23.0581 16.7424 23.0233 16.7406 22.9882 16.7406V17.4906C22.997 17.4906 23.0057 17.491 23.0143 17.4919L23.0926 16.746ZM24.2519 18.401C24.2519 18.2555 24.2379 18.1138 24.2115 17.9785L23.4754 18.1224C23.4925 18.2099 23.5019 18.3034 23.5019 18.401H24.2519ZM23.8434 18.4254H23.8769V17.6754H23.8434V18.4254ZM31.4366 14.8304V27.2609H32.1866V14.8304H31.4366ZM6.47818 27.2609V14.8304H5.72818V27.2609H6.47818ZM10.6667 33.4192C8.21305 32.4502 6.47818 30.0577 6.47818 27.2609H5.72818C5.72818 30.3758 7.66091 33.0385 10.3912 34.1168L10.6667 33.4192ZM31.4366 27.2609C31.4366 30.0577 29.7017 32.4502 27.248 33.4192L27.5235 34.1168C30.2538 33.0385 32.1866 30.3758 32.1866 27.2609H31.4366ZM18.9574 2.35119C25.8494 2.35119 31.4366 7.93831 31.4366 14.8304H32.1866C32.1866 7.5241 26.2636 1.60119 18.9574 1.60119V2.35119ZM18.9574 1.60119C11.6511 1.60119 5.72818 7.5241 5.72818 14.8304H6.47818C6.47818 7.93831 12.0653 2.35119 18.9574 2.35119V1.60119ZM16.3865 26.7383C13.1229 26.7383 10.4773 24.0926 10.4773 20.829H9.72726C9.72726 24.5068 12.7087 27.4883 16.3865 27.4883V26.7383ZM27.4375 20.829C27.4375 24.0926 24.7918 26.7383 21.5282 26.7383V27.4883C25.206 27.4883 28.1875 24.5068 28.1875 20.829H27.4375ZM10.4773 20.829V15.8302H9.72726V20.829H10.4773ZM10.131 16.204C11.6997 16.0834 14.2449 15.7154 16.8049 15.0024C19.3535 14.2925 21.9726 13.2257 23.6401 11.6774L23.1298 11.1278C21.5979 12.5502 19.123 13.5782 16.6037 14.2799C14.0959 14.9784 11.5993 15.3389 10.0735 15.4563L10.131 16.204ZM27.4375 15.6873V20.829H28.1875V15.6873H27.4375ZM23.041 11.5521C23.2949 12.1359 23.8236 13.0413 24.5981 13.9059C25.3727 14.7705 26.4126 15.616 27.6939 16.0431L27.9311 15.3316C26.8129 14.9588 25.8771 14.2095 25.1567 13.4054C24.4364 12.6014 23.9511 11.7642 23.7288 11.2531L23.041 11.5521ZM10.4729 36.5967L10.8996 33.8251L10.1583 33.711L9.73162 36.4826L10.4729 36.5967ZM10.8996 33.8251L11.187 31.9584L10.4457 31.8442L10.1583 33.711L10.8996 33.8251ZM11.1884 31.9485C11.2152 31.7373 11.4078 31.2014 11.9667 30.8004L11.5295 30.191C10.7885 30.7227 10.4954 31.4521 10.4444 31.854L11.1884 31.9485ZM11.9667 30.8004C12.0901 30.7119 12.232 30.6294 12.3949 30.5582L12.0943 29.871C11.8829 29.9635 11.6953 30.0721 11.5295 30.191L11.9667 30.8004ZM18.9574 36.1647H14.2442V36.9147H18.9574V36.1647ZM14.2442 36.1647H10.1023V36.9147H14.2442V36.1647ZM11.5494 30.8137C12.2 31.2202 13.3646 32.409 13.7681 34.3315L14.5022 34.1775C14.0537 32.0408 12.7577 30.6843 11.9468 30.1777L11.5494 30.8137ZM13.7681 34.3315C13.9025 34.9718 13.953 35.6955 13.8711 36.5018L14.6172 36.5776C14.707 35.6944 14.6524 34.8932 14.5022 34.1775L13.7681 34.3315ZM12.3949 30.5582C12.8146 30.3746 13.7342 30.0191 14.8047 29.6161L14.5405 28.9142C13.4751 29.3153 12.5357 29.678 12.0943 29.871L12.3949 30.5582ZM14.3052 29.3403C14.511 30.3467 14.9996 31.965 15.7912 33.4805L16.456 33.1332C15.7018 31.6895 15.2341 30.1394 15.04 29.19L14.3052 29.3403ZM16.3877 33.5731L17.8046 32.1675L17.2764 31.6351L15.8595 33.0406L16.3877 33.5731ZM17.2585 32.1485L18.6754 33.7649L19.2394 33.2705L17.8225 31.6541L17.2585 32.1485ZM15.7912 33.4805C15.9647 33.8127 16.1533 34.141 16.3574 34.4577L16.9878 34.0513C16.7975 33.7561 16.6202 33.4477 16.456 33.1332L15.7912 33.4805ZM16.3574 34.4577C16.5851 34.8109 16.8327 35.1506 17.1009 35.4652L17.6717 34.9788C17.4283 34.6931 17.2003 34.3809 16.9878 34.0513L16.3574 34.4577ZM17.1009 35.4652C17.5864 36.035 18.1446 36.529 18.78 36.8701L19.1347 36.2093C18.6025 35.9236 18.1142 35.4981 17.6717 34.9788L17.1009 35.4652ZM18.6816 33.2635L18.0024 34.0003L18.5539 34.5087L19.2331 33.7719L18.6816 33.2635ZM18.0024 34.0003L17.1106 34.9678L17.662 35.4762L18.5539 34.5087L18.0024 34.0003ZM28.1831 36.4826L27.7564 33.711L27.0151 33.8251L27.4418 36.5967L28.1831 36.4826ZM27.7564 33.711L27.469 31.8442L26.7277 31.9584L27.0151 33.8251L27.7564 33.711ZM27.4704 31.854C27.4193 31.4521 27.1262 30.7227 26.3852 30.191L25.948 30.8004C26.5069 31.2014 26.6995 31.7373 26.7263 31.9485L27.4704 31.854ZM26.3852 30.191C26.2194 30.0721 26.0318 29.9635 25.8204 29.871L25.5198 30.5582C25.6827 30.6294 25.8246 30.7119 25.948 30.8004L26.3852 30.191ZM18.9574 36.9147H23.6706V36.1647H18.9574V36.9147ZM23.6706 36.9147H27.8125V36.1647H23.6706V36.9147ZM25.9679 30.1777C25.1571 30.6843 23.861 32.0408 23.4126 34.1775L24.1466 34.3315C24.5501 32.409 25.7147 31.2202 26.3653 30.8137L25.9679 30.1777ZM23.4126 34.1775C23.2624 34.8932 23.2077 35.6944 23.2975 36.5776L24.0436 36.5018C23.9617 35.6955 24.0122 34.9718 24.1466 34.3315L23.4126 34.1775ZM25.8204 29.871C25.3791 29.678 24.4396 29.3153 23.3742 28.9142L23.11 29.6161C24.1806 30.0191 25.1001 30.3746 25.5198 30.5582L25.8204 29.871ZM22.8747 29.19C22.6806 30.1394 22.2129 31.6895 21.4588 33.1332L22.1236 33.4805C22.9151 31.965 23.4037 30.3467 23.6095 29.3403L22.8747 29.19ZM22.0553 33.0406L20.6384 31.6351L20.1102 32.1675L21.5271 33.5731L22.0553 33.0406ZM20.0923 31.6541L18.6754 33.2705L19.2394 33.7649L20.6563 32.1485L20.0923 31.6541ZM21.4588 33.1332C21.2945 33.4477 21.1172 33.7561 20.9269 34.0513L21.5573 34.4577C21.7614 34.141 21.95 33.8127 22.1236 33.4805L21.4588 33.1332ZM20.9269 34.0513C20.7145 34.3809 20.4865 34.6931 20.243 34.9788L20.8139 35.4652C21.082 35.1506 21.3296 34.8109 21.5573 34.4577L20.9269 34.0513ZM20.243 34.9788C19.8005 35.4981 19.3123 35.9236 18.78 36.2093L19.1347 36.8701C19.7701 36.529 20.3283 36.035 20.8139 35.4652L20.243 34.9788ZM18.6816 33.7719L19.3608 34.5087L19.9123 34.0003L19.2331 33.2635L18.6816 33.7719ZM19.3608 34.5087L20.2527 35.4762L20.8042 34.9678L19.9123 34.0003L19.3608 34.5087ZM21.3319 28.8272V28.4155H20.5819V28.8272H21.3319ZM16.5828 28.4155V28.8272H17.3328V28.4155H16.5828ZM16.5828 28.8272C16.5828 30.0139 17.453 30.9966 18.5901 31.1734L18.7053 30.4323C17.9279 30.3115 17.3328 29.6385 17.3328 28.8272H16.5828ZM19.3246 31.1734C20.4617 30.9966 21.3319 30.0139 21.3319 28.8272H20.5819C20.5819 29.6385 19.9868 30.3115 19.2094 30.4323L19.3246 31.1734ZM20.6384 31.6351L19.5311 30.5366L19.0029 31.0691L20.1102 32.1675L20.6384 31.6351ZM19.2094 30.4323C19.1275 30.4451 19.0433 30.4517 18.9574 30.4517V31.2017C19.082 31.2017 19.2047 31.1921 19.3246 31.1734L19.2094 30.4323ZM17.8046 32.1675L18.9118 31.0691L18.3836 30.5366L17.2764 31.6351L17.8046 32.1675ZM14.8047 29.6161C15.5389 29.3397 16.339 29.0429 17.0874 28.7674L16.8283 28.0636C16.0788 28.3395 15.2769 28.637 14.5405 28.9142L14.8047 29.6161ZM18.9574 30.4517C18.8714 30.4517 18.7873 30.4451 18.7053 30.4323L18.5901 31.1734C18.71 31.1921 18.8327 31.2017 18.9574 31.2017V30.4517ZM23.3742 28.9142C22.6378 28.637 21.8359 28.3395 21.0865 28.0636L20.8273 28.7674C21.5757 29.0429 22.3758 29.3397 23.11 29.6161L23.3742 28.9142ZM16.9578 27.4883H20.9569V26.7383H16.9578V27.4883ZM20.5819 27.1133V28.4155H21.3319V27.1133H20.5819ZM17.3328 28.4155V27.1133H16.5828V28.4155H17.3328ZM21.5282 26.7383H20.9569V27.4883H21.5282V26.7383ZM16.9578 26.7383H16.3865V27.4883H16.9578V26.7383Z" fill="#3772FF"/>
</svg>
