<svg width="38" height="38" viewBox="0 0 38 38" fill="none" xmlns="http://www.w3.org/2000/svg">
<rect width="38" height="38" rx="14" fill="#3772FF"/>
<path d="M21.5035 18.5162C21.5035 19.0896 21.8248 19.5544 22.2212 19.5544C22.6177 19.5544 22.939 19.0896 22.939 18.5162C22.939 18.418 22.9296 18.323 22.912 18.233H22.939C23.1656 18.233 23.3492 18.064 23.3492 17.8555C23.3492 17.647 23.1656 17.478 22.939 17.478H22.3238C22.3069 17.478 22.2903 17.4789 22.274 17.4807C22.2566 17.4789 22.239 17.478 22.2212 17.478C21.8248 17.478 21.5035 17.9428 21.5035 18.5162Z" fill="white"/>
<path d="M16.4539 18.5162C16.4539 19.0896 16.1326 19.5544 15.7361 19.5544C15.3397 19.5544 15.0183 19.0896 15.0183 18.5162C15.0183 18.418 15.0278 18.323 15.0454 18.233H15.0183C14.7918 18.233 14.6082 18.064 14.6082 17.8555C14.6082 17.647 14.7918 17.478 15.0183 17.478H15.6336C15.6505 17.478 15.6671 17.4789 15.6834 17.4807C15.7008 17.4789 15.7184 17.478 15.7361 17.478C16.1326 17.478 16.4539 17.9428 16.4539 18.5162Z" fill="white"/>
<path d="M18.2677 21.5616C18.102 21.4373 17.867 21.4709 17.7427 21.6366C17.6185 21.8023 17.652 22.0373 17.8177 22.1616L18.2677 21.5616ZM20.1134 22.1616C20.2791 22.0373 20.3127 21.8023 20.1884 21.6366C20.0642 21.4709 19.8291 21.4373 19.6634 21.5616L20.1134 22.1616ZM15.6834 17.4807L15.6419 17.8534C15.6687 17.8564 15.6957 17.8565 15.7226 17.8537L15.6834 17.4807ZM15.0454 18.233L15.4134 18.305C15.4349 18.195 15.4061 18.0812 15.3349 17.9947C15.2636 17.9082 15.1574 17.858 15.0454 17.858V18.233ZM22.274 17.4807L22.2348 17.8537C22.2616 17.8565 22.2887 17.8564 22.3155 17.8534L22.274 17.4807ZM22.912 18.233V17.858C22.7999 17.858 22.6938 17.9082 22.6225 17.9947C22.5513 18.0812 22.5225 18.195 22.544 18.305L22.912 18.233ZM22.8604 31.3209L22.4934 31.2439L22.8604 31.3209ZM20.8109 31.3209L21.1261 31.5241L20.8109 31.3209ZM19.5142 31.3209L19.7899 31.0668L19.5142 31.3209ZM18.417 31.3209L18.1413 31.0668L18.417 31.3209ZM17.1202 31.3209L16.805 31.5241L17.1202 31.3209ZM15.0707 31.3209L14.7037 31.398L15.0707 31.3209ZM11.8134 16.4397L11.7846 16.0658C11.5892 16.0809 11.4384 16.2438 11.4384 16.4397H11.8134ZM22.5417 12.8636L22.8856 12.7141C22.8371 12.6026 22.7375 12.5215 22.6184 12.4966C22.4994 12.4717 22.3756 12.5061 22.2865 12.5888L22.5417 12.8636ZM26.1178 16.3244H26.4928C26.4928 16.163 26.3895 16.0197 26.2364 15.9686L26.1178 16.3244ZM11.8134 33.1667L11.4427 33.1096C11.4261 33.2178 11.4575 33.3278 11.5287 33.4108C11.6 33.4939 11.704 33.5417 11.8134 33.5417V33.1667ZM12.3902 29.4203L12.7609 29.4774L12.7622 29.4675L12.3902 29.4203ZM13.5437 28.058L13.694 28.4015H13.694L13.5437 28.058ZM15.5048 27.2911L15.3727 26.9401H15.3727L15.5048 27.2911ZM16.6767 30.5555L16.3443 30.7292L16.3443 30.7292L16.6767 30.5555ZM17.8212 29.4203L17.5571 29.154L17.8212 29.4203ZM17.6966 32.1024L17.4112 32.3456L17.6966 32.1024ZM26.1178 33.1667V33.5417C26.2272 33.5417 26.3312 33.4939 26.4024 33.4108C26.4736 33.3278 26.5051 33.2178 26.4884 33.1096L26.1178 33.1667ZM25.541 29.4203L25.1688 29.4675L25.1704 29.4773L25.541 29.4203ZM24.3874 28.058L24.2371 28.4015H24.2371L24.3874 28.058ZM22.4263 27.2911L22.5584 26.9401H22.5584L22.4263 27.2911ZM21.2544 30.5555L21.5868 30.7292V30.7292L21.2544 30.5555ZM20.11 29.4203L20.3741 29.154L20.11 29.4203ZM20.2345 32.1024L20.5199 32.3456L20.2345 32.1024ZM17.8177 22.1616C18.084 22.3613 18.4268 22.539 18.8306 22.5727C19.2437 22.6071 19.6793 22.4872 20.1134 22.1616L19.6634 21.5616C19.3593 21.7897 19.1028 21.8428 18.8929 21.8253C18.6738 21.807 18.4629 21.7079 18.2677 21.5616L17.8177 22.1616ZM16.0789 18.5162C16.0789 18.7364 16.0166 18.9194 15.9352 19.0371C15.8528 19.1563 15.7763 19.1794 15.7361 19.1794V19.9294C16.0924 19.9294 16.3748 19.7201 16.5521 19.4636C16.7306 19.2055 16.8289 18.8694 16.8289 18.5162H16.0789ZM15.7361 19.1794C15.696 19.1794 15.6194 19.1563 15.537 19.0371C15.4557 18.9194 15.3933 18.7364 15.3933 18.5162H14.6433C14.6433 18.8694 14.7417 19.2055 14.9201 19.4636C15.0975 19.7201 15.3798 19.9294 15.7361 19.9294V19.1794ZM15.7361 17.853C15.7763 17.853 15.8528 17.8761 15.9352 17.9953C16.0166 18.113 16.0789 18.296 16.0789 18.5162H16.8289C16.8289 18.163 16.7306 17.8269 16.5521 17.5688C16.3748 17.3122 16.0924 17.103 15.7361 17.103V17.853ZM15.0183 17.853H15.6336V17.103H15.0183V17.853ZM15.0183 17.858C14.9988 17.858 14.987 17.8509 14.9823 17.8465C14.98 17.8445 14.9803 17.8439 14.9812 17.8459C14.9822 17.8482 14.9832 17.8519 14.9832 17.8555H14.2332C14.2332 18.2998 14.6146 18.608 15.0183 18.608V17.858ZM15.0183 17.103C14.6146 17.103 14.2332 17.4112 14.2332 17.8555H14.9832C14.9832 17.8591 14.9822 17.8628 14.9812 17.8651C14.9803 17.8671 14.98 17.8665 14.9823 17.8645C14.987 17.8601 14.9988 17.853 15.0183 17.853V17.103ZM15.6336 17.853C15.6366 17.853 15.6393 17.8531 15.6419 17.8534L15.725 17.108C15.6948 17.1047 15.6643 17.103 15.6336 17.103V17.853ZM15.7226 17.8537C15.727 17.8532 15.7315 17.853 15.7361 17.853V17.103C15.7053 17.103 15.6746 17.1046 15.6443 17.1078L15.7226 17.8537ZM15.3933 18.5162C15.3933 18.4419 15.4005 18.3711 15.4134 18.305L14.6773 18.1611C14.6551 18.275 14.6433 18.3941 14.6433 18.5162H15.3933ZM15.0454 17.858H15.0183V18.608H15.0454V17.858ZM21.1285 18.5162C21.1285 18.8694 21.2268 19.2055 21.4052 19.4636C21.5826 19.7201 21.865 19.9294 22.2212 19.9294V19.1794C22.1811 19.1794 22.1046 19.1563 22.0222 19.0371C21.9408 18.9194 21.8785 18.7364 21.8785 18.5162H21.1285ZM22.2212 19.9294C22.5775 19.9294 22.8599 19.7201 23.0373 19.4636C23.2157 19.2055 23.314 18.8694 23.314 18.5162H22.564C22.564 18.7364 22.5017 18.9194 22.4203 19.0371C22.3379 19.1563 22.2614 19.1794 22.2212 19.1794V19.9294ZM22.2212 17.103C21.865 17.103 21.5826 17.3122 21.4052 17.5688C21.2268 17.8269 21.1285 18.163 21.1285 18.5162H21.8785C21.8785 18.296 21.9408 18.113 22.0222 17.9953C22.1046 17.8761 22.1811 17.853 22.2212 17.853V17.103ZM22.939 17.103H22.3238V17.853H22.939V17.103ZM22.939 18.608C23.3428 18.608 23.7242 18.2998 23.7242 17.8555H22.9742C22.9742 17.8519 22.9751 17.8482 22.9762 17.8459C22.9771 17.8439 22.9773 17.8445 22.9751 17.8465C22.9704 17.8509 22.9586 17.858 22.939 17.858V18.608ZM22.939 17.853C22.9586 17.853 22.9704 17.8601 22.9751 17.8645C22.9773 17.8665 22.9771 17.8671 22.9762 17.8651C22.9751 17.8628 22.9742 17.8591 22.9742 17.8555H23.7242C23.7242 17.4112 23.3428 17.103 22.939 17.103V17.853ZM22.3238 17.103C22.293 17.103 22.2625 17.1047 22.2324 17.108L22.3155 17.8534C22.318 17.8531 22.3208 17.853 22.3238 17.853V17.103ZM22.3131 17.1078C22.2827 17.1046 22.2521 17.103 22.2212 17.103V17.853C22.2259 17.853 22.2304 17.8532 22.2348 17.8537L22.3131 17.1078ZM23.314 18.5162C23.314 18.3941 23.3023 18.275 23.28 18.1611L22.544 18.305C22.5569 18.3711 22.564 18.4419 22.564 18.5162H23.314ZM22.912 18.608H22.939V17.858H22.912V18.608ZM28.9728 15.6322V25.6722H29.7228V15.6322H28.9728ZM8.95834 25.6722V15.6322H8.20834V25.6722H8.95834ZM12.2958 30.5792C10.3406 29.8071 8.95834 27.9006 8.95834 25.6722H8.20834C8.20834 28.2188 9.78842 30.3954 12.0203 31.2768L12.2958 30.5792ZM28.9728 25.6722C28.9728 27.9006 27.5906 29.8071 25.6354 30.5792L25.9109 31.2768C28.1427 30.3954 29.7228 28.2188 29.7228 25.6722H28.9728ZM18.9656 5.625C24.4924 5.625 28.9728 10.1054 28.9728 15.6322H29.7228C29.7228 9.69118 24.9066 4.875 18.9656 4.875V5.625ZM18.9656 4.875C13.0245 4.875 8.20834 9.69118 8.20834 15.6322H8.95834C8.95834 10.1054 13.4387 5.625 18.9656 5.625V4.875ZM16.8891 25.178C14.293 25.178 12.1884 23.0734 12.1884 20.4773H11.4384C11.4384 23.4876 13.8788 25.928 16.8891 25.928V25.178ZM25.7428 20.4773C25.7428 23.0734 23.6382 25.178 21.042 25.178V25.928C24.0524 25.928 26.4928 23.4876 26.4928 20.4773H25.7428ZM12.1884 20.4773V16.4397H11.4384V20.4773H12.1884ZM11.8421 16.8136C13.1133 16.7159 15.1737 16.418 17.2464 15.8406C19.3077 15.2665 21.437 14.4011 22.7968 13.1384L22.2865 12.5888C21.0623 13.7256 19.0771 14.5522 17.0452 15.1181C15.0246 15.6809 13.0129 15.9714 11.7846 16.0658L11.8421 16.8136ZM25.7428 16.3244V20.4773H26.4928V16.3244H25.7428ZM22.1978 13.0132C22.4058 13.4917 22.837 14.2295 23.4679 14.9336C24.0987 15.6378 24.9486 16.33 25.9992 16.6801L26.2364 15.9686C25.3489 15.6728 24.603 15.0768 24.0265 14.4332C23.4499 13.7896 23.062 13.12 22.8856 12.7141L22.1978 13.0132ZM12.184 33.2237L12.5287 30.9851L11.7874 30.871L11.4427 33.1096L12.184 33.2237ZM12.5287 30.9851L12.7608 29.4773L12.0195 29.3632L11.7874 30.871L12.5287 30.9851ZM12.7622 29.4675C12.7815 29.3152 12.9274 28.901 13.3613 28.5897L12.9241 27.9803C12.3081 28.4223 12.0617 29.03 12.0182 29.373L12.7622 29.4675ZM13.3613 28.5897C13.4569 28.5211 13.5671 28.457 13.694 28.4015L13.3935 27.7144C13.218 27.7911 13.0621 27.8813 12.9241 27.9803L13.3613 28.5897ZM18.9656 32.7917H15.1588V33.5417H18.9656V32.7917ZM15.1588 32.7917H11.8134V33.5417H15.1588V32.7917ZM12.944 28.603C13.4541 28.9217 14.3821 29.8658 14.7037 31.398L15.4377 31.2439C15.0712 29.4976 14.0118 28.3858 13.3414 27.967L12.944 28.603ZM14.7037 31.398C14.8107 31.9079 14.8511 32.485 14.7857 33.1288L15.5318 33.2046C15.6051 32.4838 15.5606 31.8292 15.4377 31.2439L14.7037 31.398ZM13.694 28.4015C14.0309 28.2542 14.7718 27.9677 15.6369 27.642L15.3727 26.9401C14.5127 27.2639 13.752 27.5576 13.3935 27.7144L13.694 28.4015ZM15.1374 27.3662C15.3048 28.1846 15.7014 29.4982 16.3443 30.7292L17.0091 30.3819C16.4036 29.2227 16.0279 27.9772 15.8722 27.216L15.1374 27.3662ZM16.9408 30.8218L18.0853 29.6865L17.5571 29.154L16.4126 30.2893L16.9408 30.8218ZM17.5392 29.6675L18.6836 30.973L19.2476 30.4786L18.1032 29.1731L17.5392 29.6675ZM16.3443 30.7292C16.4854 30.9992 16.6388 31.2663 16.805 31.5241L17.4354 31.1178C17.283 30.8813 17.1409 30.6342 17.0091 30.3819L16.3443 30.7292ZM16.805 31.5241C16.9904 31.8117 17.1923 32.0887 17.4112 32.3456L17.9821 31.8592C17.7878 31.6312 17.6055 31.3817 17.4354 31.1178L16.805 31.5241ZM17.4112 32.3456C17.8075 32.8107 18.2651 33.2163 18.7882 33.4971L19.1429 32.8363C18.7229 32.6108 18.3353 32.2737 17.9821 31.8592L17.4112 32.3456ZM18.6899 30.4717L18.1413 31.0668L18.6927 31.5751L19.2413 30.98L18.6899 30.4717ZM18.1413 31.0668L17.4209 31.8482L17.9724 32.3565L18.6927 31.5751L18.1413 31.0668ZM26.4884 33.1096L26.1438 30.871L25.4025 30.9851L25.7471 33.2237L26.4884 33.1096ZM26.1438 30.871L25.9116 29.3632L25.1704 29.4773L25.4025 30.9851L26.1438 30.871ZM25.913 29.373C25.8694 29.03 25.6231 28.4223 25.007 27.9803L24.5698 28.5897C25.0037 28.901 25.1496 29.3152 25.169 29.4675L25.913 29.373ZM25.007 27.9803C24.8691 27.8813 24.7131 27.7911 24.5377 27.7144L24.2371 28.4015C24.364 28.457 24.4742 28.5211 24.5698 28.5897L25.007 27.9803ZM18.9656 33.5417H22.7724V32.7917H18.9656V33.5417ZM22.7724 33.5417H26.1178V32.7917H22.7724V33.5417ZM24.5897 27.967C23.9194 28.3858 22.86 29.4976 22.4934 31.2439L23.2274 31.398C23.549 29.8658 24.4771 28.9217 24.9871 28.603L24.5897 27.967ZM22.4934 31.2439C22.3706 31.8292 22.3261 32.4838 22.3993 33.2046L23.1455 33.1288C23.0801 32.485 23.1204 31.9079 23.2274 31.398L22.4934 31.2439ZM24.5377 27.7144C24.1792 27.5576 23.4185 27.2639 22.5584 26.9401L22.2942 27.642C23.1594 27.9677 23.9002 28.2542 24.2371 28.4015L24.5377 27.7144ZM22.0589 27.216C21.9033 27.9772 21.5275 29.2227 20.922 30.3819L21.5868 30.7292C22.2297 29.4982 22.6264 28.1846 22.7937 27.3662L22.0589 27.216ZM21.5185 30.2893L20.3741 29.154L19.8459 29.6865L20.9903 30.8218L21.5185 30.2893ZM19.828 29.1731L18.6836 30.4786L19.2476 30.973L20.392 29.6675L19.828 29.1731ZM20.922 30.3819C20.7902 30.6342 20.6481 30.8813 20.4957 31.1178L21.1261 31.5241C21.2923 31.2663 21.4458 30.9992 21.5868 30.7292L20.922 30.3819ZM20.4957 31.1178C20.3256 31.3817 20.1433 31.6312 19.9491 31.8592L20.5199 32.3456C20.7389 32.0887 20.9407 31.8117 21.1261 31.5241L20.4957 31.1178ZM19.9491 31.8592C19.5958 32.2737 19.2082 32.6108 18.7882 32.8363L19.1429 33.4971C19.666 33.2163 20.1236 32.8107 20.5199 32.3456L19.9491 31.8592ZM18.6899 30.98L19.2384 31.5751L19.7899 31.0668L19.2413 30.4717L18.6899 30.98ZM19.2384 31.5751L19.9588 32.3565L20.5102 31.8482L19.7899 31.0668L19.2384 31.5751ZM20.9556 26.9373V26.6048H20.2056V26.9373H20.9556ZM16.9756 26.6048V26.9373H17.7256V26.6048H16.9756ZM16.9756 26.9373C16.9756 27.9319 17.7048 28.7555 18.6579 28.9036L18.7731 28.1625C18.1798 28.0703 17.7256 27.5565 17.7256 26.9373H16.9756ZM19.2733 28.9036C20.2263 28.7555 20.9556 27.9319 20.9556 26.9373H20.2056C20.2056 27.5565 19.7514 28.0703 19.1581 28.1625L19.2733 28.9036ZM20.3741 29.154L19.4798 28.2669L18.9516 28.7993L19.8459 29.6865L20.3741 29.154ZM19.1581 28.1625C19.0955 28.1723 19.0313 28.1773 18.9656 28.1773V28.9273C19.07 28.9273 19.1728 28.9193 19.2733 28.9036L19.1581 28.1625ZM18.0853 29.6865L18.9796 28.7993L18.4514 28.2669L17.5571 29.154L18.0853 29.6865ZM15.6369 27.642C16.2297 27.4189 16.8758 27.1792 17.4801 26.9567L17.221 26.2529C16.6156 26.4758 15.9677 26.7162 15.3727 26.9401L15.6369 27.642ZM18.9656 28.1773C18.8999 28.1773 18.8356 28.1723 18.7731 28.1625L18.6579 28.9036C18.7584 28.9193 18.8612 28.9273 18.9656 28.9273V28.1773ZM22.5584 26.9401C21.9634 26.7162 21.3156 26.4758 20.7102 26.2529L20.451 26.9567C21.0554 27.1792 21.7014 27.4189 22.2942 27.642L22.5584 26.9401ZM17.3506 25.928H20.5806V25.178H17.3506V25.928ZM20.2056 25.553V26.6048H20.9556V25.553H20.2056ZM17.7256 26.6048V25.553H16.9756V26.6048H17.7256ZM21.042 25.178H20.5806V25.928H21.042V25.178ZM17.3506 25.178H16.8891V25.928H17.3506V25.178Z" fill="white"/>
</svg>
