<svg width="33" height="33" viewBox="0 0 33 33" fill="none" xmlns="http://www.w3.org/2000/svg">
<path d="M6.24275 22.8728C6.81719 22.8728 7.28174 22.3919 7.28174 21.7973C7.28174 21.2027 6.81719 20.7219 6.24275 20.7219C5.66831 20.7219 5.20377 21.2027 5.20377 21.7973C5.20377 22.3919 5.66831 22.8728 6.24275 22.8728Z" fill="#45B36B"/>
<path d="M11.2223 22.8728C11.7967 22.8728 12.2613 22.3919 12.2613 21.7973C12.2613 21.2027 11.7967 20.7219 11.2223 20.7219C10.6478 20.7219 10.1833 21.2027 10.1833 21.7973C10.1833 22.3919 10.6478 22.8728 11.2223 22.8728Z" fill="#45B36B"/>
<path d="M18.8169 19.8321H15.838C10.6771 19.8321 6.49337 15.6483 6.49337 10.4875C6.49337 5.32658 10.6771 1.14286 15.838 1.14286H22.5125C27.6734 1.14286 31.8571 5.32658 31.8571 10.4875C31.8571 14.035 29.8803 17.1208 26.9682 18.7034L28.3267 21.6223C28.808 22.6563 27.7537 23.7358 26.7087 23.2793L18.8169 19.8321Z" fill="#45B36B" fill-opacity="0.2"/>
<path d="M11.6282 27.8416H14.8763C17.7588 27.8416 20.1843 25.8164 20.8973 23.0657L18.3375 21.9475H15.0213C10.5722 21.9475 6.77539 19.1543 5.28894 15.2258C4.57948 15.4536 3.92427 15.8091 3.34837 16.2662C1.86267 17.4455 0.904755 19.3017 0.904755 21.3894C0.904755 24.0371 2.44551 26.3123 4.6496 27.3069L4.64879 27.3095L3.67709 30.4736C3.33593 31.5845 4.57508 32.5109 5.54408 31.8694L11.6282 27.8416Z" fill="#45B36B" fill-opacity="0.2"/>
<path d="M18.8169 19.8321H15.838C10.6771 19.8321 6.49337 15.6483 6.49337 10.4875C6.49337 5.32658 10.6771 1.14286 15.838 1.14286H22.5125C27.6734 1.14286 31.8571 5.32658 31.8571 10.4875C31.8571 14.035 29.8803 17.1208 26.9682 18.7034L28.3267 21.6223C28.808 22.6563 27.7537 23.7358 26.7087 23.2793L18.8169 19.8321Z" stroke="#45B36B" stroke-width="1.11319"/>
<path d="M11.6282 27.8416H14.8763C17.7588 27.8416 20.1843 25.8164 20.8973 23.0657L18.3375 21.9475H15.0213C10.5722 21.9475 6.77539 19.1543 5.28894 15.2258C4.57948 15.4536 3.92427 15.8091 3.34837 16.2662C1.86267 17.4455 0.904755 19.3017 0.904755 21.3894C0.904755 24.0371 2.44551 26.3123 4.6496 27.3069L4.64879 27.3095L3.67709 30.4736C3.33593 31.5845 4.57508 32.5109 5.54408 31.8694L11.6282 27.8416Z" stroke="#45B36B" stroke-width="1.11319"/>
<path d="M10.9958 8.116H12.1208L11.7161 10.0686H13.4791L13.8838 8.116H15.0088L13.973 13.1574H12.848L13.2733 11.0911H11.5103L11.085 13.1574H9.95999L10.9958 8.116Z" fill="#45B36B"/>
<path d="M16.4076 13.2284C16.0966 13.2284 15.8268 13.1621 15.5981 13.0295C15.374 12.897 15.2003 12.7124 15.0768 12.4757C14.9579 12.2343 14.8984 11.9597 14.8984 11.6521C14.8984 11.3349 14.9579 11.039 15.0768 10.7645C15.1957 10.4899 15.3603 10.2485 15.5707 10.0402C15.7811 9.82722 16.0257 9.66154 16.3047 9.5432C16.5882 9.42013 16.8923 9.35859 17.217 9.35859C17.4914 9.35859 17.7269 9.40119 17.9236 9.4864C18.1248 9.56687 18.278 9.68758 18.3832 9.84852C18.493 10.0047 18.5478 10.1964 18.5478 10.4237C18.5478 10.826 18.3672 11.1337 18.0059 11.3467C17.6492 11.555 17.1164 11.6592 16.4076 11.6592C16.2704 11.6592 16.1195 11.6568 15.9548 11.6521C15.7948 11.6426 15.6279 11.6284 15.4541 11.6094L15.5913 10.9136C15.7376 10.9278 15.8771 10.9396 16.0097 10.9491C16.1423 10.9538 16.275 10.9562 16.4076 10.9562C16.6774 10.9562 16.8901 10.942 17.0455 10.9136C17.2056 10.8805 17.3199 10.8308 17.3885 10.7645C17.4571 10.6982 17.4914 10.6177 17.4914 10.5231C17.4914 10.4473 17.4708 10.3858 17.4297 10.3385C17.3931 10.2864 17.3405 10.2462 17.2719 10.2178C17.2079 10.1893 17.1301 10.1751 17.0387 10.1751C16.8878 10.1751 16.7483 10.2154 16.6202 10.2959C16.4922 10.3763 16.3801 10.4876 16.2841 10.6296C16.1926 10.7716 16.1195 10.9349 16.0646 11.1195C16.0143 11.2994 15.9891 11.4935 15.9891 11.7018C15.9891 11.8485 16.0097 11.9763 16.0509 12.0852C16.092 12.1893 16.1583 12.2698 16.2498 12.3266C16.3458 12.3834 16.4648 12.4118 16.6065 12.4118C16.7712 12.4118 16.9221 12.3716 17.0593 12.2911C17.201 12.2106 17.3154 12.0994 17.4023 11.9574L18.2666 12.2414C18.1431 12.4355 17.9808 12.6083 17.7795 12.7597C17.5783 12.9065 17.3588 13.0224 17.121 13.1077C16.8878 13.1881 16.65 13.2284 16.4076 13.2284Z" fill="#45B36B"/>
<path d="M19.5056 13.2213C19.2495 13.2213 19.0528 13.1621 18.9156 13.0438C18.783 12.9207 18.7167 12.7479 18.7167 12.5254C18.7167 12.4781 18.719 12.4307 18.7236 12.3834C18.7281 12.3313 18.7373 12.2793 18.751 12.2272L19.6222 7.97399H20.7198L19.924 11.8296C19.9194 11.8532 19.9149 11.8793 19.9103 11.9077C19.9103 11.9313 19.9103 11.955 19.9103 11.9787C19.9103 12.1633 19.9972 12.2556 20.171 12.2556C20.2213 12.2556 20.2784 12.2485 20.3425 12.2343C20.4111 12.2154 20.4751 12.1893 20.5345 12.1562L20.5002 13.0082C20.3539 13.0745 20.1893 13.1266 20.0063 13.1645C19.8234 13.2023 19.6565 13.2213 19.5056 13.2213Z" fill="#45B36B"/>
<path d="M21.743 13.2213C21.4869 13.2213 21.2903 13.1621 21.1531 13.0438C21.0205 12.9207 20.9542 12.7479 20.9542 12.5254C20.9542 12.4781 20.9565 12.4307 20.961 12.3834C20.9656 12.3313 20.9747 12.2793 20.9885 12.2272L21.8597 7.97399H22.9572L22.1615 11.8296C22.1569 11.8532 22.1523 11.8793 22.1478 11.9077C22.1478 11.9313 22.1478 11.955 22.1478 11.9787C22.1478 12.1633 22.2347 12.2556 22.4084 12.2556C22.4587 12.2556 22.5159 12.2485 22.5799 12.2343C22.6485 12.2154 22.7126 12.1893 22.772 12.1562L22.7377 13.0082C22.5914 13.0745 22.4267 13.1266 22.2438 13.1645C22.0609 13.2023 21.894 13.2213 21.743 13.2213Z" fill="#45B36B"/>
<path d="M24.7151 13.2284C24.3539 13.2284 24.0589 13.1574 23.8302 13.0153C23.6016 12.8686 23.4324 12.6769 23.3226 12.4402C23.2174 12.1988 23.1648 11.9337 23.1648 11.645C23.1648 11.342 23.2174 11.0532 23.3226 10.7787C23.4324 10.5041 23.5856 10.2604 23.7822 10.0473C23.9789 9.83432 24.2121 9.66628 24.4819 9.5432C24.7563 9.42013 25.0627 9.35859 25.4011 9.35859C25.767 9.35859 26.0619 9.42959 26.286 9.5716C26.5147 9.71361 26.6816 9.90533 26.7868 10.1467C26.8965 10.3834 26.9514 10.6485 26.9514 10.942C26.9514 11.2402 26.8965 11.5266 26.7868 11.8012C26.6816 12.0757 26.5307 12.3219 26.334 12.5396C26.1374 12.7526 25.9019 12.9207 25.6275 13.0438C25.3577 13.1668 25.0536 13.2284 24.7151 13.2284ZM24.8729 12.2698C24.9964 12.2698 25.113 12.2414 25.2228 12.1846C25.3371 12.1231 25.4377 12.0378 25.5246 11.929C25.6115 11.8201 25.6801 11.6923 25.7304 11.5455C25.7807 11.3988 25.8058 11.2426 25.8058 11.0769C25.8058 10.9207 25.783 10.7882 25.7372 10.6793C25.6961 10.5657 25.6344 10.4781 25.552 10.4166C25.4697 10.355 25.3668 10.3243 25.2433 10.3243C25.1244 10.3243 25.0078 10.355 24.8935 10.4166C24.7837 10.4734 24.6831 10.5562 24.5917 10.6651C24.5048 10.774 24.4362 10.9018 24.3859 11.0485C24.3356 11.1953 24.3104 11.3538 24.3104 11.5242C24.3104 11.671 24.331 11.8012 24.3722 11.9148C24.4179 12.0284 24.4819 12.116 24.5642 12.1775C24.6511 12.239 24.754 12.2698 24.8729 12.2698Z" fill="#45B36B"/>
<path d="M27.6293 11.155L28.2536 8.0663H29.3511L28.7269 11.155H27.6293ZM27.2109 13.1574L27.4578 11.9787H28.5554L28.3084 13.1574H27.2109Z" fill="#45B36B"/>
</svg>
