<svg width="42" height="42" viewBox="0 0 42 42" fill="none" xmlns="http://www.w3.org/2000/svg">
<path d="M23.7285 17.3166V21.2728H27.2754C27.5482 21.2728 27.6847 21.5456 27.6847 21.8185L27.139 24.4104C27.139 24.5469 26.8661 24.6833 26.7297 24.6833H23.7285V34.642L25.0927 34.642C31.9137 34.642 34.6421 31.9136 34.6421 25.0925V16.9073C34.6421 10.0863 31.9137 7.35791 25.0927 7.35791H16.9075C10.0864 7.35791 7.35803 10.0863 7.35803 16.9073V25.0925C7.35803 31.9136 10.0864 34.642 16.9075 34.642L19.6359 34.642V24.8197H17.3167C17.0439 24.8197 16.9075 24.6833 16.9075 24.4104V21.8185C16.9075 21.5456 17.0439 21.4092 17.3167 21.4092H19.6359V16.9073C19.6359 14.5882 21.4093 12.8147 23.7285 12.8147H27.4118C27.6847 12.8147 27.8211 12.9511 27.8211 13.224V16.4981C27.8211 16.7709 27.6847 16.9073 27.4118 16.9073H24.1377C23.8649 16.9073 23.7285 17.0437 23.7285 17.3166Z" fill="white"/>
</svg>
