<svg width="46" height="23" viewBox="0 0 46 23" fill="none" xmlns="http://www.w3.org/2000/svg">
<path fill-rule="evenodd" clip-rule="evenodd" d="M42.2855 21.1489C42.6727 22.0121 41.6987 22.8495 40.9033 22.3372L35.0951 18.5964H29.2265C24.0982 18.5964 19.9409 14.4391 19.9409 9.31081C19.9409 4.18254 24.0982 0.0252647 29.2264 0.0252647L36.657 0.0252647C41.7853 0.0252647 45.9426 4.18254 45.9426 9.31081C45.9426 12.9815 43.8127 16.1547 40.7213 17.662L42.2855 21.1489Z" fill="#1A61AE"/>
<path d="M5.42994 22.3371C4.63459 22.8493 3.66059 22.0119 4.04779 21.1487L5.1921 18.5978H3.16887C1.41875 18.5978 0 17.179 0 15.4289V3.19401C0 1.4439 1.41875 0.0251465 3.16887 0.0251465H23.4193C23.481 0.0251465 23.5423 0.0269092 23.6031 0.0303871C20.47 1.93295 18.3769 5.37741 18.3769 9.31074C18.3769 13.245 20.4709 16.6901 23.6052 18.5924C23.5437 18.596 23.4817 18.5978 23.4193 18.5978H11.2357L5.42994 22.3371Z" fill="#1FC974"/>
<path fill-rule="evenodd" clip-rule="evenodd" d="M37.1321 12.5432C36.6105 12.5432 36.1876 12.9654 36.1876 13.4863V14.4293C36.1876 14.9501 35.7648 15.3723 35.2432 15.3723H34.2987C33.7771 15.3723 33.3543 14.9501 33.3543 14.4293V11.6002C33.3543 10.5586 34.2 9.71415 35.2432 9.71415H38.0765C38.5981 9.71415 39.021 10.1364 39.021 10.6572V11.6002C39.021 12.121 38.5981 12.5432 38.0765 12.5432H37.1321ZM36.1876 5.2348C36.1876 5.75562 36.6105 6.17783 37.1321 6.17783H38.0765C38.5981 6.17783 39.021 6.60004 39.021 7.12085V8.06388C39.021 8.5847 38.5981 9.0069 38.0765 9.0069H35.2432C34.2 9.0069 33.3543 8.16249 33.3543 7.12085V4.29178C33.3543 3.77096 33.7771 3.34875 34.2987 3.34875H35.2432C35.7648 3.34875 36.1876 3.77096 36.1876 4.29178V5.2348ZM28.8682 6.17783C29.3898 6.17783 29.8126 5.75562 29.8126 5.2348V4.29178C29.8126 3.77096 30.2355 3.34875 30.7571 3.34875H31.7015C32.2231 3.34875 32.646 3.77096 32.646 4.29178V7.12085C32.646 8.16249 31.8003 9.0069 30.7571 9.0069H27.9237C27.4021 9.0069 26.9793 8.5847 26.9793 8.06388V7.12085C26.9793 6.60004 27.4021 6.17783 27.9237 6.17783H28.8682ZM29.8126 13.4863C29.8126 12.9654 29.3898 12.5432 28.8682 12.5432H27.9237C27.4021 12.5432 26.9793 12.121 26.9793 11.6002V10.6572C26.9793 10.1364 27.4021 9.71415 27.9237 9.71415H30.7571C31.8003 9.71415 32.646 10.5586 32.646 11.6002V14.4293C32.646 14.9501 32.2231 15.3723 31.7015 15.3723H30.7571C30.2355 15.3723 29.8126 14.9501 29.8126 14.4293V13.4863Z" fill="white"/>
<path d="M15.9524 9.14408C15.9505 9.56511 15.9196 9.9439 15.8598 10.2805L7.00898 10.2403C7.078 11.0827 7.38096 11.7437 7.91786 12.2233C8.45476 12.7029 9.11658 12.9445 9.90332 12.9481C11.0397 12.9532 11.8505 12.4868 12.3355 11.5486L15.6355 11.5636C15.2807 12.6848 14.6063 13.608 13.6123 14.3333C12.6183 15.0446 11.4001 15.3969 9.95779 15.3904C8.79225 15.3851 7.74437 15.1347 6.81417 14.6393C5.8986 14.1299 5.18064 13.4178 4.66029 12.5032C4.1545 11.5887 3.90432 10.5349 3.90974 9.34201C3.91522 8.13505 4.17499 7.07661 4.68906 6.16669C5.20313 5.25677 5.92021 4.5583 6.84031 4.07126C7.7604 3.58422 8.81779 3.34342 10.0125 3.34884C11.1634 3.35407 12.1895 3.59732 13.0906 4.07859C14.0063 4.55993 14.7098 5.24381 15.2012 6.13022C15.7072 7.00267 15.9576 8.00729 15.9524 9.14408ZM12.7874 8.28762C12.7763 7.5297 12.4949 6.92493 11.9433 6.47331C11.3918 6.00766 10.7154 5.77302 9.91406 5.76938C9.15646 5.76594 8.51439 5.98758 7.98786 6.4343C7.47596 6.86705 7.15994 7.47612 7.03982 8.26152L12.7874 8.28762Z" fill="white"/>
</svg>
