<svg width="149" height="55" viewBox="0 0 149 55" fill="none" xmlns="http://www.w3.org/2000/svg">
<path d="M18.4882 39.6992C18.5966 39.0131 18.6688 38.3992 18.6688 37.7854C18.6688 35.0771 17.8022 32.8383 16.0689 30.9967C14.3717 29.1551 12.169 28.2524 9.533 28.2524C6.75254 28.2524 4.44151 29.1551 2.67213 30.9967C0.902746 32.8022 0 35.0771 0 37.7854C0 40.5297 0.902746 42.8046 2.70824 44.6101C4.51373 46.4156 6.89698 47.3184 9.8941 47.3184C13.3606 47.3184 15.9967 46.0184 17.766 43.4546L14.0106 41.288C13.1079 42.4796 11.7357 43.0935 9.96632 43.0935C7.18586 43.0935 5.4887 41.9741 4.87483 39.6992H18.4882ZM4.80261 36.0882C5.34426 33.7772 7.04142 32.4411 9.533 32.4411C11.6635 32.4411 13.469 33.6327 14.0106 36.0882H4.80261Z" fill="white"/>
<path d="M30.5148 28.2524C28.0593 28.2524 26.2538 29.0829 25.1344 30.7801V28.7579H20.4763V46.8128H25.1344V37.0632C25.1344 34.066 26.6871 32.5855 29.1065 32.5855C31.2731 32.5855 32.6814 33.8855 32.6814 36.3049V46.8128H37.3395V35.7271C37.3395 33.38 36.6896 31.5745 35.3896 30.2384C34.1258 28.9023 32.5008 28.2524 30.5148 28.2524Z" fill="white"/>
<path d="M53.7027 30.9967C52.3305 29.1551 50.4167 28.2524 47.9251 28.2524C45.3974 28.2524 43.2669 29.1551 41.5336 30.9606C39.8004 32.7661 38.9337 34.9327 38.9337 37.4965C38.9337 40.0603 39.8004 42.263 41.4975 44.0685C43.2308 45.8379 45.3613 46.7406 47.9251 46.7406C50.4167 46.7406 52.3305 45.8379 53.7027 43.9963V45.9462C53.7027 48.7989 51.8972 50.3877 48.9723 50.3877C46.7335 50.3877 45.1446 49.5572 44.2419 47.86L40.2698 50.1349C41.8586 53.0237 44.928 54.5403 48.8278 54.5403C51.4277 54.5403 53.6304 53.8181 55.472 52.3376C57.3136 50.8571 58.2525 48.7266 58.2525 45.9462V28.7579H53.7027V30.9967ZM53.7027 37.4965C53.7027 40.3853 51.5722 42.4435 48.6473 42.4435C45.7224 42.4435 43.5919 40.3853 43.5919 37.4965C43.5919 36.0882 44.0613 34.8966 45.0002 33.9938C45.9752 33.055 47.1668 32.5855 48.6473 32.5855C50.1278 32.5855 51.3194 33.055 52.2583 33.9938C53.2332 34.8966 53.7027 36.0882 53.7027 37.4965Z" fill="white"/>
<path d="M65.6903 46.8128V20.4526H61.0321V46.8128H65.6903Z" fill="white"/>
<path d="M70.8204 27.1691C72.4092 27.1691 73.7092 25.9052 73.7092 24.3886C73.7092 22.872 72.4092 21.572 70.8204 21.572C69.2677 21.572 67.9677 22.872 67.9677 24.3886C67.9677 25.9052 69.2677 27.1691 70.8204 27.1691ZM73.1676 46.8128V28.7579H68.5094V46.8128H73.1676Z" fill="white"/>
<path d="M80.1427 33.8855C80.1427 32.9828 81.0454 32.405 82.237 32.405C83.5731 32.405 84.5481 33.0189 85.1258 34.2466L89.0979 32.08C87.6896 29.6245 85.1619 28.2524 82.237 28.2524C80.2871 28.2524 78.6622 28.7579 77.3261 29.8051C76.0262 30.8162 75.3762 32.2244 75.3762 33.9938C75.3762 37.7493 78.7344 38.8687 81.4065 39.5547C83.2481 40.0242 84.6925 40.5658 84.6925 41.5408C84.6925 42.588 83.862 43.0935 82.2009 43.0935C80.3593 43.0935 79.2038 42.2991 78.6622 40.7464L74.6179 43.0213C75.9539 45.874 78.4816 47.3184 82.2009 47.3184C84.2592 47.3184 85.9925 46.8128 87.3646 45.8379C88.7729 44.8268 89.459 43.3824 89.459 41.5408C89.4951 37.677 86.0647 36.4132 83.4287 35.8715C81.5871 35.4021 80.1427 34.8605 80.1427 33.8855Z" fill="white"/>
<path d="M101.225 28.2524C98.7697 28.2524 96.9642 29.0829 95.8448 30.7801V21.5359H91.1866V46.8128H95.8448V37.0632C95.8448 34.066 97.3975 32.5855 99.8169 32.5855C101.983 32.5855 103.392 33.8855 103.392 36.3049V46.8128H108.05V35.7271C108.05 33.38 107.4 31.5745 106.1 30.2384C104.836 28.9023 103.211 28.2524 101.225 28.2524Z" fill="white"/>
<path fill-rule="evenodd" clip-rule="evenodd" d="M128.547 0C139.843 0 149 9.18978 149 20.5259C149 27.02 146.047 32.8041 141.395 36.5612C135.852 41.0377 128.854 43.8257 122.299 46.6162C120.908 47.208 119.511 45.7982 120.021 44.432C120.605 42.8672 121.204 41.3646 121.102 39.7022C121.1 39.6691 121.083 39.6399 121.052 39.6278C113.449 36.6343 108.095 29.2175 108.095 20.5259C108.095 9.18978 117.252 0 128.547 0ZM137.172 27.065C136.083 27.065 135.201 27.9463 135.201 29.0334V31.0018C135.201 32.0889 134.318 32.9701 133.229 32.9701H131.258C130.169 32.9701 129.287 32.0889 129.287 31.0018V25.0967C129.287 22.9225 131.052 21.1599 133.229 21.1599H139.143C140.232 21.1599 141.115 22.0412 141.115 23.1283V25.0967C141.115 26.1838 140.232 27.065 139.143 27.065H137.172ZM135.201 11.8102C135.201 12.8973 136.083 13.7786 137.172 13.7786H139.143C140.232 13.7786 141.115 14.6599 141.115 15.747V17.7153C141.115 18.8024 140.232 19.6837 139.143 19.6837H133.229C131.052 19.6837 129.287 17.9212 129.287 15.747V9.84186C129.287 8.75476 130.169 7.87349 131.258 7.87349H133.229C134.318 7.87349 135.201 8.75476 135.201 9.84186V11.8102ZM119.923 13.7786C121.012 13.7786 121.894 12.8973 121.894 11.8102V9.84186C121.894 8.75476 122.777 7.87349 123.865 7.87349H125.837C126.926 7.87349 127.808 8.75476 127.808 9.84186V15.747C127.808 17.9212 126.043 19.6837 123.865 19.6837H117.951C116.863 19.6837 115.98 18.8024 115.98 17.7153V15.747C115.98 14.6599 116.863 13.7786 117.951 13.7786H119.923ZM121.894 29.0334C121.894 27.9463 121.012 27.065 119.923 27.065H117.951C116.863 27.065 115.98 26.1838 115.98 25.0967V23.1283C115.98 22.0412 116.863 21.1599 117.951 21.1599H123.865C126.043 21.1599 127.808 22.9225 127.808 25.0967V31.0018C127.808 32.0889 126.926 32.9701 125.837 32.9701H123.865C122.777 32.9701 121.894 32.0889 121.894 31.0018V29.0334Z" fill="white"/>
</svg>
