<svg width="42" height="42" viewBox="0 0 42 42" fill="none" xmlns="http://www.w3.org/2000/svg">
<path d="M13.3709 7.48997C12.9036 7.52356 12.3284 7.60531 11.9621 7.6902C11.3039 7.84276 10.5011 8.20371 9.94722 8.59612C9.55749 8.87221 8.88499 9.53904 8.61595 9.91611C8.09584 10.6451 7.73452 11.5866 7.55352 12.6844C7.49544 13.0367 7.49209 13.4867 7.49209 20.9471C7.49209 29.3026 7.48637 28.9799 7.64911 29.8024C8.00119 31.5818 9.10778 33.0375 10.7249 33.8485C11.529 34.2518 12.275 34.4256 13.5536 34.5076C14.2667 34.5533 27.7559 34.5546 28.4366 34.509C29.0966 34.4648 29.7819 34.3656 30.1956 34.2545C31.1639 33.9943 32.0294 33.4907 32.7542 32.7656C33.2122 32.3074 33.5168 31.8846 33.8035 31.3093C34.2661 30.3809 34.4517 29.5414 34.4881 28.2126L34.508 27.4863L34.1188 27.8754C32.2111 29.7831 29.4512 30.9352 25.7953 31.3498C25.0412 31.4354 22.7502 31.4348 22.0195 31.349C19.4173 31.0433 17.3866 30.4169 15.6958 29.3985C15.4771 29.2668 15.2874 29.159 15.2744 29.159C15.2613 29.159 15.0936 29.2204 14.9017 29.2954C14.1149 29.603 13.2242 29.7685 12.3556 29.7685C11.8672 29.7685 11.8149 29.7627 11.7602 29.7023C11.7028 29.6389 11.7029 29.6326 11.7635 29.5555C12.505 28.6098 12.7579 28.0065 12.7578 27.1835C12.7578 26.8212 12.701 26.6736 12.3648 26.1621C12.0812 25.7306 11.651 24.8695 11.3914 24.2135C10.8946 22.9583 10.5719 21.607 10.397 20.0497C10.3143 19.3135 10.315 17.3445 10.3982 16.5957C10.6828 14.0349 11.4124 11.8837 12.5947 10.1196C13.2151 9.19377 14.234 8.16426 15.0502 7.63846C15.1656 7.56417 15.2608 7.49193 15.2618 7.47795C15.2643 7.44507 13.8723 7.45391 13.3709 7.48997Z" fill="white"/>
<path fill-rule="evenodd" clip-rule="evenodd" d="M21.573 17.8806C20.2439 18.0913 19.3095 19.254 19.4079 20.5746C19.4361 20.9524 19.5058 21.2007 19.6879 21.5717C19.8175 21.8359 19.8955 21.9425 20.1363 22.1847C20.4593 22.5094 20.7336 22.6814 21.1503 22.8207C21.3821 22.8982 21.4643 22.9076 21.9179 22.9083C22.3817 22.9092 22.4496 22.9013 22.6994 22.8175C22.8499 22.767 23.0652 22.6661 23.1778 22.5933L23.3826 22.4609L23.4623 22.6311C23.5763 22.8745 23.6377 22.9037 24.0715 22.9216L24.4407 22.9368V20.4774V18.0179H23.9328H23.4248V18.1703C23.4248 18.2541 23.4196 18.3227 23.4133 18.3227C23.407 18.3227 23.257 18.2489 23.0799 18.1588C22.9029 18.0687 22.6581 17.9698 22.536 17.9392C22.2639 17.8708 21.809 17.8431 21.573 17.8806ZM22.9871 19.3443C22.7975 19.1547 22.5067 18.9893 22.2689 18.9357C21.4983 18.7621 20.7995 19.1353 20.5065 19.8769C20.4465 20.0287 20.4311 20.1379 20.4297 20.4222C20.428 20.7537 20.4352 20.7933 20.5359 21.0058C20.679 21.3079 20.8235 21.4818 21.0662 21.6438C21.6807 22.0542 22.4211 21.9914 22.9533 21.4837C23.5564 20.9085 23.5718 19.929 22.9871 19.3443Z" fill="white"/>
<path d="M25.3625 19.5164C25.3706 22.2369 25.3789 22.6846 25.4221 22.7498C25.5123 22.8859 25.705 22.935 26.0993 22.9225L26.4556 22.9112V19.6349V16.3586H25.9043H25.353L25.3625 19.5164Z" fill="white"/>
<path fill-rule="evenodd" clip-rule="evenodd" d="M29.3444 17.8658C28.8424 17.9607 28.388 18.1968 28.0187 18.5544C27.5697 18.9894 27.3173 19.5072 27.257 20.1175C27.1478 21.2225 27.6855 22.2149 28.6525 22.6927C29.1037 22.9157 29.3802 22.9728 29.9097 22.9523C30.2275 22.94 30.3678 22.9182 30.5537 22.8523C31.2835 22.5939 31.7339 22.1963 32.06 21.5228C32.2571 21.1157 32.3309 20.804 32.3309 20.3787C32.3309 19.6383 31.9899 18.9063 31.4296 18.4442C30.8333 17.9523 30.0443 17.7335 29.3444 17.8658ZM31.2909 20.1677C31.186 19.555 30.7442 19.0724 30.1455 18.9164C29.2 18.6701 28.2673 19.4072 28.2673 20.4007C28.2673 21.0116 28.5909 21.5255 29.1388 21.7845C29.7397 22.0685 30.4005 21.9486 30.854 21.4731C31.1993 21.1111 31.3668 20.6107 31.2909 20.1677Z" fill="white"/>
<path d="M13.8753 16.9679V17.5094L15.6847 17.5181L17.4942 17.5269L15.6982 19.7619C14.648 21.0689 13.8683 22.0691 13.8203 22.1709C13.7657 22.2869 13.7314 22.435 13.7176 22.6144L13.6968 22.8839L13.8072 22.906C13.868 22.9182 14.9863 22.9273 16.2923 22.9262C18.0397 22.9248 18.698 22.9136 18.7843 22.8839C18.8514 22.8608 18.9349 22.7942 18.9791 22.7284C19.0473 22.627 19.0564 22.5717 19.0564 22.2628V21.9122H17.179C16.1464 21.9122 15.2946 21.9008 15.286 21.8868C15.2774 21.8728 15.5088 21.5627 15.8004 21.1975C17.3877 19.2095 18.8455 17.3585 18.9116 17.2472C18.9909 17.1137 19.0425 16.8993 19.0661 16.6041L19.0803 16.4264H16.4778H13.8753V16.9679Z" fill="white"/>
</svg>
