<svg width="24" height="24" viewBox="0 0 24 24" fill="none" xmlns="http://www.w3.org/2000/svg">
<path d="M14 2.5C9.85786 2.5 6.5 5.85786 6.5 10C6.5 11.7101 7.07238 13.2866 8.03601 14.5483L3.29289 19.2929C2.90237 19.6834 2.90237 20.3166 3.29289 20.7071C3.65338 21.0676 4.22061 21.0953 4.6129 20.7903L4.70711 20.7071L9.45173 15.964C10.7134 16.9276 12.2899 17.5 14 17.5C18.1421 17.5 21.5 14.1421 21.5 10C21.5 5.85786 18.1421 2.5 14 2.5ZM14 4.5C17.0376 4.5 19.5 6.96243 19.5 10C19.5 13.0376 17.0376 15.5 14 15.5C10.9624 15.5 8.5 13.0376 8.5 10C8.5 6.96243 10.9624 4.5 14 4.5Z" fill="#616161"/>
</svg>
