<svg width="62" height="62" viewBox="0 0 62 62" fill="none" xmlns="http://www.w3.org/2000/svg">
<path d="M31 1C47.5685 1 61 14.4315 61 31C61 47.5685 47.5685 61 31 61C14.4315 61 1 47.5685 1 31C1 14.4315 14.4315 1 31 1Z" stroke="white" stroke-width="2"/>
<path fill-rule="evenodd" clip-rule="evenodd" d="M27.8931 20.0394C26.1694 18.8833 23.775 20.0403 23.775 22.0294V39.97C23.775 41.9591 26.1694 43.1161 27.8931 41.96L41.2676 32.9896C42.7217 32.0143 42.7217 29.985 41.2676 29.0097L27.8931 20.0394Z" fill="white"/>
<path d="M23.775 22.0294C23.775 20.0403 26.1694 18.8833 27.8931 20.0394L41.2676 29.0097C42.7217 29.985 42.7217 32.0143 41.2676 32.9896L27.8931 41.96C26.1694 43.1161 23.775 41.9591 23.775 39.97V22.0294Z" fill="white"/>
</svg>
