<svg width="17" height="17" viewBox="0 0 26 26" fill="none" xmlns="http://www.w3.org/2000/svg">
<path d="M25.7022 24.4594C23.8779 21.1603 20.9564 18.6859 17.4995 17.5119C19.1556 16.4773 20.4424 14.9004 21.1623 13.0235C21.8822 11.1466 21.9953 9.07339 21.4843 7.12242C20.9733 5.17145 19.8665 3.45057 18.3338 2.22408C16.8011 0.997592 14.9273 0.333336 13.0002 0.333336C11.0732 0.333336 9.19937 0.997592 7.66668 2.22408C6.13398 3.45057 5.02714 5.17145 4.51616 7.12242C4.00517 9.07339 4.1183 11.1466 4.83817 13.0235C5.55805 14.9004 6.84485 16.4773 8.50093 17.5119C5.04414 18.6859 2.12272 21.1602 0.298441 24.4591C0.212451 24.6152 0.167115 24.7922 0.166992 24.9725C0.16687 25.1528 0.211965 25.3299 0.297742 25.4861C0.383518 25.6422 0.506951 25.7719 0.655622 25.8621C0.804294 25.9523 0.97296 25.9998 1.14465 25.9997L24.856 26C25.0277 26 25.1963 25.9525 25.345 25.8624C25.4937 25.7722 25.6171 25.6425 25.7029 25.4863C25.7887 25.3302 25.8338 25.153 25.8337 24.9728C25.8335 24.7925 25.7882 24.6154 25.7022 24.4594L25.7022 24.4594Z" fill="#1D2628"/>
</svg>
